<svg xmlns="http://www.w3.org/2000/svg" xmlns:xlink="http://www.w3.org/1999/xlink" contentStyleType="text/css" data-diagram-type="SEQUENCE" height="2191.6667px" preserveAspectRatio="none" style="width:1477px;height:2191px;background:#FFFFFF;" version="1.1" viewBox="0 0 1477 2191" width="1477.0833px" zoomAndPan="magnify"><title>Complete Flow: Image Processing (S3 + SQS + Lambda)</title><defs/><g><rect fill="none" height="47.168" rx="4.1667" ry="4.1667" style="stroke:#BABDBF;stroke-width:1.0417;" width="680.4688" x="397.169" y="20.8333"/><text fill="#2FA4E7" font-family="'Verdana'" font-size="20.8333" font-weight="bold" lengthAdjust="spacing" textLength="657.5521" x="408.6273" y="51.6296">Complete Flow: Image Processing (S3 + SQS + Lambda)</text><g><title>S3</title><rect fill="none" height="99.9023" style="stroke:#2683B9;stroke-width:1.0417;" width="10.4167" x="216.508" y="278.2878"/></g><g><title>S3</title><rect fill="none" height="39.5508" style="stroke:#2683B9;stroke-width:1.0417;" width="10.4167" x="216.508" y="985.9049"/></g><g><title>SQS</title><rect fill="none" height="143.5547" style="stroke:#2683B9;stroke-width:1.0417;" width="10.4167" x="434.4269" y="486.4258"/></g><g><title>Lambda</title><rect fill="none" height="1119.8568" style="stroke:#2683B9;stroke-width:1.0417;" width="10.4167" x="662.5783" y="738.2161"/></g><g><title>S3</title><rect fill="none" height="39.5508" style="stroke:#2683B9;stroke-width:1.0417;" width="10.4167" x="926.299" y="1408.431"/></g><g><title>S3</title><rect fill="none" height="39.5508" style="stroke:#2683B9;stroke-width:1.0417;" width="10.4167" x="926.299" y="1566.6341"/></g><g><title>CloudWatch</title><rect fill="none" height="39.5508" style="stroke:#2683B9;stroke-width:1.0417;" width="10.4167" x="1363.1378" y="852.6693"/></g><g><title>CloudWatch</title><rect fill="none" height="39.5508" style="stroke:#2683B9;stroke-width:1.0417;" width="10.4167" x="1363.1378" y="1065.0065"/></g><g><title>CloudWatch</title><rect fill="none" height="39.5508" style="stroke:#2683B9;stroke-width:1.0417;" width="10.4167" x="1363.1378" y="1487.5326"/></g><g><title>CloudWatch</title><rect fill="none" height="39.5508" style="stroke:#2683B9;stroke-width:1.0417;" width="10.4167" x="1363.1378" y="1645.7357"/></g><g><title>CloudWatch</title><rect fill="none" height="39.5508" style="stroke:#2683B9;stroke-width:1.0417;" width="10.4167" x="1363.1378" y="1724.8372"/></g><g><title>User</title><rect fill="#000000" fill-opacity="0.00000" height="1926.3021" width="8.3333" x="65.2873" y="167.9688"/><line style="stroke:#BABDBF;stroke-width:1.0417;stroke-dasharray:5.2083,5.2083;" x1="68.75" x2="68.75" y1="167.9688" y2="2094.2708"/></g><g><title>S3</title><rect fill="#000000" fill-opacity="0.00000" height="1926.3021" width="8.3333" x="217.5496" y="167.9688"/><line style="stroke:#BABDBF;stroke-width:1.0417;stroke-dasharray:5.2083,5.2083;" x1="221.1995" x2="221.1995" y1="167.9688" y2="2094.2708"/></g><g><title>SQS</title><rect fill="#000000" fill-opacity="0.00000" height="1926.3021" width="8.3333" x="435.4685" y="167.9688"/><line style="stroke:#BABDBF;stroke-width:1.0417;stroke-dasharray:5.2083,5.2083;" x1="438.8997" x2="438.8997" y1="167.9688" y2="2094.2708"/></g><g><title>Lambda</title><rect fill="#000000" fill-opacity="0.00000" height="1926.3021" width="8.3333" x="663.62" y="167.9688"/><line style="stroke:#BABDBF;stroke-width:1.0417;stroke-dasharray:5.2083,5.2083;" x1="667.454" x2="667.454" y1="167.9688" y2="2094.2708"/></g><g><title>S3</title><rect fill="#000000" fill-opacity="0.00000" height="1926.3021" width="8.3333" x="927.3407" y="167.9688"/><line style="stroke:#BABDBF;stroke-width:1.0417;stroke-dasharray:5.2083,5.2083;" x1="930.6193" x2="930.6193" y1="167.9688" y2="2094.2708"/></g><g><title>DLQ</title><rect fill="#000000" fill-opacity="0.00000" height="1926.3021" width="8.3333" x="1161.7238" y="167.9688"/><line style="stroke:#BABDBF;stroke-width:1.0417;stroke-dasharray:5.2083,5.2083;" x1="1165.7288" x2="1165.7288" y1="167.9688" y2="2094.2708"/></g><g><title>CloudWatch</title><rect fill="#000000" fill-opacity="0.00000" height="1926.3021" width="8.3333" x="1364.1795" y="167.9688"/><line style="stroke:#BABDBF;stroke-width:1.0417;stroke-dasharray:5.2083,5.2083;" x1="1368.1356" x2="1368.1356" y1="167.9688" y2="2094.2708"/></g><g class="participant participant-head" data-participant="User"><text fill="#000000" font-family="'Verdana'" font-size="12.5" lengthAdjust="spacing" textLength="28.4912" x="52.0833" y="159.8124">User</text><ellipse cx="69.4539" cy="88.8346" fill="none" rx="8.3333" ry="8.3333" style="stroke:#2FA4E7;stroke-width:1.0417;"/><path d="M69.4539,97.168 L69.4539,125.293 M55.9123,105.5013 L82.9956,105.5013 M69.4539,125.293 L55.9123,140.918 M69.4539,125.293 L82.9956,140.918" fill="none" style="stroke:#2FA4E7;stroke-width:1.0417;"/></g><g class="participant participant-tail" data-participant="User"><text fill="#000000" font-family="'Verdana'" font-size="12.5" lengthAdjust="spacing" textLength="28.4912" x="52.0833" y="2110.0403">User</text><ellipse cx="69.4539" cy="2127.5716" fill="none" rx="8.3333" ry="8.3333" style="stroke:#2FA4E7;stroke-width:1.0417;"/><path d="M69.4539,2135.9049 L69.4539,2164.0299 M55.9123,2144.2383 L82.9956,2144.2383 M69.4539,2164.0299 L55.9123,2179.6549 M69.4539,2164.0299 L82.9956,2179.6549" fill="none" style="stroke:#2FA4E7;stroke-width:1.0417;"/></g><g class="participant participant-head" data-participant="S3Input"><rect fill="#ADD8E6" height="54.1016" rx="4.1667" ry="4.1667" style="stroke:#2FA4E7;stroke-width:1.0417;" width="155.2002" x="144.1162" y="112.8255"/><text fill="#000000" font-family="'Verdana'" font-size="12.5" lengthAdjust="spacing" textLength="15.8875" x="213.7726" y="136.9283">S3</text><text fill="#000000" font-family="'Verdana'" font-size="12.5" lengthAdjust="spacing" textLength="130.2002" x="156.6162" y="151.4791">(image-processor-in)</text></g><g class="participant participant-tail" data-participant="S3Input"><rect fill="#ADD8E6" height="54.1016" rx="4.1667" ry="4.1667" style="stroke:#2FA4E7;stroke-width:1.0417;" width="155.2002" x="144.1162" y="2093.2292"/><text fill="#000000" font-family="'Verdana'" font-size="12.5" lengthAdjust="spacing" textLength="15.8875" x="213.7726" y="2117.3319">S3</text><text fill="#000000" font-family="'Verdana'" font-size="12.5" lengthAdjust="spacing" textLength="130.2002" x="156.6162" y="2131.8827">(image-processor-in)</text></g><g class="participant participant-head" data-participant="SQS"><path d="M356.6081,118.0339 L522.6624,118.0339 C527.8707,118.0339 527.8707,143.0013 527.8707,143.0013 C527.8707,143.0013 527.8707,167.9688 522.6624,167.9688 L356.6081,167.9688 C351.3997,167.9688 351.3997,143.0013 351.3997,143.0013 C351.3997,143.0013 351.3997,118.0339 356.6081,118.0339" fill="#FFA500" style="stroke:#2FA4E7;stroke-width:1.0417;"/><path d="M522.6624,118.0339 C517.454,118.0339 517.454,143.0013 517.454,143.0013 C517.454,167.9688 522.6624,167.9688 522.6624,167.9688" fill="none" style="stroke:#2FA4E7;stroke-width:1.0417;"/><text fill="#000000" font-family="'Verdana'" font-size="12.5" lengthAdjust="spacing" textLength="25.708" x="421.5729" y="140.0533">SQS</text><text fill="#000000" font-family="'Verdana'" font-size="12.5" lengthAdjust="spacing" textLength="145.2209" x="361.8164" y="154.6041">(product-image-queue)</text></g><g class="participant participant-tail" data-participant="SQS"><path d="M356.6081,2093.2292 L522.6624,2093.2292 C527.8707,2093.2292 527.8707,2118.1966 527.8707,2118.1966 C527.8707,2118.1966 527.8707,2143.1641 522.6624,2143.1641 L356.6081,2143.1641 C351.3997,2143.1641 351.3997,2118.1966 351.3997,2118.1966 C351.3997,2118.1966 351.3997,2093.2292 356.6081,2093.2292" fill="#FFA500" style="stroke:#2FA4E7;stroke-width:1.0417;"/><path d="M522.6624,2093.2292 C517.454,2093.2292 517.454,2118.1966 517.454,2118.1966 C517.454,2143.1641 522.6624,2143.1641 522.6624,2143.1641" fill="none" style="stroke:#2FA4E7;stroke-width:1.0417;"/><text fill="#000000" font-family="'Verdana'" font-size="12.5" lengthAdjust="spacing" textLength="25.708" x="421.5729" y="2115.2486">SQS</text><text fill="#000000" font-family="'Verdana'" font-size="12.5" lengthAdjust="spacing" textLength="145.2209" x="361.8164" y="2129.7994">(product-image-queue)</text></g><g class="participant participant-head" data-participant="Lambda"><rect fill="#008000" height="54.1016" rx="4.1667" ry="4.1667" style="stroke:#2FA4E7;stroke-width:1.0417;" width="175.6653" x="579.954" y="112.8255"/><text fill="#000000" font-family="'Verdana'" font-size="12.5" lengthAdjust="spacing" textLength="50.3296" x="642.6219" y="136.9283">Lambda</text><text fill="#000000" font-family="'Verdana'" font-size="12.5" lengthAdjust="spacing" textLength="150.6653" x="592.454" y="151.4791">(ProcessImageFunction)</text></g><g class="participant participant-tail" data-participant="Lambda"><rect fill="#008000" height="54.1016" rx="4.1667" ry="4.1667" style="stroke:#2FA4E7;stroke-width:1.0417;" width="175.6653" x="579.954" y="2093.2292"/><text fill="#000000" font-family="'Verdana'" font-size="12.5" lengthAdjust="spacing" textLength="50.3296" x="642.6219" y="2117.3319">Lambda</text><text fill="#000000" font-family="'Verdana'" font-size="12.5" lengthAdjust="spacing" textLength="150.6653" x="592.454" y="2131.8827">(ProcessImageFunction)</text></g><g class="participant participant-head" data-participant="S3Output"><rect fill="#ADD8E6" height="54.1016" rx="4.1667" ry="4.1667" style="stroke:#2FA4E7;stroke-width:1.0417;" width="164.2761" x="849.3693" y="112.8255"/><text fill="#000000" font-family="'Verdana'" font-size="12.5" lengthAdjust="spacing" textLength="15.8875" x="923.5636" y="136.9283">S3</text><text fill="#000000" font-family="'Verdana'" font-size="12.5" lengthAdjust="spacing" textLength="139.2761" x="861.8693" y="151.4791">(image-processor-out)</text></g><g class="participant participant-tail" data-participant="S3Output"><rect fill="#ADD8E6" height="54.1016" rx="4.1667" ry="4.1667" style="stroke:#2FA4E7;stroke-width:1.0417;" width="164.2761" x="849.3693" y="2093.2292"/><text fill="#000000" font-family="'Verdana'" font-size="12.5" lengthAdjust="spacing" textLength="15.8875" x="923.5636" y="2117.3319">S3</text><text fill="#000000" font-family="'Verdana'" font-size="12.5" lengthAdjust="spacing" textLength="139.2761" x="861.8693" y="2131.8827">(image-processor-out)</text></g><g class="participant participant-head" data-participant="DLQ"><path d="M1070.9371,118.0339 L1260.8439,118.0339 C1266.0522,118.0339 1266.0522,143.0013 1266.0522,143.0013 C1266.0522,143.0013 1266.0522,167.9688 1260.8439,167.9688 L1070.9371,167.9688 C1065.7288,167.9688 1065.7288,143.0013 1065.7288,143.0013 C1065.7288,143.0013 1065.7288,118.0339 1070.9371,118.0339" fill="#FF0000" style="stroke:#2FA4E7;stroke-width:1.0417;"/><path d="M1260.8439,118.0339 C1255.6356,118.0339 1255.6356,143.0013 1255.6356,143.0013 C1255.6356,167.9688 1260.8439,167.9688 1260.8439,167.9688" fill="none" style="stroke:#2FA4E7;stroke-width:1.0417;"/><text fill="#000000" font-family="'Verdana'" font-size="12.5" lengthAdjust="spacing" textLength="26.4282" x="1147.4681" y="140.0533">DLQ</text><text fill="#000000" font-family="'Verdana'" font-size="12.5" lengthAdjust="spacing" textLength="169.0735" x="1076.1454" y="154.6041">(product-image-queue-dlq)</text></g><g class="participant participant-tail" data-participant="DLQ"><path d="M1070.9371,2093.2292 L1260.8439,2093.2292 C1266.0522,2093.2292 1266.0522,2118.1966 1266.0522,2118.1966 C1266.0522,2118.1966 1266.0522,2143.1641 1260.8439,2143.1641 L1070.9371,2143.1641 C1065.7288,2143.1641 1065.7288,2118.1966 1065.7288,2118.1966 C1065.7288,2118.1966 1065.7288,2093.2292 1070.9371,2093.2292" fill="#FF0000" style="stroke:#2FA4E7;stroke-width:1.0417;"/><path d="M1260.8439,2093.2292 C1255.6356,2093.2292 1255.6356,2118.1966 1255.6356,2118.1966 C1255.6356,2143.1641 1260.8439,2143.1641 1260.8439,2143.1641" fill="none" style="stroke:#2FA4E7;stroke-width:1.0417;"/><text fill="#000000" font-family="'Verdana'" font-size="12.5" lengthAdjust="spacing" textLength="26.4282" x="1147.4681" y="2115.2486">DLQ</text><text fill="#000000" font-family="'Verdana'" font-size="12.5" lengthAdjust="spacing" textLength="169.0735" x="1076.1454" y="2129.7994">(product-image-queue-dlq)</text></g><g class="participant participant-head" data-participant="CW"><rect fill="#800080" height="54.1016" rx="4.1667" ry="4.1667" style="stroke:#2FA4E7;stroke-width:1.0417;" width="100.4211" x="1318.1356" y="112.8255"/><text fill="#000000" font-family="'Verdana'" font-size="12.5" lengthAdjust="spacing" textLength="75.4211" x="1330.6356" y="136.9283">CloudWatch</text><text fill="#000000" font-family="'Verdana'" font-size="12.5" lengthAdjust="spacing" textLength="29.0588" x="1353.8167" y="151.4791">Logs</text></g><g class="participant participant-tail" data-participant="CW"><rect fill="#800080" height="54.1016" rx="4.1667" ry="4.1667" style="stroke:#2FA4E7;stroke-width:1.0417;" width="100.4211" x="1318.1356" y="2093.2292"/><text fill="#000000" font-family="'Verdana'" font-size="12.5" lengthAdjust="spacing" textLength="75.4211" x="1330.6356" y="2117.3319">CloudWatch</text><text fill="#000000" font-family="'Verdana'" font-size="12.5" lengthAdjust="spacing" textLength="29.0588" x="1353.8167" y="2131.8827">Logs</text></g><g><title>S3</title><rect fill="none" height="99.9023" style="stroke:#2683B9;stroke-width:1.0417;" width="10.4167" x="216.508" y="278.2878"/></g><g><title>S3</title><rect fill="none" height="39.5508" style="stroke:#2683B9;stroke-width:1.0417;" width="10.4167" x="216.508" y="985.9049"/></g><g><title>SQS</title><rect fill="none" height="143.5547" style="stroke:#2683B9;stroke-width:1.0417;" width="10.4167" x="434.4269" y="486.4258"/></g><g><title>Lambda</title><rect fill="none" height="1119.8568" style="stroke:#2683B9;stroke-width:1.0417;" width="10.4167" x="662.5783" y="738.2161"/></g><g><title>S3</title><rect fill="none" height="39.5508" style="stroke:#2683B9;stroke-width:1.0417;" width="10.4167" x="926.299" y="1408.431"/></g><g><title>S3</title><rect fill="none" height="39.5508" style="stroke:#2683B9;stroke-width:1.0417;" width="10.4167" x="926.299" y="1566.6341"/></g><g><title>CloudWatch</title><rect fill="none" height="39.5508" style="stroke:#2683B9;stroke-width:1.0417;" width="10.4167" x="1363.1378" y="852.6693"/></g><g><title>CloudWatch</title><rect fill="none" height="39.5508" style="stroke:#2683B9;stroke-width:1.0417;" width="10.4167" x="1363.1378" y="1065.0065"/></g><g><title>CloudWatch</title><rect fill="none" height="39.5508" style="stroke:#2683B9;stroke-width:1.0417;" width="10.4167" x="1363.1378" y="1487.5326"/></g><g><title>CloudWatch</title><rect fill="none" height="39.5508" style="stroke:#2683B9;stroke-width:1.0417;" width="10.4167" x="1363.1378" y="1645.7357"/></g><g><title>CloudWatch</title><rect fill="none" height="39.5508" style="stroke:#2683B9;stroke-width:1.0417;" width="10.4167" x="1363.1378" y="1724.8372"/></g><rect fill="#F8F9FA" height="3.125" rx="4.1667" ry="4.1667" style="stroke:#F8F9FA;stroke-width:1.0417;" width="1455.0151" x="10.4167" y="204.4108"/><line style="stroke:#868E96;stroke-width:1.0417;" x1="10.4167" x2="1465.4317" y1="204.4108" y2="204.4108"/><line style="stroke:#868E96;stroke-width:1.0417;" x1="10.4167" x2="1465.4317" y1="207.5358" y2="207.5358"/><rect fill="#F8F9FA" height="33.3008" rx="4.1667" ry="4.1667" style="stroke:#868E96;stroke-width:2.0833;" width="144.3909" x="665.7288" y="188.8021"/><text fill="#343A40" font-family="'Verdana'" font-size="12.5" font-weight="bold" lengthAdjust="spacing" textLength="115.0391" x="677.1871" y="209.7799">1. Image Upload</text><g class="message" data-participant-1="User" data-participant-2="S3Input"><polygon fill="#2FA4E7" points="204.008,274.1211,214.4246,278.2878,204.008,282.4544,208.1746,278.2878" style="stroke:#2FA4E7;stroke-width:1.0417;"/><line style="stroke:#2FA4E7;stroke-width:3.125;" x1="69.4539" x2="210.258" y1="278.2878" y2="278.2878"/><text fill="#343A40" font-family="'Verdana'" font-size="12.5" lengthAdjust="spacing" textLength="86.7065" x="99.6277" y="253.4973">Upload image</text><text fill="#343A40" font-family="'Verdana'" font-size="12.5" lengthAdjust="spacing" textLength="69.1223" x="108.4198" y="268.0481">(photo.jpg)</text></g><path d="M231.25,295.9961 L231.25,336.6211 A4.1667,4.1667 0 0 0 235.4167,340.7878 L441.6667,340.7878 A4.1667,4.1667 0 0 0 445.8333,336.6211 L445.8333,302.2461 L435.4167,291.8294 L235.4167,291.8294 A4.1667,4.1667 0 0 0 231.25,295.9961" fill="none" style="stroke:#033C73;stroke-width:1.0417;"/><path d="M435.4167,291.8294 L435.4167,300.1628 A2.0833,2.0833 0 0 0 437.5,302.2461 L445.8333,302.2461 L435.4167,291.8294" fill="none" style="stroke:#033C73;stroke-width:1.0417;"/><text fill="#033C73" font-family="'Verdana'" font-size="12.5" lengthAdjust="spacing" textLength="171.8323" x="242.7083" y="313.8489">Bucket: image-processor-in</text><text fill="#033C73" font-family="'Verdana'" font-size="12.5" lengthAdjust="spacing" textLength="182.4158" x="242.7083" y="328.3997">Event Notification configured</text><g class="message" data-participant-1="S3Input" data-participant-2="User"><polygon fill="#2FA4E7" points="80.9123,374.0234,70.4956,378.1901,80.9123,382.3568,76.7456,378.1901" style="stroke:#2FA4E7;stroke-width:1.0417;"/><line style="stroke:#2FA4E7;stroke-width:3.125;stroke-dasharray:2.0833,2.0833;" x1="74.6623" x2="220.6746" y1="378.1901" y2="378.1901"/><text fill="#343A40" font-family="'Verdana'" font-size="12.5" lengthAdjust="spacing" textLength="45.8679" x="122.6512" y="367.9504">200 OK</text></g><rect fill="#F8F9FA" height="3.125" rx="4.1667" ry="4.1667" style="stroke:#F8F9FA;stroke-width:1.0417;" width="1455.0151" x="10.4167" y="412.5488"/><line style="stroke:#868E96;stroke-width:1.0417;" x1="10.4167" x2="1465.4317" y1="412.5488" y2="412.5488"/><line style="stroke:#868E96;stroke-width:1.0417;" x1="10.4167" x2="1465.4317" y1="415.6738" y2="415.6738"/><rect fill="#F8F9FA" height="33.3008" rx="4.1667" ry="4.1667" style="stroke:#868E96;stroke-width:2.0833;" width="174.1638" x="650.8423" y="396.9401"/><text fill="#343A40" font-family="'Verdana'" font-size="12.5" font-weight="bold" lengthAdjust="spacing" textLength="144.812" x="662.3006" y="417.9179">2. Event Notification</text><g class="message" data-participant-1="S3Input" data-participant-2="SQS"><polygon fill="#2FA4E7" points="421.9269,482.2591,432.3435,486.4258,421.9269,490.5924,426.0935,486.4258" style="stroke:#2FA4E7;stroke-width:1.0417;"/><line style="stroke:#2FA4E7;stroke-width:3.125;" x1="221.7163" x2="428.1769" y1="486.4258" y2="486.4258"/><text fill="#343A40" font-family="'Verdana'" font-size="12.5" lengthAdjust="spacing" textLength="90.918" x="282.6126" y="461.6353">Send S3 event</text><text fill="#343A40" font-family="'Verdana'" font-size="12.5" lengthAdjust="spacing" textLength="124.7803" x="265.6815" y="476.1861">(ObjectCreated:Put)</text></g><path d="M450,504.1341 L450,588.5091 A4.1667,4.1667 0 0 0 454.1667,592.6758 L658.3333,592.6758 A4.1667,4.1667 0 0 0 662.5,588.5091 L662.5,510.3841 L652.0833,499.9674 L454.1667,499.9674 A4.1667,4.1667 0 0 0 450,504.1341" fill="none" style="stroke:#033C73;stroke-width:1.0417;"/><path d="M652.0833,499.9674 L652.0833,508.3008 A2.0833,2.0833 0 0 0 654.1667,510.3841 L662.5,510.3841 L652.0833,499.9674" fill="none" style="stroke:#033C73;stroke-width:1.0417;"/><text fill="#033C73" font-family="'Verdana'" font-size="12.5" lengthAdjust="spacing" textLength="115.8813" x="461.4583" y="521.9869">Message contains:</text><text fill="#033C73" font-family="'Verdana'" font-size="12.5" lengthAdjust="spacing" textLength="180.3162" x="461.4583" y="536.5377">- Bucket: image-processor-in</text><text fill="#033C73" font-family="'Verdana'" font-size="12.5" lengthAdjust="spacing" textLength="99.3225" x="461.4583" y="551.0885">- Key: photo.jpg</text><text fill="#033C73" font-family="'Verdana'" font-size="12.5" lengthAdjust="spacing" textLength="69.6411" x="461.4583" y="565.6392">- Size: 2MB</text><text fill="#033C73" font-family="'Verdana'" font-size="12.5" lengthAdjust="spacing" textLength="78.6438" x="461.4583" y="580.19">- Timestamp</text><g class="message" data-participant-1="SQS" data-participant-2="S3Input"><polygon fill="#2FA4E7" points="233.1746,625.8138,222.758,629.9805,233.1746,634.1471,229.008,629.9805" style="stroke:#2FA4E7;stroke-width:1.0417;"/><line style="stroke:#2FA4E7;stroke-width:3.125;stroke-dasharray:2.0833,2.0833;" x1="226.9246" x2="438.5935" y1="629.9805" y2="629.9805"/><text fill="#343A40" font-family="'Verdana'" font-size="12.5" lengthAdjust="spacing" textLength="25.4761" x="317.9377" y="619.7408">ACK</text></g><rect fill="#F8F9FA" height="3.125" rx="4.1667" ry="4.1667" style="stroke:#F8F9FA;stroke-width:1.0417;" width="1455.0151" x="10.4167" y="664.3392"/><line style="stroke:#868E96;stroke-width:1.0417;" x1="10.4167" x2="1465.4317" y1="664.3392" y2="664.3392"/><line style="stroke:#868E96;stroke-width:1.0417;" x1="10.4167" x2="1465.4317" y1="667.4642" y2="667.4642"/><rect fill="#F8F9FA" height="33.3008" rx="4.1667" ry="4.1667" style="stroke:#868E96;stroke-width:2.0833;" width="158.7708" x="658.5388" y="648.7305"/><text fill="#343A40" font-family="'Verdana'" font-size="12.5" font-weight="bold" lengthAdjust="spacing" textLength="129.4189" x="669.9972" y="669.7083">3. Lambda Trigger</text><g class="message" data-participant-1="SQS" data-participant-2="Lambda"><polygon fill="#2FA4E7" points="650.0783,734.0495,660.495,738.2161,650.0783,742.3828,654.245,738.2161" style="stroke:#2FA4E7;stroke-width:1.0417;"/><line style="stroke:#2FA4E7;stroke-width:3.125;" x1="439.6352" x2="656.3283" y1="738.2161" y2="738.2161"/><text fill="#343A40" font-family="'Verdana'" font-size="12.5" lengthAdjust="spacing" textLength="88.7939" x="506.7098" y="713.4257">Poll messages</text><text fill="#343A40" font-family="'Verdana'" font-size="12.5" lengthAdjust="spacing" textLength="99.6216" x="501.296" y="727.9765">(batch_size: 10)</text></g><path d="M678.125,755.9245 L678.125,811.1328 A4.1667,4.1667 0 0 0 682.2917,815.2995 L855.2083,815.2995 A4.1667,4.1667 0 0 0 859.375,811.1328 L859.375,762.1745 L848.9583,751.7578 L682.2917,751.7578 A4.1667,4.1667 0 0 0 678.125,755.9245" fill="none" style="stroke:#033C73;stroke-width:1.0417;"/><path d="M848.9583,751.7578 L848.9583,760.0911 A2.0833,2.0833 0 0 0 851.0417,762.1745 L859.375,762.1745 L848.9583,751.7578" fill="none" style="stroke:#033C73;stroke-width:1.0417;"/><text fill="#033C73" font-family="'Verdana'" font-size="12.5" lengthAdjust="spacing" textLength="117.5659" x="689.5833" y="773.7773">Lambda is invoked</text><text fill="#033C73" font-family="'Verdana'" font-size="12.5" lengthAdjust="spacing" textLength="134.2041" x="689.5833" y="788.328">automatically by SQS</text><text fill="#033C73" font-family="'Verdana'" font-size="12.5" lengthAdjust="spacing" textLength="149.4141" x="689.5833" y="802.8788">with up to 10 messages</text><g class="message" data-participant-1="Lambda" data-participant-2="CW"><polygon fill="#2FA4E7" points="1350.6378,848.5026,1361.0545,852.6693,1350.6378,856.8359,1354.8045,852.6693" style="stroke:#2FA4E7;stroke-width:1.0417;"/><line style="stroke:#2FA4E7;stroke-width:3.125;" x1="672.995" x2="1356.8878" y1="852.6693" y2="852.6693"/><text fill="#343A40" font-family="'Verdana'" font-size="12.5" lengthAdjust="spacing" textLength="215.0757" x="910.5286" y="842.4296">log.Printf("Received N messages")</text></g><g class="message" data-participant-1="CW" data-participant-2="Lambda"><polygon fill="#2FA4E7" points="684.4533,888.0534,674.0367,892.2201,684.4533,896.3867,680.2867,892.2201" style="stroke:#2FA4E7;stroke-width:1.0417;"/><line style="stroke:#2FA4E7;stroke-width:3.125;stroke-dasharray:2.0833,2.0833;" x1="678.2033" x2="1367.3045" y1="892.2201" y2="892.2201"/><text fill="#343A40" font-family="'Verdana'" font-size="12.5" lengthAdjust="spacing" textLength="18.0359" x="1011.6526" y="881.9804">OK</text></g><rect fill="#F8F9FA" height="3.125" rx="4.1667" ry="4.1667" style="stroke:#F8F9FA;stroke-width:1.0417;" width="1455.0151" x="10.4167" y="926.5788"/><line style="stroke:#868E96;stroke-width:1.0417;" x1="10.4167" x2="1465.4317" y1="926.5788" y2="926.5788"/><line style="stroke:#868E96;stroke-width:1.0417;" x1="10.4167" x2="1465.4317" y1="929.7038" y2="929.7038"/><rect fill="#F8F9FA" height="33.3008" rx="4.1667" ry="4.1667" style="stroke:#868E96;stroke-width:2.0833;" width="123.9624" x="675.943" y="910.9701"/><text fill="#343A40" font-family="'Verdana'" font-size="12.5" font-weight="bold" lengthAdjust="spacing" textLength="94.6106" x="687.4013" y="931.9478">4. Processing</text><g class="message" data-participant-1="Lambda" data-participant-2="S3Input"><polygon fill="#2FA4E7" points="238.383,981.7383,227.9663,985.9049,238.383,990.0716,234.2163,985.9049" style="stroke:#2FA4E7;stroke-width:1.0417;"/><line style="stroke:#2FA4E7;stroke-width:3.125;" x1="232.133" x2="661.5367" y1="985.9049" y2="985.9049"/><text fill="#343A40" font-family="'Verdana'" font-size="12.5" lengthAdjust="spacing" textLength="132.1106" x="378.6962" y="975.6653">GetObject(photo.jpg)</text></g><g class="message" data-participant-1="S3Input" data-participant-2="Lambda"><polygon fill="#2FA4E7" points="650.0783,1021.2891,660.495,1025.4557,650.0783,1029.6224,654.245,1025.4557" style="stroke:#2FA4E7;stroke-width:1.0417;"/><line style="stroke:#2FA4E7;stroke-width:3.125;stroke-dasharray:2.0833,2.0833;" x1="221.7163" x2="656.3283" y1="1025.4557" y2="1025.4557"/><text fill="#343A40" font-family="'Verdana'" font-size="12.5" lengthAdjust="spacing" textLength="133.3313" x="375.4817" y="1015.2161">Return image (bytes)</text></g><g class="message" data-participant-1="Lambda" data-participant-2="CW"><polygon fill="#2FA4E7" points="1350.6378,1060.8398,1361.0545,1065.0065,1350.6378,1069.1732,1354.8045,1065.0065" style="stroke:#2FA4E7;stroke-width:1.0417;"/><line style="stroke:#2FA4E7;stroke-width:3.125;" x1="672.995" x2="1356.8878" y1="1065.0065" y2="1065.0065"/><text fill="#343A40" font-family="'Verdana'" font-size="12.5" lengthAdjust="spacing" textLength="213.9465" x="911.0931" y="1054.7668">log.Printf("Downloading image...")</text></g><g class="message" data-participant-1="CW" data-participant-2="Lambda"><polygon fill="#2FA4E7" points="684.4533,1100.3906,674.0367,1104.5573,684.4533,1108.724,680.2867,1104.5573" style="stroke:#2FA4E7;stroke-width:1.0417;"/><line style="stroke:#2FA4E7;stroke-width:3.125;stroke-dasharray:2.0833,2.0833;" x1="678.2033" x2="1367.3045" y1="1104.5573" y2="1104.5573"/><text fill="#343A40" font-family="'Verdana'" font-size="12.5" lengthAdjust="spacing" textLength="18.0359" x="1011.6526" y="1094.3176">OK</text></g><path d="M554.1667,1122.2656 L554.1667,1206.6406 A4.1667,4.1667 0 0 0 558.3333,1210.8073 L776.0417,1210.8073 A4.1667,4.1667 0 0 0 780.2083,1206.6406 L780.2083,1128.5156 L769.7917,1118.099 L558.3333,1118.099 A4.1667,4.1667 0 0 0 554.1667,1122.2656" fill="none" style="stroke:#033C73;stroke-width:1.0417;"/><path d="M769.7917,1118.099 L769.7917,1126.4323 A2.0833,2.0833 0 0 0 771.875,1128.5156 L780.2083,1128.5156 L769.7917,1118.099" fill="none" style="stroke:#033C73;stroke-width:1.0417;"/><text fill="#033C73" font-family="'Verdana'" font-size="12.5" font-weight="bold" lengthAdjust="spacing" textLength="141.9495" x="565.625" y="1140.1184">Internal Processing:</text><text fill="#033C73" font-family="'Verdana'" font-size="12.5" lengthAdjust="spacing" textLength="106.2683" x="565.625" y="1154.6692">1. Decode image</text><text fill="#033C73" font-family="'Verdana'" font-size="12.5" lengthAdjust="spacing" textLength="193.9087" x="565.625" y="1169.22">2. Create thumbnail (200x200)</text><text fill="#033C73" font-family="'Verdana'" font-size="12.5" lengthAdjust="spacing" textLength="181.897" x="565.625" y="1183.7708">3. Create medium (800x600)</text><text fill="#033C73" font-family="'Verdana'" font-size="12.5" lengthAdjust="spacing" textLength="187.3901" x="565.625" y="1198.3215">4. Compress JPEG (quality 85)</text><g class="message" data-participant-1="Lambda" data-participant-2="Lambda"><line style="stroke:#2FA4E7;stroke-width:3.125;" x1="672.995" x2="716.745" y1="1248.112" y2="1248.112"/><line style="stroke:#2FA4E7;stroke-width:3.125;" x1="716.745" x2="716.745" y1="1248.112" y2="1261.6536"/><line style="stroke:#2FA4E7;stroke-width:3.125;" x1="674.0367" x2="716.745" y1="1261.6536" y2="1261.6536"/><polygon fill="#2FA4E7" points="684.4533,1257.487,674.0367,1261.6536,684.4533,1265.8203,680.2867,1261.6536" style="stroke:#2FA4E7;stroke-width:1.0417;"/><text fill="#343A40" font-family="'Verdana'" font-size="12.5" lengthAdjust="spacing" textLength="172.0276" x="685.495" y="1237.8723">resize.Thumbnail(200x200)</text></g><g class="message" data-participant-1="Lambda" data-participant-2="Lambda"><line style="stroke:#2FA4E7;stroke-width:3.125;" x1="672.995" x2="716.745" y1="1301.2044" y2="1301.2044"/><line style="stroke:#2FA4E7;stroke-width:3.125;" x1="716.745" x2="716.745" y1="1301.2044" y2="1314.7461"/><line style="stroke:#2FA4E7;stroke-width:3.125;" x1="674.0367" x2="716.745" y1="1314.7461" y2="1314.7461"/><polygon fill="#2FA4E7" points="684.4533,1310.5794,674.0367,1314.7461,684.4533,1318.9128,680.2867,1314.7461" style="stroke:#2FA4E7;stroke-width:1.0417;"/><text fill="#343A40" font-family="'Verdana'" font-size="12.5" lengthAdjust="spacing" textLength="172.0276" x="685.495" y="1290.9648">resize.Thumbnail(800x600)</text></g><rect fill="#F8F9FA" height="3.125" rx="4.1667" ry="4.1667" style="stroke:#F8F9FA;stroke-width:1.0417;" width="1455.0151" x="10.4167" y="1349.1048"/><line style="stroke:#868E96;stroke-width:1.0417;" x1="10.4167" x2="1465.4317" y1="1349.1048" y2="1349.1048"/><line style="stroke:#868E96;stroke-width:1.0417;" x1="10.4167" x2="1465.4317" y1="1352.2298" y2="1352.2298"/><rect fill="#F8F9FA" height="33.3008" rx="4.1667" ry="4.1667" style="stroke:#868E96;stroke-width:2.0833;" width="228.2898" x="623.7793" y="1333.4961"/><text fill="#343A40" font-family="'Verdana'" font-size="12.5" font-weight="bold" lengthAdjust="spacing" textLength="198.938" x="635.2376" y="1354.4739">5. Upload Processed Images</text><g class="message" data-participant-1="Lambda" data-participant-2="S3Output"><polygon fill="#2FA4E7" points="913.799,1404.2643,924.2157,1408.431,913.799,1412.5977,917.9657,1408.431" style="stroke:#2FA4E7;stroke-width:1.0417;"/><line style="stroke:#2FA4E7;stroke-width:3.125;" x1="672.995" x2="920.049" y1="1408.431" y2="1408.431"/><text fill="#343A40" font-family="'Verdana'" font-size="12.5" lengthAdjust="spacing" textLength="204.303" x="697.4955" y="1398.1913">PutObject(thumbnails/photo.jpg)</text></g><g class="message" data-participant-1="S3Output" data-participant-2="Lambda"><polygon fill="#2FA4E7" points="684.4533,1443.8151,674.0367,1447.9818,684.4533,1452.1484,680.2867,1447.9818" style="stroke:#2FA4E7;stroke-width:1.0417;"/><line style="stroke:#2FA4E7;stroke-width:3.125;stroke-dasharray:2.0833,2.0833;" x1="678.2033" x2="930.4657" y1="1447.9818" y2="1447.9818"/><text fill="#343A40" font-family="'Verdana'" font-size="12.5" lengthAdjust="spacing" textLength="45.8679" x="779.3172" y="1437.7421">200 OK</text></g><g class="message" data-participant-1="Lambda" data-participant-2="CW"><polygon fill="#2FA4E7" points="1350.6378,1483.3659,1361.0545,1487.5326,1350.6378,1491.6992,1354.8045,1487.5326" style="stroke:#2FA4E7;stroke-width:1.0417;"/><line style="stroke:#2FA4E7;stroke-width:3.125;" x1="672.995" x2="1356.8878" y1="1487.5326" y2="1487.5326"/><text fill="#343A40" font-family="'Verdana'" font-size="12.5" lengthAdjust="spacing" textLength="195.636" x="920.2484" y="1477.2929">log.Printf("Thumbnail created")</text></g><g class="message" data-participant-1="CW" data-participant-2="Lambda"><polygon fill="#2FA4E7" points="684.4533,1522.9167,674.0367,1527.0833,684.4533,1531.25,680.2867,1527.0833" style="stroke:#2FA4E7;stroke-width:1.0417;"/><line style="stroke:#2FA4E7;stroke-width:3.125;stroke-dasharray:2.0833,2.0833;" x1="678.2033" x2="1367.3045" y1="1527.0833" y2="1527.0833"/><text fill="#343A40" font-family="'Verdana'" font-size="12.5" lengthAdjust="spacing" textLength="18.0359" x="1011.6526" y="1516.8437">OK</text></g><g class="message" data-participant-1="Lambda" data-participant-2="S3Output"><polygon fill="#2FA4E7" points="913.799,1562.4674,924.2157,1566.6341,913.799,1570.8008,917.9657,1566.6341" style="stroke:#2FA4E7;stroke-width:1.0417;"/><line style="stroke:#2FA4E7;stroke-width:3.125;" x1="672.995" x2="920.049" y1="1566.6341" y2="1566.6341"/><text fill="#343A40" font-family="'Verdana'" font-size="12.5" lengthAdjust="spacing" textLength="185.7788" x="706.7576" y="1556.3944">PutObject(medium/photo.jpg)</text></g><g class="message" data-participant-1="S3Output" data-participant-2="Lambda"><polygon fill="#2FA4E7" points="684.4533,1602.0182,674.0367,1606.1849,684.4533,1610.3516,680.2867,1606.1849" style="stroke:#2FA4E7;stroke-width:1.0417;"/><line style="stroke:#2FA4E7;stroke-width:3.125;stroke-dasharray:2.0833,2.0833;" x1="678.2033" x2="930.4657" y1="1606.1849" y2="1606.1849"/><text fill="#343A40" font-family="'Verdana'" font-size="12.5" lengthAdjust="spacing" textLength="45.8679" x="779.3172" y="1595.9452">200 OK</text></g><g class="message" data-participant-1="Lambda" data-participant-2="CW"><polygon fill="#2FA4E7" points="1350.6378,1641.569,1361.0545,1645.7357,1350.6378,1649.9023,1354.8045,1645.7357" style="stroke:#2FA4E7;stroke-width:1.0417;"/><line style="stroke:#2FA4E7;stroke-width:3.125;" x1="672.995" x2="1356.8878" y1="1645.7357" y2="1645.7357"/><text fill="#343A40" font-family="'Verdana'" font-size="12.5" lengthAdjust="spacing" textLength="179.4983" x="928.3173" y="1635.496">log.Printf("Medium created")</text></g><g class="message" data-participant-1="CW" data-participant-2="Lambda"><polygon fill="#2FA4E7" points="684.4533,1681.1198,674.0367,1685.2865,684.4533,1689.4531,680.2867,1685.2865" style="stroke:#2FA4E7;stroke-width:1.0417;"/><line style="stroke:#2FA4E7;stroke-width:3.125;stroke-dasharray:2.0833,2.0833;" x1="678.2033" x2="1367.3045" y1="1685.2865" y2="1685.2865"/><text fill="#343A40" font-family="'Verdana'" font-size="12.5" lengthAdjust="spacing" textLength="18.0359" x="1011.6526" y="1675.0468">OK</text></g><g class="message" data-participant-1="Lambda" data-participant-2="CW"><polygon fill="#2FA4E7" points="1350.6378,1720.6706,1361.0545,1724.8372,1350.6378,1729.0039,1354.8045,1724.8372" style="stroke:#2FA4E7;stroke-width:1.0417;"/><line style="stroke:#2FA4E7;stroke-width:3.125;" x1="672.995" x2="1356.8878" y1="1724.8372" y2="1724.8372"/><text fill="#343A40" font-family="'Verdana'" font-size="12.5" lengthAdjust="spacing" textLength="132.9834" x="951.5747" y="1714.5976">log.Printf("Success!")</text></g><g class="message" data-participant-1="CW" data-participant-2="Lambda"><polygon fill="#2FA4E7" points="684.4533,1760.2214,674.0367,1764.388,684.4533,1768.5547,680.2867,1764.388" style="stroke:#2FA4E7;stroke-width:1.0417;"/><line style="stroke:#2FA4E7;stroke-width:3.125;stroke-dasharray:2.0833,2.0833;" x1="678.2033" x2="1367.3045" y1="1764.388" y2="1764.388"/><text fill="#343A40" font-family="'Verdana'" font-size="12.5" lengthAdjust="spacing" textLength="18.0359" x="1011.6526" y="1754.1484">OK</text></g><rect fill="#F8F9FA" height="3.125" rx="4.1667" ry="4.1667" style="stroke:#F8F9FA;stroke-width:1.0417;" width="1455.0151" x="10.4167" y="1798.7467"/><line style="stroke:#868E96;stroke-width:1.0417;" x1="10.4167" x2="1465.4317" y1="1798.7467" y2="1798.7467"/><line style="stroke:#868E96;stroke-width:1.0417;" x1="10.4167" x2="1465.4317" y1="1801.8717" y2="1801.8717"/><rect fill="#F8F9FA" height="33.3008" rx="4.1667" ry="4.1667" style="stroke:#868E96;stroke-width:2.0833;" width="199.2493" x="638.2996" y="1783.138"/><text fill="#343A40" font-family="'Verdana'" font-size="12.5" font-weight="bold" lengthAdjust="spacing" textLength="169.8975" x="649.7579" y="1804.1158">6. Completion (Success)</text><g class="message" data-participant-1="Lambda" data-participant-2="SQS"><polygon fill="#2FA4E7" points="451.0935,1853.9063,440.6769,1858.0729,451.0935,1862.2396,446.9269,1858.0729" style="stroke:#2FA4E7;stroke-width:1.0417;"/><line style="stroke:#2FA4E7;stroke-width:3.125;stroke-dasharray:2.0833,2.0833;" x1="444.8435" x2="666.745" y1="1858.0729" y2="1858.0729"/><text fill="#343A40" font-family="'Verdana'" font-size="12.5" lengthAdjust="spacing" textLength="120.1782" x="493.6218" y="1847.8333">return nil (success)</text></g><path d="M444.7917,1875.7813 L444.7917,1930.9896 A4.1667,4.1667 0 0 0 448.9583,1935.1563 L642.7083,1935.1563 A4.1667,4.1667 0 0 0 646.875,1930.9896 L646.875,1882.0313 L636.4583,1871.6146 L448.9583,1871.6146 A4.1667,4.1667 0 0 0 444.7917,1875.7813" fill="none" style="stroke:#033C73;stroke-width:1.0417;"/><path d="M636.4583,1871.6146 L636.4583,1879.9479 A2.0833,2.0833 0 0 0 638.5417,1882.0313 L646.875,1882.0313 L636.4583,1871.6146" fill="none" style="stroke:#033C73;stroke-width:1.0417;"/><text fill="#033C73" font-family="'Verdana'" font-size="12.5" lengthAdjust="spacing" textLength="139.3982" x="456.25" y="1893.634">When Lambda returns</text><text fill="#033C73" font-family="'Verdana'" font-size="12.5" lengthAdjust="spacing" textLength="161.0107" x="456.25" y="1908.1848">success (nil), SQS deletes</text><text fill="#033C73" font-family="'Verdana'" font-size="12.5" lengthAdjust="spacing" textLength="169.8547" x="456.25" y="1922.7356">the message automatically</text><g class="message" data-participant-1="SQS" data-participant-2="SQS"><line style="stroke:#2FA4E7;stroke-width:3.125;" x1="439.6352" x2="483.3852" y1="1972.526" y2="1972.526"/><line style="stroke:#2FA4E7;stroke-width:3.125;" x1="483.3852" x2="483.3852" y1="1972.526" y2="1986.0677"/><line style="stroke:#2FA4E7;stroke-width:3.125;" x1="440.6769" x2="483.3852" y1="1986.0677" y2="1986.0677"/><polygon fill="#2FA4E7" points="451.0935,1981.901,440.6769,1986.0677,451.0935,1990.2344,446.9269,1986.0677" style="stroke:#2FA4E7;stroke-width:1.0417;"/><text fill="#343A40" font-family="'Verdana'" font-size="12.5" lengthAdjust="spacing" textLength="105.6091" x="452.1352" y="1962.2864">DeleteMessage()</text></g><path d="M15.625,2003.776 L15.625,2073.5677 A4.1667,4.1667 0 0 0 19.7917,2077.7344 L1418.75,2077.7344 A4.1667,4.1667 0 0 0 1422.9167,2073.5677 L1422.9167,2010.026 L1412.5,1999.6094 L19.7917,1999.6094 A4.1667,4.1667 0 0 0 15.625,2003.776" fill="#90EE90" style="stroke:#033C73;stroke-width:1.0417;"/><path d="M1412.5,1999.6094 L1412.5,2007.9427 A2.0833,2.0833 0 0 0 1414.5833,2010.026 L1422.9167,2010.026 L1412.5,1999.6094" fill="#90EE90" style="stroke:#033C73;stroke-width:1.0417;"/><text fill="#033C73" font-family="'Verdana'" font-size="12.5" font-weight="bold" lengthAdjust="spacing" textLength="242.6819" x="563.6098" y="2021.6288">FLOW COMPLETED SUCCESSFULLY</text><text fill="#033C73" font-family="'Verdana'" font-size="12.5" lengthAdjust="spacing" textLength="43.396" x="563.6098" y="2036.1796">Result:</text><text fill="#033C73" font-family="'Verdana'" font-size="12.5" lengthAdjust="spacing" textLength="302.7954" x="563.6098" y="2050.7304">- s3://image-processor-out/thumbnails/photo.jpg</text><text fill="#033C73" font-family="'Verdana'" font-size="12.5" lengthAdjust="spacing" textLength="284.2712" x="563.6098" y="2065.2812">- s3://image-processor-out/medium/photo.jpg</text><!--SRC=[lLPjJzj84FxkNp4DNnAkDhIvLfKbaC10nJKq0OEYaogTDlRWRB5tmxx0SQVxxpVhjOq3ATVUIVSXKR8xByypp-pilZ9Bh10oLBP49a9fJSa51lg6YnLJh0ADjnP5XcUeDIlmeEI587jXKFMi5EgL5BgrEiHItXye9U_1ADiFjs3PJQ6a5NaYIwbWlkIclyyoGwj_1W0dKXXlSrYIK_1Npug-3S_uYWdpZxO4t-8th0B3JOcGo6fLea4u8TWnd5P40MPAPiI6YmA6wHX-WlGyfUy9gnOv6mM1HpguqgW6m3Iu7q4Vs20TVn53xeA5AnzCgf2BKMsUZa_5oXhOcl1YQGvBgf97Eg0yv4SUkSrCwFthhSQHO6nD5HC5hgVpoCYrGLxJEB4YCrmsIRq9R7rKYE8xm58xj6Ydrco6UpGvtmmtpCjRxqqci7M1-Nh6f9GsdpEJBR-8YInqRPhCOMjc5SaH17jxy2PgrBXQbPBbiBSN1AxG4Ewt5OpRlJgrWxAKHaPVLyN8QSJl60dRs0P2qX_bA82yxbO13crsWnJgkLgqUNn7xGwVfU7NF6Ekcf19SSqBguWJYXnSs21e9Gq9d0CPmzlTNPX-2d9y1iIHUnjj2kqeTf7sdTmnf2u9DI4wSw8uNNp5p2GAAMGUpqYb7jNpz2bDMW5eZgQ3RXWNEgQry6NY8Np2XnYwWjPBAVy3YTdPOVtlabUe3QjM_JfGXuPzWGwIzHeG7iT_7BKDUKbO2rArvkwyzvkT66QoBA7os3LHNxY6-KtN8DxizdXxXoVKcqLe4t4DNDp96z8DW5aZAofwniho0HOFJQ7kkLc2NO6HbA1BtUFNn2AGoJo6KXRHJ75XheU32yoGts4Edpk_GGzYCW-elyCUk_Nce7rNbv-Z_l1nDNdCsDNq8nhV1I_sUxybsvmNQAmINd4OBXuCwj765lqspoDvBzoPS_ZgE54K_IZHMYXvHwft8crldxfxHR2oLu1uUvksQ10SOIPpzFbeXKwFFm1WbhPQ2CPB6DA1-vq-8zeVT_iLvjnMCFn0c-_z9fNO3NswjZJyCZl-2CDRoqfk7k33kz56gLiYv4Az5rssEHzJVeTjXy39_2vg9rT3blgc7dRwcUP- -D9XiAte7MUzirb_xn9qWxilngQnrDY_87f70p8_U7vKyPSPUPN-DpPdlYd-CvMdSLEREIrV_Ojp_pvgNoBk7XWsaKPhtT3U2CeVOk6QNZU6_P3DcTfu4yoNADg1wEDeMcsYm91YZbxNpumStQl8RT8piPrewsFpwTXlu1tLdisLCnprJxkx6L_NztpzbF1F4NVsJoRJEIJJizda-FBu2DAh93bEqvEhoUJNUWHSeBQbyTUM7iSxEnjUApkRpiNB7a_xxf7Htm00]--></g></svg>