<svg xmlns="http://www.w3.org/2000/svg" xmlns:xlink="http://www.w3.org/1999/xlink" contentStyleType="text/css" data-diagram-type="SEQUENCE" height="2508.3333px" preserveAspectRatio="none" style="width:1529px;height:2508px;background:#FFFFFF;" version="1.1" viewBox="0 0 1529 2508" width="1529.1667px" zoomAndPan="magnify"><title>Error Flow: Retry and Dead Letter Queue</title><defs/><g><rect fill="none" height="47.168" rx="4.1667" ry="4.1667" style="stroke:#BABDBF;stroke-width:1.0417;" width="504.6061" x="511.1196" y="20.8333"/><text fill="#2FA4E7" font-family="'Verdana'" font-size="20.8333" font-weight="bold" lengthAdjust="spacing" textLength="481.6895" x="522.5779" y="51.6296">Error Flow: Retry and Dead Letter Queue</text><g><title>S3</title><rect fill="none" height="39.5508" style="stroke:#2683B9;stroke-width:1.0417;" width="10.4167" x="216.508" y="303.2878"/></g><g><title>S3</title><rect fill="none" height="39.5508" style="stroke:#2683B9;stroke-width:1.0417;" width="10.4167" x="216.508" y="911.0677"/></g><g><title>S3</title><rect fill="none" height="39.5508" style="stroke:#2683B9;stroke-width:1.0417;" width="10.4167" x="216.508" y="1400.293"/></g><g><title>Lambda</title><rect fill="none" height="311.1979" style="stroke:#2683B9;stroke-width:1.0417;" width="10.4167" x="662.5783" y="263.737"/></g><g><title>Lambda</title><rect fill="none" height="296.6471" style="stroke:#2683B9;stroke-width:1.0417;" width="10.4167" x="662.5783" y="871.5169"/></g><g><title>Lambda</title><rect fill="none" height="296.6471" style="stroke:#2683B9;stroke-width:1.0417;" width="10.4167" x="662.5783" y="1360.7422"/></g><g><title>DLQ</title><rect fill="none" height="178.9063" style="stroke:#2683B9;stroke-width:1.0417;" width="10.4167" x="1160.6822" y="1864.5182"/></g><g><title>CloudWatch</title><rect fill="none" height="39.5508" style="stroke:#2683B9;stroke-width:1.0417;" width="10.4167" x="1397.344" y="495.8333"/></g><g><title>CloudWatch</title><rect fill="none" height="39.5508" style="stroke:#2683B9;stroke-width:1.0417;" width="10.4167" x="1397.344" y="1089.0625"/></g><g><title>CloudWatch</title><rect fill="none" height="39.5508" style="stroke:#2683B9;stroke-width:1.0417;" width="10.4167" x="1397.344" y="1578.2878"/></g><g><title>CloudWatch</title><rect fill="none" height="114.4531" style="stroke:#2683B9;stroke-width:1.0417;" width="10.4167" x="1397.344" y="2144.401"/></g><g><title>User</title><rect fill="#000000" fill-opacity="0.00000" height="2242.7409" width="8.3333" x="65.2873" y="167.9688"/><line style="stroke:#BABDBF;stroke-width:1.0417;stroke-dasharray:5.2083,5.2083;" x1="68.75" x2="68.75" y1="167.9688" y2="2410.7096"/></g><g><title>S3</title><rect fill="#000000" fill-opacity="0.00000" height="2242.7409" width="8.3333" x="217.5496" y="167.9688"/><line style="stroke:#BABDBF;stroke-width:1.0417;stroke-dasharray:5.2083,5.2083;" x1="221.1995" x2="221.1995" y1="167.9688" y2="2410.7096"/></g><g><title>SQS</title><rect fill="#000000" fill-opacity="0.00000" height="2242.7409" width="8.3333" x="435.4685" y="167.9688"/><line style="stroke:#BABDBF;stroke-width:1.0417;stroke-dasharray:5.2083,5.2083;" x1="438.8997" x2="438.8997" y1="167.9688" y2="2410.7096"/></g><g><title>Lambda</title><rect fill="#000000" fill-opacity="0.00000" height="2242.7409" width="8.3333" x="663.62" y="167.9688"/><line style="stroke:#BABDBF;stroke-width:1.0417;stroke-dasharray:5.2083,5.2083;" x1="667.454" x2="667.454" y1="167.9688" y2="2410.7096"/></g><g><title>S3</title><rect fill="#000000" fill-opacity="0.00000" height="2242.7409" width="8.3333" x="927.3407" y="167.9688"/><line style="stroke:#BABDBF;stroke-width:1.0417;stroke-dasharray:5.2083,5.2083;" x1="930.6193" x2="930.6193" y1="167.9688" y2="2410.7096"/></g><g><title>DLQ</title><rect fill="#000000" fill-opacity="0.00000" height="2242.7409" width="8.3333" x="1161.7238" y="167.9688"/><line style="stroke:#BABDBF;stroke-width:1.0417;stroke-dasharray:5.2083,5.2083;" x1="1165.7288" x2="1165.7288" y1="167.9688" y2="2410.7096"/></g><g><title>CloudWatch</title><rect fill="#000000" fill-opacity="0.00000" height="2242.7409" width="8.3333" x="1398.3856" y="167.9688"/><line style="stroke:#BABDBF;stroke-width:1.0417;stroke-dasharray:5.2083,5.2083;" x1="1402.3417" x2="1402.3417" y1="167.9688" y2="2410.7096"/></g><g class="participant participant-head" data-participant="User"><text fill="#000000" font-family="'Verdana'" font-size="12.5" lengthAdjust="spacing" textLength="28.4912" x="52.0833" y="159.8124">User</text><ellipse cx="69.4539" cy="88.8346" fill="none" rx="8.3333" ry="8.3333" style="stroke:#2FA4E7;stroke-width:1.0417;"/><path d="M69.4539,97.168 L69.4539,125.293 M55.9123,105.5013 L82.9956,105.5013 M69.4539,125.293 L55.9123,140.918 M69.4539,125.293 L82.9956,140.918" fill="none" style="stroke:#2FA4E7;stroke-width:1.0417;"/></g><g class="participant participant-tail" data-participant="User"><text fill="#000000" font-family="'Verdana'" font-size="12.5" lengthAdjust="spacing" textLength="28.4912" x="52.0833" y="2426.4791">User</text><ellipse cx="69.4539" cy="2444.0104" fill="none" rx="8.3333" ry="8.3333" style="stroke:#2FA4E7;stroke-width:1.0417;"/><path d="M69.4539,2452.3438 L69.4539,2480.4688 M55.9123,2460.6771 L82.9956,2460.6771 M69.4539,2480.4688 L55.9123,2496.0938 M69.4539,2480.4688 L82.9956,2496.0938" fill="none" style="stroke:#2FA4E7;stroke-width:1.0417;"/></g><g class="participant participant-head" data-participant="S3Input"><rect fill="#ADD8E6" height="54.1016" rx="4.1667" ry="4.1667" style="stroke:#2FA4E7;stroke-width:1.0417;" width="155.2002" x="144.1162" y="112.8255"/><text fill="#000000" font-family="'Verdana'" font-size="12.5" lengthAdjust="spacing" textLength="15.8875" x="213.7726" y="136.9283">S3</text><text fill="#000000" font-family="'Verdana'" font-size="12.5" lengthAdjust="spacing" textLength="130.2002" x="156.6162" y="151.4791">(image-processor-in)</text></g><g class="participant participant-tail" data-participant="S3Input"><rect fill="#ADD8E6" height="54.1016" rx="4.1667" ry="4.1667" style="stroke:#2FA4E7;stroke-width:1.0417;" width="155.2002" x="144.1162" y="2409.668"/><text fill="#000000" font-family="'Verdana'" font-size="12.5" lengthAdjust="spacing" textLength="15.8875" x="213.7726" y="2433.7708">S3</text><text fill="#000000" font-family="'Verdana'" font-size="12.5" lengthAdjust="spacing" textLength="130.2002" x="156.6162" y="2448.3215">(image-processor-in)</text></g><g class="participant participant-head" data-participant="SQS"><path d="M356.6081,118.0339 L522.6624,118.0339 C527.8707,118.0339 527.8707,143.0013 527.8707,143.0013 C527.8707,143.0013 527.8707,167.9688 522.6624,167.9688 L356.6081,167.9688 C351.3997,167.9688 351.3997,143.0013 351.3997,143.0013 C351.3997,143.0013 351.3997,118.0339 356.6081,118.0339" fill="#FFA500" style="stroke:#2FA4E7;stroke-width:1.0417;"/><path d="M522.6624,118.0339 C517.454,118.0339 517.454,143.0013 517.454,143.0013 C517.454,167.9688 522.6624,167.9688 522.6624,167.9688" fill="none" style="stroke:#2FA4E7;stroke-width:1.0417;"/><text fill="#000000" font-family="'Verdana'" font-size="12.5" lengthAdjust="spacing" textLength="25.708" x="421.5729" y="140.0533">SQS</text><text fill="#000000" font-family="'Verdana'" font-size="12.5" lengthAdjust="spacing" textLength="145.2209" x="361.8164" y="154.6041">(product-image-queue)</text></g><g class="participant participant-tail" data-participant="SQS"><path d="M356.6081,2409.668 L522.6624,2409.668 C527.8707,2409.668 527.8707,2434.6354 527.8707,2434.6354 C527.8707,2434.6354 527.8707,2459.6029 522.6624,2459.6029 L356.6081,2459.6029 C351.3997,2459.6029 351.3997,2434.6354 351.3997,2434.6354 C351.3997,2434.6354 351.3997,2409.668 356.6081,2409.668" fill="#FFA500" style="stroke:#2FA4E7;stroke-width:1.0417;"/><path d="M522.6624,2409.668 C517.454,2409.668 517.454,2434.6354 517.454,2434.6354 C517.454,2459.6029 522.6624,2459.6029 522.6624,2459.6029" fill="none" style="stroke:#2FA4E7;stroke-width:1.0417;"/><text fill="#000000" font-family="'Verdana'" font-size="12.5" lengthAdjust="spacing" textLength="25.708" x="421.5729" y="2431.6874">SQS</text><text fill="#000000" font-family="'Verdana'" font-size="12.5" lengthAdjust="spacing" textLength="145.2209" x="361.8164" y="2446.2382">(product-image-queue)</text></g><g class="participant participant-head" data-participant="Lambda"><rect fill="#008000" height="54.1016" rx="4.1667" ry="4.1667" style="stroke:#2FA4E7;stroke-width:1.0417;" width="175.6653" x="579.954" y="112.8255"/><text fill="#000000" font-family="'Verdana'" font-size="12.5" lengthAdjust="spacing" textLength="50.3296" x="642.6219" y="136.9283">Lambda</text><text fill="#000000" font-family="'Verdana'" font-size="12.5" lengthAdjust="spacing" textLength="150.6653" x="592.454" y="151.4791">(ProcessImageFunction)</text></g><g class="participant participant-tail" data-participant="Lambda"><rect fill="#008000" height="54.1016" rx="4.1667" ry="4.1667" style="stroke:#2FA4E7;stroke-width:1.0417;" width="175.6653" x="579.954" y="2409.668"/><text fill="#000000" font-family="'Verdana'" font-size="12.5" lengthAdjust="spacing" textLength="50.3296" x="642.6219" y="2433.7708">Lambda</text><text fill="#000000" font-family="'Verdana'" font-size="12.5" lengthAdjust="spacing" textLength="150.6653" x="592.454" y="2448.3215">(ProcessImageFunction)</text></g><g class="participant participant-head" data-participant="S3Output"><rect fill="#ADD8E6" height="54.1016" rx="4.1667" ry="4.1667" style="stroke:#2FA4E7;stroke-width:1.0417;" width="164.2761" x="849.3693" y="112.8255"/><text fill="#000000" font-family="'Verdana'" font-size="12.5" lengthAdjust="spacing" textLength="15.8875" x="923.5636" y="136.9283">S3</text><text fill="#000000" font-family="'Verdana'" font-size="12.5" lengthAdjust="spacing" textLength="139.2761" x="861.8693" y="151.4791">(image-processor-out)</text></g><g class="participant participant-tail" data-participant="S3Output"><rect fill="#ADD8E6" height="54.1016" rx="4.1667" ry="4.1667" style="stroke:#2FA4E7;stroke-width:1.0417;" width="164.2761" x="849.3693" y="2409.668"/><text fill="#000000" font-family="'Verdana'" font-size="12.5" lengthAdjust="spacing" textLength="15.8875" x="923.5636" y="2433.7708">S3</text><text fill="#000000" font-family="'Verdana'" font-size="12.5" lengthAdjust="spacing" textLength="139.2761" x="861.8693" y="2448.3215">(image-processor-out)</text></g><g class="participant participant-head" data-participant="DLQ"><path d="M1070.9371,118.0339 L1260.8439,118.0339 C1266.0522,118.0339 1266.0522,143.0013 1266.0522,143.0013 C1266.0522,143.0013 1266.0522,167.9688 1260.8439,167.9688 L1070.9371,167.9688 C1065.7288,167.9688 1065.7288,143.0013 1065.7288,143.0013 C1065.7288,143.0013 1065.7288,118.0339 1070.9371,118.0339" fill="#FF0000" style="stroke:#2FA4E7;stroke-width:1.0417;"/><path d="M1260.8439,118.0339 C1255.6356,118.0339 1255.6356,143.0013 1255.6356,143.0013 C1255.6356,167.9688 1260.8439,167.9688 1260.8439,167.9688" fill="none" style="stroke:#2FA4E7;stroke-width:1.0417;"/><text fill="#000000" font-family="'Verdana'" font-size="12.5" lengthAdjust="spacing" textLength="26.4282" x="1147.4681" y="140.0533">DLQ</text><text fill="#000000" font-family="'Verdana'" font-size="12.5" lengthAdjust="spacing" textLength="169.0735" x="1076.1454" y="154.6041">(product-image-queue-dlq)</text></g><g class="participant participant-tail" data-participant="DLQ"><path d="M1070.9371,2409.668 L1260.8439,2409.668 C1266.0522,2409.668 1266.0522,2434.6354 1266.0522,2434.6354 C1266.0522,2434.6354 1266.0522,2459.6029 1260.8439,2459.6029 L1070.9371,2459.6029 C1065.7288,2459.6029 1065.7288,2434.6354 1065.7288,2434.6354 C1065.7288,2434.6354 1065.7288,2409.668 1070.9371,2409.668" fill="#FF0000" style="stroke:#2FA4E7;stroke-width:1.0417;"/><path d="M1260.8439,2409.668 C1255.6356,2409.668 1255.6356,2434.6354 1255.6356,2434.6354 C1255.6356,2459.6029 1260.8439,2459.6029 1260.8439,2459.6029" fill="none" style="stroke:#2FA4E7;stroke-width:1.0417;"/><text fill="#000000" font-family="'Verdana'" font-size="12.5" lengthAdjust="spacing" textLength="26.4282" x="1147.4681" y="2431.6874">DLQ</text><text fill="#000000" font-family="'Verdana'" font-size="12.5" lengthAdjust="spacing" textLength="169.0735" x="1076.1454" y="2446.2382">(product-image-queue-dlq)</text></g><g class="participant participant-head" data-participant="CW"><rect fill="#800080" height="54.1016" rx="4.1667" ry="4.1667" style="stroke:#2FA4E7;stroke-width:1.0417;" width="100.4211" x="1352.3417" y="112.8255"/><text fill="#000000" font-family="'Verdana'" font-size="12.5" lengthAdjust="spacing" textLength="75.4211" x="1364.8417" y="136.9283">CloudWatch</text><text fill="#000000" font-family="'Verdana'" font-size="12.5" lengthAdjust="spacing" textLength="29.0588" x="1388.0229" y="151.4791">Logs</text></g><g class="participant participant-tail" data-participant="CW"><rect fill="#800080" height="54.1016" rx="4.1667" ry="4.1667" style="stroke:#2FA4E7;stroke-width:1.0417;" width="100.4211" x="1352.3417" y="2409.668"/><text fill="#000000" font-family="'Verdana'" font-size="12.5" lengthAdjust="spacing" textLength="75.4211" x="1364.8417" y="2433.7708">CloudWatch</text><text fill="#000000" font-family="'Verdana'" font-size="12.5" lengthAdjust="spacing" textLength="29.0588" x="1388.0229" y="2448.3215">Logs</text></g><g><title>S3</title><rect fill="none" height="39.5508" style="stroke:#2683B9;stroke-width:1.0417;" width="10.4167" x="216.508" y="303.2878"/></g><g><title>S3</title><rect fill="none" height="39.5508" style="stroke:#2683B9;stroke-width:1.0417;" width="10.4167" x="216.508" y="911.0677"/></g><g><title>S3</title><rect fill="none" height="39.5508" style="stroke:#2683B9;stroke-width:1.0417;" width="10.4167" x="216.508" y="1400.293"/></g><g><title>Lambda</title><rect fill="none" height="311.1979" style="stroke:#2683B9;stroke-width:1.0417;" width="10.4167" x="662.5783" y="263.737"/></g><g><title>Lambda</title><rect fill="none" height="296.6471" style="stroke:#2683B9;stroke-width:1.0417;" width="10.4167" x="662.5783" y="871.5169"/></g><g><title>Lambda</title><rect fill="none" height="296.6471" style="stroke:#2683B9;stroke-width:1.0417;" width="10.4167" x="662.5783" y="1360.7422"/></g><g><title>DLQ</title><rect fill="none" height="178.9063" style="stroke:#2683B9;stroke-width:1.0417;" width="10.4167" x="1160.6822" y="1864.5182"/></g><g><title>CloudWatch</title><rect fill="none" height="39.5508" style="stroke:#2683B9;stroke-width:1.0417;" width="10.4167" x="1397.344" y="495.8333"/></g><g><title>CloudWatch</title><rect fill="none" height="39.5508" style="stroke:#2683B9;stroke-width:1.0417;" width="10.4167" x="1397.344" y="1089.0625"/></g><g><title>CloudWatch</title><rect fill="none" height="39.5508" style="stroke:#2683B9;stroke-width:1.0417;" width="10.4167" x="1397.344" y="1578.2878"/></g><g><title>CloudWatch</title><rect fill="none" height="114.4531" style="stroke:#2683B9;stroke-width:1.0417;" width="10.4167" x="1397.344" y="2144.401"/></g><rect fill="#F8F9FA" height="3.125" rx="4.1667" ry="4.1667" style="stroke:#F8F9FA;stroke-width:1.0417;" width="1507.0536" x="10.4167" y="204.4108"/><line style="stroke:#868E96;stroke-width:1.0417;" x1="10.4167" x2="1517.4703" y1="204.4108" y2="204.4108"/><line style="stroke:#868E96;stroke-width:1.0417;" x1="10.4167" x2="1517.4703" y1="207.5358" y2="207.5358"/><rect fill="#F8F9FA" height="33.3008" rx="4.1667" ry="4.1667" style="stroke:#868E96;stroke-width:2.0833;" width="206.8176" x="660.5347" y="188.8021"/><text fill="#343A40" font-family="'Verdana'" font-size="12.5" font-weight="bold" lengthAdjust="spacing" textLength="177.4658" x="671.993" y="209.7799">1. First Attempt (Failure)</text><g class="message" data-participant-1="SQS" data-participant-2="Lambda"><polygon fill="#2FA4E7" points="650.0783,259.5703,660.495,263.737,650.0783,267.9036,654.245,263.737" style="stroke:#2FA4E7;stroke-width:1.0417;"/><line style="stroke:#2FA4E7;stroke-width:3.125;" x1="439.6352" x2="656.3283" y1="263.737" y2="263.737"/><text fill="#343A40" font-family="'Verdana'" font-size="12.5" lengthAdjust="spacing" textLength="170.2637" x="465.9749" y="253.4973">Poll message (attempt 1/3)</text></g><g class="message" data-participant-1="Lambda" data-participant-2="S3Input"><polygon fill="#2FA4E7" points="238.383,299.1211,227.9663,303.2878,238.383,307.4544,234.2163,303.2878" style="stroke:#2FA4E7;stroke-width:1.0417;"/><line style="stroke:#2FA4E7;stroke-width:3.125;" x1="232.133" x2="661.5367" y1="303.2878" y2="303.2878"/><text fill="#343A40" font-family="'Verdana'" font-size="12.5" lengthAdjust="spacing" textLength="197.8027" x="345.8501" y="293.0481">GetObject(corrupted-photo.jpg)</text></g><g class="message" data-participant-1="S3Input" data-participant-2="Lambda"><polygon fill="#2FA4E7" points="650.0783,338.6719,660.495,342.8385,650.0783,347.0052,654.245,342.8385" style="stroke:#2FA4E7;stroke-width:1.0417;"/><line style="stroke:#2FA4E7;stroke-width:3.125;stroke-dasharray:2.0833,2.0833;" x1="221.7163" x2="656.3283" y1="342.8385" y2="342.8385"/><text fill="#343A40" font-family="'Verdana'" font-size="12.5" lengthAdjust="spacing" textLength="85.1685" x="399.5631" y="332.5989">Return image</text></g><g class="message" data-participant-1="Lambda" data-participant-2="Lambda"><line style="stroke:#2FA4E7;stroke-width:3.125;" x1="672.995" x2="716.745" y1="382.3893" y2="382.3893"/><line style="stroke:#2FA4E7;stroke-width:3.125;" x1="716.745" x2="716.745" y1="382.3893" y2="395.931"/><line style="stroke:#2FA4E7;stroke-width:3.125;" x1="674.0367" x2="716.745" y1="395.931" y2="395.931"/><polygon fill="#2FA4E7" points="684.4533,391.7643,674.0367,395.931,684.4533,400.0977,680.2867,395.931" style="stroke:#2FA4E7;stroke-width:1.0417;"/><text fill="#343A40" font-family="'Verdana'" font-size="12.5" lengthAdjust="spacing" textLength="129.3457" x="685.495" y="372.1497">Try to decode image</text></g><path d="M678.125,413.6393 L678.125,454.2643 A4.1667,4.1667 0 0 0 682.2917,458.431 L848.9583,458.431 A4.1667,4.1667 0 0 0 853.125,454.2643 L853.125,419.8893 L842.7083,409.4727 L682.2917,409.4727 A4.1667,4.1667 0 0 0 678.125,413.6393" fill="#FFC0CB" style="stroke:#033C73;stroke-width:1.0417;"/><path d="M842.7083,409.4727 L842.7083,417.806 A2.0833,2.0833 0 0 0 844.7917,419.8893 L853.125,419.8893 L842.7083,409.4727" fill="#FFC0CB" style="stroke:#033C73;stroke-width:1.0417;"/><text fill="#033C73" font-family="'Verdana'" font-size="12.5" lengthAdjust="spacing" textLength="143.2373" x="689.5833" y="431.4921">Error: corrupted image</text><text fill="#033C73" font-family="'Verdana'" font-size="12.5" lengthAdjust="spacing" textLength="129.6143" x="689.5833" y="446.0429">image.Decode() fails</text><g class="message" data-participant-1="Lambda" data-participant-2="CW"><polygon fill="#2FA4E7" points="1384.844,491.6667,1395.2606,495.8333,1384.844,500,1389.0106,495.8333" style="stroke:#2FA4E7;stroke-width:1.0417;"/><line style="stroke:#2FA4E7;stroke-width:3.125;" x1="672.995" x2="1391.094" y1="495.8333" y2="495.8333"/><text fill="#343A40" font-family="'Verdana'" font-size="12.5" lengthAdjust="spacing" textLength="170.0012" x="950.1689" y="485.5937">log.Printf("Error decoding")</text></g><g class="message" data-participant-1="CW" data-participant-2="Lambda"><polygon fill="#2FA4E7" points="684.4533,531.2174,674.0367,535.3841,684.4533,539.5508,680.2867,535.3841" style="stroke:#2FA4E7;stroke-width:1.0417;"/><line style="stroke:#2FA4E7;stroke-width:3.125;stroke-dasharray:2.0833,2.0833;" x1="678.2033" x2="1401.5106" y1="535.3841" y2="535.3841"/><text fill="#343A40" font-family="'Verdana'" font-size="12.5" lengthAdjust="spacing" textLength="18.0359" x="1028.7557" y="525.1444">OK</text></g><g class="message" data-participant-1="Lambda" data-participant-2="SQS"><polygon fill="#2FA4E7" points="451.0935,570.7682,440.6769,574.9349,451.0935,579.1016,446.9269,574.9349" style="stroke:#2FA4E7;stroke-width:1.0417;"/><line style="stroke:#2FA4E7;stroke-width:3.125;stroke-dasharray:2.0833,2.0833;" x1="444.8435" x2="666.745" y1="574.9349" y2="574.9349"/><text fill="#343A40" font-family="'Verdana'" font-size="12.5" lengthAdjust="spacing" textLength="73.4436" x="516.9891" y="564.6952">return error</text></g><path d="M444.7917,592.6432 L444.7917,662.4349 A4.1667,4.1667 0 0 0 448.9583,666.6016 L715.625,666.6016 A4.1667,4.1667 0 0 0 719.7917,662.4349 L719.7917,598.8932 L709.375,588.4766 L448.9583,588.4766 A4.1667,4.1667 0 0 0 444.7917,592.6432" fill="none" style="stroke:#033C73;stroke-width:1.0417;"/><path d="M709.375,588.4766 L709.375,596.8099 A2.0833,2.0833 0 0 0 711.4583,598.8932 L719.7917,598.8932 L709.375,588.4766" fill="none" style="stroke:#033C73;stroke-width:1.0417;"/><text fill="#033C73" font-family="'Verdana'" font-size="12.5" lengthAdjust="spacing" textLength="148.5779" x="456.25" y="610.496">SQS receives error and:</text><text fill="#033C73" font-family="'Verdana'" font-size="12.5" lengthAdjust="spacing" textLength="181.6772" x="456.25" y="625.0468">1. Does NOT delete message</text><text fill="#033C73" font-family="'Verdana'" font-size="12.5" lengthAdjust="spacing" textLength="243.1641" x="456.25" y="639.5976">2. Message becomes invisible for 5min</text><text fill="#033C73" font-family="'Verdana'" font-size="12.5" lengthAdjust="spacing" textLength="175.5798" x="456.25" y="654.1484">3. Increments receive count</text><g class="message" data-participant-1="SQS" data-participant-2="SQS"><line style="stroke:#2FA4E7;stroke-width:3.125;" x1="439.6352" x2="483.3852" y1="703.9388" y2="703.9388"/><line style="stroke:#2FA4E7;stroke-width:3.125;" x1="483.3852" x2="483.3852" y1="703.9388" y2="717.4805"/><line style="stroke:#2FA4E7;stroke-width:3.125;" x1="440.6769" x2="483.3852" y1="717.4805" y2="717.4805"/><polygon fill="#2FA4E7" points="451.0935,713.3138,440.6769,717.4805,451.0935,721.6471,446.9269,717.4805" style="stroke:#2FA4E7;stroke-width:1.0417;"/><text fill="#343A40" font-family="'Verdana'" font-size="12.5" lengthAdjust="spacing" textLength="195.4285" x="452.1352" y="693.6991">ChangeMessageVisibility(300s)</text></g><rect fill="#F8F9FA" height="3.125" rx="4.1667" ry="4.1667" style="stroke:#F8F9FA;stroke-width:1.0417;" width="1507.0536" x="10.4167" y="751.8392"/><line style="stroke:#868E96;stroke-width:1.0417;" x1="10.4167" x2="1517.4703" y1="751.8392" y2="751.8392"/><line style="stroke:#868E96;stroke-width:1.0417;" x1="10.4167" x2="1517.4703" y1="754.9642" y2="754.9642"/><rect fill="#F8F9FA" height="33.3008" rx="4.1667" ry="4.1667" style="stroke:#868E96;stroke-width:2.0833;" width="225.7385" x="651.0742" y="736.2305"/><text fill="#343A40" font-family="'Verdana'" font-size="12.5" font-weight="bold" lengthAdjust="spacing" textLength="196.3867" x="662.5326" y="757.2083">2. Second Attempt (Failure)</text><path d="M322.9167,789.3229 L322.9167,829.9479 A4.1667,4.1667 0 0 0 327.0833,834.1146 L550,834.1146 A4.1667,4.1667 0 0 0 554.1667,829.9479 L554.1667,795.5729 L543.75,785.1563 L327.0833,785.1563 A4.1667,4.1667 0 0 0 322.9167,789.3229" fill="none" style="stroke:#033C73;stroke-width:1.0417;"/><path d="M543.75,785.1563 L543.75,793.4896 A2.0833,2.0833 0 0 0 545.8333,795.5729 L554.1667,795.5729 L543.75,785.1563" fill="none" style="stroke:#033C73;stroke-width:1.0417;"/><text fill="#033C73" font-family="'Verdana'" font-size="12.5" lengthAdjust="spacing" textLength="101.1536" x="334.375" y="807.1757">After 5 minutes,</text><text fill="#033C73" font-family="'Verdana'" font-size="12.5" lengthAdjust="spacing" textLength="199.2249" x="334.375" y="821.7265">message becomes visible again</text><g class="message" data-participant-1="SQS" data-participant-2="Lambda"><polygon fill="#2FA4E7" points="650.0783,867.3503,660.495,871.5169,650.0783,875.6836,654.245,871.5169" style="stroke:#2FA4E7;stroke-width:1.0417;"/><line style="stroke:#2FA4E7;stroke-width:3.125;" x1="439.6352" x2="656.3283" y1="871.5169" y2="871.5169"/><text fill="#343A40" font-family="'Verdana'" font-size="12.5" lengthAdjust="spacing" textLength="170.2637" x="465.9749" y="861.2773">Poll message (attempt 2/3)</text></g><g class="message" data-participant-1="Lambda" data-participant-2="S3Input"><polygon fill="#2FA4E7" points="238.383,906.901,227.9663,911.0677,238.383,915.2344,234.2163,911.0677" style="stroke:#2FA4E7;stroke-width:1.0417;"/><line style="stroke:#2FA4E7;stroke-width:3.125;" x1="232.133" x2="661.5367" y1="911.0677" y2="911.0677"/><text fill="#343A40" font-family="'Verdana'" font-size="12.5" lengthAdjust="spacing" textLength="197.8027" x="345.8501" y="900.828">GetObject(corrupted-photo.jpg)</text></g><g class="message" data-participant-1="S3Input" data-participant-2="Lambda"><polygon fill="#2FA4E7" points="650.0783,946.4518,660.495,950.6185,650.0783,954.7852,654.245,950.6185" style="stroke:#2FA4E7;stroke-width:1.0417;"/><line style="stroke:#2FA4E7;stroke-width:3.125;stroke-dasharray:2.0833,2.0833;" x1="221.7163" x2="656.3283" y1="950.6185" y2="950.6185"/><text fill="#343A40" font-family="'Verdana'" font-size="12.5" lengthAdjust="spacing" textLength="85.1685" x="399.5631" y="940.3788">Return image</text></g><g class="message" data-participant-1="Lambda" data-participant-2="Lambda"><line style="stroke:#2FA4E7;stroke-width:3.125;" x1="672.995" x2="716.745" y1="990.1693" y2="990.1693"/><line style="stroke:#2FA4E7;stroke-width:3.125;" x1="716.745" x2="716.745" y1="990.1693" y2="1003.7109"/><line style="stroke:#2FA4E7;stroke-width:3.125;" x1="674.0367" x2="716.745" y1="1003.7109" y2="1003.7109"/><polygon fill="#2FA4E7" points="684.4533,999.5443,674.0367,1003.7109,684.4533,1007.8776,680.2867,1003.7109" style="stroke:#2FA4E7;stroke-width:1.0417;"/><text fill="#343A40" font-family="'Verdana'" font-size="12.5" lengthAdjust="spacing" textLength="129.3457" x="685.495" y="979.9296">Try to decode image</text></g><path d="M678.125,1021.4193 L678.125,1047.4609 A4.1667,4.1667 0 0 0 682.2917,1051.6276 L776.0417,1051.6276 A4.1667,4.1667 0 0 0 780.2083,1047.4609 L780.2083,1027.6693 L769.7917,1017.2526 L682.2917,1017.2526 A4.1667,4.1667 0 0 0 678.125,1021.4193" fill="#FFC0CB" style="stroke:#033C73;stroke-width:1.0417;"/><path d="M769.7917,1017.2526 L769.7917,1025.5859 A2.0833,2.0833 0 0 0 771.875,1027.6693 L780.2083,1027.6693 L769.7917,1017.2526" fill="#FFC0CB" style="stroke:#033C73;stroke-width:1.0417;"/><text fill="#033C73" font-family="'Verdana'" font-size="12.5" lengthAdjust="spacing" textLength="70.1904" x="689.5833" y="1039.2721">Same error</text><g class="message" data-participant-1="Lambda" data-participant-2="CW"><polygon fill="#2FA4E7" points="1384.844,1084.8958,1395.2606,1089.0625,1384.844,1093.2292,1389.0106,1089.0625" style="stroke:#2FA4E7;stroke-width:1.0417;"/><line style="stroke:#2FA4E7;stroke-width:3.125;" x1="672.995" x2="1391.094" y1="1089.0625" y2="1089.0625"/><text fill="#343A40" font-family="'Verdana'" font-size="12.5" lengthAdjust="spacing" textLength="170.0012" x="950.1689" y="1078.8228">log.Printf("Error decoding")</text></g><g class="message" data-participant-1="CW" data-participant-2="Lambda"><polygon fill="#2FA4E7" points="684.4533,1124.4466,674.0367,1128.6133,684.4533,1132.7799,680.2867,1128.6133" style="stroke:#2FA4E7;stroke-width:1.0417;"/><line style="stroke:#2FA4E7;stroke-width:3.125;stroke-dasharray:2.0833,2.0833;" x1="678.2033" x2="1401.5106" y1="1128.6133" y2="1128.6133"/><text fill="#343A40" font-family="'Verdana'" font-size="12.5" lengthAdjust="spacing" textLength="18.0359" x="1028.7557" y="1118.3736">OK</text></g><g class="message" data-participant-1="Lambda" data-participant-2="SQS"><polygon fill="#2FA4E7" points="451.0935,1163.9974,440.6769,1168.1641,451.0935,1172.3307,446.9269,1168.1641" style="stroke:#2FA4E7;stroke-width:1.0417;"/><line style="stroke:#2FA4E7;stroke-width:3.125;stroke-dasharray:2.0833,2.0833;" x1="444.8435" x2="666.745" y1="1168.1641" y2="1168.1641"/><text fill="#343A40" font-family="'Verdana'" font-size="12.5" lengthAdjust="spacing" textLength="73.4436" x="516.9891" y="1157.9244">return error</text></g><g class="message" data-participant-1="SQS" data-participant-2="SQS"><line style="stroke:#2FA4E7;stroke-width:3.125;" x1="439.6352" x2="483.3852" y1="1207.7148" y2="1207.7148"/><line style="stroke:#2FA4E7;stroke-width:3.125;" x1="483.3852" x2="483.3852" y1="1207.7148" y2="1221.2565"/><line style="stroke:#2FA4E7;stroke-width:3.125;" x1="440.6769" x2="483.3852" y1="1221.2565" y2="1221.2565"/><polygon fill="#2FA4E7" points="451.0935,1217.0898,440.6769,1221.2565,451.0935,1225.4232,446.9269,1221.2565" style="stroke:#2FA4E7;stroke-width:1.0417;"/><text fill="#343A40" font-family="'Verdana'" font-size="12.5" lengthAdjust="spacing" textLength="115.1123" x="452.1352" y="1197.4752">Receive count = 2</text></g><rect fill="#F8F9FA" height="3.125" rx="4.1667" ry="4.1667" style="stroke:#F8F9FA;stroke-width:1.0417;" width="1507.0536" x="10.4167" y="1255.6152"/><line style="stroke:#868E96;stroke-width:1.0417;" x1="10.4167" x2="1517.4703" y1="1255.6152" y2="1255.6152"/><line style="stroke:#868E96;stroke-width:1.0417;" x1="10.4167" x2="1517.4703" y1="1258.7402" y2="1258.7402"/><rect fill="#F8F9FA" height="33.3008" rx="4.1667" ry="4.1667" style="stroke:#868E96;stroke-width:2.0833;" width="211.2366" x="658.3252" y="1240.0065"/><text fill="#343A40" font-family="'Verdana'" font-size="12.5" font-weight="bold" lengthAdjust="spacing" textLength="181.8848" x="669.7835" y="1260.9843">3. Third Attempt (Failure)</text><path d="M345.8333,1293.099 L345.8333,1319.1406 A4.1667,4.1667 0 0 0 350,1323.3073 L528.125,1323.3073 A4.1667,4.1667 0 0 0 532.2917,1319.1406 L532.2917,1299.349 L521.875,1288.9323 L350,1288.9323 A4.1667,4.1667 0 0 0 345.8333,1293.099" fill="#FFFF00" style="stroke:#033C73;stroke-width:1.0417;"/><path d="M521.875,1288.9323 L521.875,1297.2656 A2.0833,2.0833 0 0 0 523.9583,1299.349 L532.2917,1299.349 L521.875,1288.9323" fill="#FFFF00" style="stroke:#033C73;stroke-width:1.0417;"/><text fill="#033C73" font-family="'Verdana'" font-size="12.5" lengthAdjust="spacing" textLength="155.0537" x="357.2917" y="1310.9517">Last attempt before DLQ</text><g class="message" data-participant-1="SQS" data-participant-2="Lambda"><polygon fill="#2FA4E7" points="650.0783,1356.5755,660.495,1360.7422,650.0783,1364.9089,654.245,1360.7422" style="stroke:#2FA4E7;stroke-width:1.0417;"/><line style="stroke:#2FA4E7;stroke-width:3.125;" x1="439.6352" x2="656.3283" y1="1360.7422" y2="1360.7422"/><text fill="#343A40" font-family="'Verdana'" font-size="12.5" lengthAdjust="spacing" textLength="170.2637" x="465.9749" y="1350.5025">Poll message (attempt 3/3)</text></g><g class="message" data-participant-1="Lambda" data-participant-2="S3Input"><polygon fill="#2FA4E7" points="238.383,1396.1263,227.9663,1400.293,238.383,1404.4596,234.2163,1400.293" style="stroke:#2FA4E7;stroke-width:1.0417;"/><line style="stroke:#2FA4E7;stroke-width:3.125;" x1="232.133" x2="661.5367" y1="1400.293" y2="1400.293"/><text fill="#343A40" font-family="'Verdana'" font-size="12.5" lengthAdjust="spacing" textLength="197.8027" x="345.8501" y="1390.0533">GetObject(corrupted-photo.jpg)</text></g><g class="message" data-participant-1="S3Input" data-participant-2="Lambda"><polygon fill="#2FA4E7" points="650.0783,1435.6771,660.495,1439.8438,650.0783,1444.0104,654.245,1439.8438" style="stroke:#2FA4E7;stroke-width:1.0417;"/><line style="stroke:#2FA4E7;stroke-width:3.125;stroke-dasharray:2.0833,2.0833;" x1="221.7163" x2="656.3283" y1="1439.8438" y2="1439.8438"/><text fill="#343A40" font-family="'Verdana'" font-size="12.5" lengthAdjust="spacing" textLength="85.1685" x="399.5631" y="1429.6041">Return image</text></g><g class="message" data-participant-1="Lambda" data-participant-2="Lambda"><line style="stroke:#2FA4E7;stroke-width:3.125;" x1="672.995" x2="716.745" y1="1479.3945" y2="1479.3945"/><line style="stroke:#2FA4E7;stroke-width:3.125;" x1="716.745" x2="716.745" y1="1479.3945" y2="1492.9362"/><line style="stroke:#2FA4E7;stroke-width:3.125;" x1="674.0367" x2="716.745" y1="1492.9362" y2="1492.9362"/><polygon fill="#2FA4E7" points="684.4533,1488.7695,674.0367,1492.9362,684.4533,1497.1029,680.2867,1492.9362" style="stroke:#2FA4E7;stroke-width:1.0417;"/><text fill="#343A40" font-family="'Verdana'" font-size="12.5" lengthAdjust="spacing" textLength="129.3457" x="685.495" y="1469.1549">Try to decode image</text></g><path d="M678.125,1510.6445 L678.125,1536.6862 A4.1667,4.1667 0 0 0 682.2917,1540.8529 L772.9167,1540.8529 A4.1667,4.1667 0 0 0 777.0833,1536.6862 L777.0833,1516.8945 L766.6667,1506.4779 L682.2917,1506.4779 A4.1667,4.1667 0 0 0 678.125,1510.6445" fill="#FFC0CB" style="stroke:#033C73;stroke-width:1.0417;"/><path d="M766.6667,1506.4779 L766.6667,1514.8112 A2.0833,2.0833 0 0 0 768.75,1516.8945 L777.0833,1516.8945 L766.6667,1506.4779" fill="#FFC0CB" style="stroke:#033C73;stroke-width:1.0417;"/><text fill="#033C73" font-family="'Verdana'" font-size="12.5" lengthAdjust="spacing" textLength="66.9312" x="689.5833" y="1528.4973">Fails again</text><g class="message" data-participant-1="Lambda" data-participant-2="CW"><polygon fill="#2FA4E7" points="1384.844,1574.1211,1395.2606,1578.2878,1384.844,1582.4544,1389.0106,1578.2878" style="stroke:#2FA4E7;stroke-width:1.0417;"/><line style="stroke:#2FA4E7;stroke-width:3.125;" x1="672.995" x2="1391.094" y1="1578.2878" y2="1578.2878"/><text fill="#343A40" font-family="'Verdana'" font-size="12.5" lengthAdjust="spacing" textLength="170.0012" x="950.1689" y="1568.0481">log.Printf("Error decoding")</text></g><g class="message" data-participant-1="CW" data-participant-2="Lambda"><polygon fill="#2FA4E7" points="684.4533,1613.6719,674.0367,1617.8385,684.4533,1622.0052,680.2867,1617.8385" style="stroke:#2FA4E7;stroke-width:1.0417;"/><line style="stroke:#2FA4E7;stroke-width:3.125;stroke-dasharray:2.0833,2.0833;" x1="678.2033" x2="1401.5106" y1="1617.8385" y2="1617.8385"/><text fill="#343A40" font-family="'Verdana'" font-size="12.5" lengthAdjust="spacing" textLength="18.0359" x="1028.7557" y="1607.5989">OK</text></g><g class="message" data-participant-1="Lambda" data-participant-2="SQS"><polygon fill="#2FA4E7" points="451.0935,1653.2227,440.6769,1657.3893,451.0935,1661.556,446.9269,1657.3893" style="stroke:#2FA4E7;stroke-width:1.0417;"/><line style="stroke:#2FA4E7;stroke-width:3.125;stroke-dasharray:2.0833,2.0833;" x1="444.8435" x2="666.745" y1="1657.3893" y2="1657.3893"/><text fill="#343A40" font-family="'Verdana'" font-size="12.5" lengthAdjust="spacing" textLength="73.4436" x="516.9891" y="1647.1497">return error</text></g><g class="message" data-participant-1="SQS" data-participant-2="SQS"><line style="stroke:#2FA4E7;stroke-width:3.125;" x1="439.6352" x2="483.3852" y1="1696.9401" y2="1696.9401"/><line style="stroke:#2FA4E7;stroke-width:3.125;" x1="483.3852" x2="483.3852" y1="1696.9401" y2="1710.4818"/><line style="stroke:#2FA4E7;stroke-width:3.125;" x1="440.6769" x2="483.3852" y1="1710.4818" y2="1710.4818"/><polygon fill="#2FA4E7" points="451.0935,1706.3151,440.6769,1710.4818,451.0935,1714.6484,446.9269,1710.4818" style="stroke:#2FA4E7;stroke-width:1.0417;"/><text fill="#343A40" font-family="'Verdana'" font-size="12.5" lengthAdjust="spacing" textLength="191.8213" x="452.1352" y="1686.7004">Receive count = 3 (maximum)</text></g><rect fill="#F8F9FA" height="3.125" rx="4.1667" ry="4.1667" style="stroke:#F8F9FA;stroke-width:1.0417;" width="1507.0536" x="10.4167" y="1744.8405"/><line style="stroke:#868E96;stroke-width:1.0417;" x1="10.4167" x2="1517.4703" y1="1744.8405" y2="1744.8405"/><line style="stroke:#868E96;stroke-width:1.0417;" x1="10.4167" x2="1517.4703" y1="1747.9655" y2="1747.9655"/><rect fill="#F8F9FA" height="33.3008" rx="4.1667" ry="4.1667" style="stroke:#868E96;stroke-width:2.0833;" width="239.0991" x="644.3939" y="1729.2318"/><text fill="#343A40" font-family="'Verdana'" font-size="12.5" font-weight="bold" lengthAdjust="spacing" textLength="209.7473" x="655.8523" y="1750.2096">4. Send to Dead Letter Queue</text><path d="M444.7917,1782.3242 L444.7917,1822.9492 A4.1667,4.1667 0 0 0 448.9583,1827.1159 L645.8333,1827.1159 A4.1667,4.1667 0 0 0 650,1822.9492 L650,1788.5742 L639.5833,1778.1576 L448.9583,1778.1576 A4.1667,4.1667 0 0 0 444.7917,1782.3242" fill="#FF0000" style="stroke:#033C73;stroke-width:1.0417;"/><path d="M639.5833,1778.1576 L639.5833,1786.4909 A2.0833,2.0833 0 0 0 641.6667,1788.5742 L650,1788.5742 L639.5833,1778.1576" fill="#FF0000" style="stroke:#033C73;stroke-width:1.0417;"/><text fill="#033C73" font-family="'Verdana'" font-size="12.5" lengthAdjust="spacing" textLength="173.7488" x="456.25" y="1800.177">maxReceiveCount reached!</text><text fill="#033C73" font-family="'Verdana'" font-size="12.5" lengthAdjust="spacing" textLength="135.4675" x="456.25" y="1814.7278">Message goes to DLQ</text><g class="message" data-participant-1="SQS" data-participant-2="DLQ"><polygon fill="#2FA4E7" points="1148.1822,1860.3516,1158.5988,1864.5182,1148.1822,1868.6849,1152.3488,1864.5182" style="stroke:#2FA4E7;stroke-width:1.0417;"/><line style="stroke:#2FA4E7;stroke-width:3.125;" x1="439.6352" x2="1154.4322" y1="1864.5182" y2="1864.5182"/><text fill="#343A40" font-family="'Verdana'" font-size="12.5" lengthAdjust="spacing" textLength="202.8931" x="698.7122" y="1854.2786">SendMessage(original message)</text></g><path d="M1176.0417,1882.2266 L1176.0417,1995.7682 A4.1667,4.1667 0 0 0 1180.2083,1999.9349 L1342.7083,1999.9349 A4.1667,4.1667 0 0 0 1346.875,1995.7682 L1346.875,1888.4766 L1336.4583,1878.0599 L1180.2083,1878.0599 A4.1667,4.1667 0 0 0 1176.0417,1882.2266" fill="none" style="stroke:#033C73;stroke-width:1.0417;"/><path d="M1336.4583,1878.0599 L1336.4583,1886.3932 A2.0833,2.0833 0 0 0 1338.5417,1888.4766 L1346.875,1888.4766 L1336.4583,1878.0599" fill="none" style="stroke:#033C73;stroke-width:1.0417;"/><text fill="#033C73" font-family="'Verdana'" font-size="12.5" lengthAdjust="spacing" textLength="137.5122" x="1187.5" y="1900.0793">Message stays in DLQ</text><text fill="#033C73" font-family="'Verdana'" font-size="12.5" lengthAdjust="spacing" textLength="122.5586" x="1187.5" y="1914.6301">for manual analysis</text><text fill="#033C73" font-family="'Verdana'" font-size="12.5" lengthAdjust="spacing" textLength="3.9734" x="1187.5" y="1929.1809">&#160;</text><text fill="#033C73" font-family="'Verdana'" font-size="12.5" lengthAdjust="spacing" textLength="101.4404" x="1187.5" y="1943.7317">Developers can:</text><text fill="#033C73" font-family="'Verdana'" font-size="12.5" lengthAdjust="spacing" textLength="138.8245" x="1187.5" y="1958.2825">- Investigate the issue</text><text fill="#033C73" font-family="'Verdana'" font-size="12.5" lengthAdjust="spacing" textLength="69.4519" x="1187.5" y="1972.8333">- Fix image</text><text fill="#033C73" font-family="'Verdana'" font-size="12.5" lengthAdjust="spacing" textLength="134.8267" x="1187.5" y="1987.384">- Reprocess manually</text><g class="message" data-participant-1="SQS" data-participant-2="SQS"><line style="stroke:#2FA4E7;stroke-width:3.125;" x1="439.6352" x2="483.3852" y1="2037.1745" y2="2037.1745"/><line style="stroke:#2FA4E7;stroke-width:3.125;" x1="483.3852" x2="483.3852" y1="2037.1745" y2="2050.7161"/><line style="stroke:#2FA4E7;stroke-width:3.125;" x1="440.6769" x2="483.3852" y1="2050.7161" y2="2050.7161"/><polygon fill="#2FA4E7" points="451.0935,2046.5495,440.6769,2050.7161,451.0935,2054.8828,446.9269,2050.7161" style="stroke:#2FA4E7;stroke-width:1.0417;"/><text fill="#343A40" font-family="'Verdana'" font-size="12.5" lengthAdjust="spacing" textLength="105.6091" x="452.1352" y="2026.9348">DeleteMessage()</text></g><rect fill="#F8F9FA" height="3.125" rx="4.1667" ry="4.1667" style="stroke:#F8F9FA;stroke-width:1.0417;" width="1507.0536" x="10.4167" y="2085.0749"/><line style="stroke:#868E96;stroke-width:1.0417;" x1="10.4167" x2="1517.4703" y1="2085.0749" y2="2085.0749"/><line style="stroke:#868E96;stroke-width:1.0417;" x1="10.4167" x2="1517.4703" y1="2088.1999" y2="2088.1999"/><rect fill="#F8F9FA" height="33.3008" rx="4.1667" ry="4.1667" style="stroke:#868E96;stroke-width:2.0833;" width="157.5439" x="685.1715" y="2069.4661"/><text fill="#343A40" font-family="'Verdana'" font-size="12.5" font-weight="bold" lengthAdjust="spacing" textLength="128.1921" x="696.6298" y="2090.4439">5. Alert (Optional)</text><g class="message" data-participant-1="DLQ" data-participant-2="CW"><polygon fill="#2FA4E7" points="1384.844,2140.2344,1395.2606,2144.401,1384.844,2148.5677,1389.0106,2144.401" style="stroke:#2FA4E7;stroke-width:1.0417;"/><line style="stroke:#2FA4E7;stroke-width:3.125;" x1="1165.8905" x2="1391.094" y1="2144.401" y2="2144.401"/><text fill="#343A40" font-family="'Verdana'" font-size="12.5" lengthAdjust="spacing" textLength="201.2451" x="1180.9947" y="2134.1614">Metric: NumberOfMessagesSent</text></g><path d="M1292.7083,2162.1094 L1292.7083,2217.3177 A4.1667,4.1667 0 0 0 1296.875,2221.4844 L1507.2917,2221.4844 A4.1667,4.1667 0 0 0 1511.4583,2217.3177 L1511.4583,2168.3594 L1501.0417,2157.9427 L1296.875,2157.9427 A4.1667,4.1667 0 0 0 1292.7083,2162.1094" fill="#FFA500" style="stroke:#033C73;stroke-width:1.0417;"/><path d="M1501.0417,2157.9427 L1501.0417,2166.276 A2.0833,2.0833 0 0 0 1503.125,2168.3594 L1511.4583,2168.3594 L1501.0417,2157.9427" fill="#FFA500" style="stroke:#033C73;stroke-width:1.0417;"/><text fill="#033C73" font-family="'Verdana'" font-size="12.5" lengthAdjust="spacing" textLength="142.8223" x="1304.1667" y="2179.9622">CloudWatch Alarm can</text><text fill="#033C73" font-family="'Verdana'" font-size="12.5" lengthAdjust="spacing" textLength="126.3306" x="1304.1667" y="2194.5129">notify via SNS/Email</text><text fill="#033C73" font-family="'Verdana'" font-size="12.5" lengthAdjust="spacing" textLength="187.262" x="1304.1667" y="2209.0637">when DLQ receives messages</text><g class="message" data-participant-1="CW" data-participant-2="DLQ"><polygon fill="#2FA4E7" points="1177.3488,2254.6875,1166.9322,2258.8542,1177.3488,2263.0208,1173.1822,2258.8542" style="stroke:#2FA4E7;stroke-width:1.0417;"/><line style="stroke:#2FA4E7;stroke-width:3.125;stroke-dasharray:2.0833,2.0833;" x1="1171.0988" x2="1401.5106" y1="2258.8542" y2="2258.8542"/><text fill="#343A40" font-family="'Verdana'" font-size="12.5" lengthAdjust="spacing" textLength="18.0359" x="1275.2035" y="2248.6145">OK</text></g><path d="M15.625,2276.5625 L15.625,2390.1042 A4.1667,4.1667 0 0 0 19.7917,2394.2708 L1453.125,2394.2708 A4.1667,4.1667 0 0 0 1457.2917,2390.1042 L1457.2917,2282.8125 L1446.875,2272.3958 L19.7917,2272.3958 A4.1667,4.1667 0 0 0 15.625,2276.5625" fill="#FFC0CB" style="stroke:#033C73;stroke-width:1.0417;"/><path d="M1446.875,2272.3958 L1446.875,2280.7292 A2.0833,2.0833 0 0 0 1448.9583,2282.8125 L1457.2917,2282.8125 L1446.875,2272.3958" fill="#FFC0CB" style="stroke:#033C73;stroke-width:1.0417;"/><text fill="#033C73" font-family="'Verdana'" font-size="12.5" font-weight="bold" lengthAdjust="spacing" textLength="144.5984" x="621.3806" y="2294.4153">PROCESSING FAILED</text><text fill="#033C73" font-family="'Verdana'" font-size="12.5" lengthAdjust="spacing" textLength="3.9734" x="621.3806" y="2308.9661">&#160;</text><text fill="#033C73" font-family="'Verdana'" font-size="12.5" lengthAdjust="spacing" textLength="109.6436" x="621.3806" y="2323.5168">Required actions:</text><text fill="#033C73" font-family="'Verdana'" font-size="12.5" lengthAdjust="spacing" textLength="178.656" x="621.3806" y="2338.0676">1. Check logs in CloudWatch</text><text fill="#033C73" font-family="'Verdana'" font-size="12.5" lengthAdjust="spacing" textLength="198.1018" x="621.3806" y="2352.6184">2. Investigate messages in DLQ</text><text fill="#033C73" font-family="'Verdana'" font-size="12.5" lengthAdjust="spacing" textLength="114.4165" x="621.3806" y="2367.1692">3. Fix the problem</text><text fill="#033C73" font-family="'Verdana'" font-size="12.5" lengthAdjust="spacing" textLength="221.46" x="621.3806" y="2381.72">4. Reprocess manually if necessary</text><!--SRC=[tLPDRo974BtFhwY52xOMzeFuWkH86CpA2ckmnuaLQI_DJ37qUgPxjhl7Dehot_DwfZ7ZnPjiRibA251rVRogUbrThzo62wQ4JPMpK7rTkLmgZkoTLAKmeY3BNofM2NzaQqN6urnc2lhAiMbf6RQbLdQdTSQvVXWRen_8cQhjRYMIkypeIgKJdMj3jnlfskSYSP3-4H7Dj7ADpbaEe-ZFbXQ-dKnaAPJxHrt0h_WRMf6JBcSw1r93Cs0UqJKxioMXKfgoI6dE3fdIbNSIKTJ0w_ngsNH8MF9_eZQQJZpyf7goG17wfT49wg5DNwgZMZqUNgYoSjITospZpdBuRE1rugiOTh18gyJr6_lwA1XUnTHT6A4oVXvkBefLAc2wR89TUCjPfH8dTGZQg53tWs5Mtm4M7DYXNLJkPRZJ-TNBSFjf_gMnXWfrhpbz7d6Iwogz5IxPV59pdTbQTN9BtMLbofoZwFIKtWre9errD4RjYz9HRoPaNXa-ejFJAFArwFySqXhHKkSv5Gtlg2U2oRitmoFVBNal70VTA0gbW7Nen8W-i5kiFdFYUeasfYeTf_roevqUV2wpbejW4ErQs6z106SgewWkGvJoWKqhxixa1YHpcb9ETCh1KcdO65zgqkkdjYsbkWDvQuwEw0baiA7cTp2j7VMEQ8rIsOZ1N- -k7NfoEw9SPuEbaSgjUvs6zJK2gR9EAzV9ROIMj3DS_DBE2-TFVdqjh-8H9a1T0_PEsxgxqZzF3YQ0xZjfE65vpxQnz1TlX1DGOAeXl5pS067Ei0qjnk7x0OKvGokWnm59TI-jNE4kh-7af90AUiC1NQZ4OC0fPtU1KC5AkLQ10ftg92ORVyE2yz-yHvbBj-qDtxwrHpKt4Jj6J5Y_JCuwJNsFaT6aE5xxyN52G5GvjgyXAhx2laCkCW7O1y3-dkVlVpIUnmBlKSEY_nw9srovRlE9m8oQ7-3SpKQQxw87TN_d78yEifuBZBjTJrSC4hCVeF-M3SCVZGs-UFRWPlmVw32aNY4UPL4LpU3uoGyEP83q3nQBFJNQ0x9vFJ4ln6DmFgbz6m3PSFeAHxincFbPwJs_H1a8HtNieDtJY2ALUE9FgqhUmLT8l6WVoJgnzUCsYFsqBOIgu4p0uzPA2oa-Kxx73bYoiPG8vKTw7yCOSzx9p0V2tadIMhzKuMGc7v_UipvA6PQHu3hVVcDSJ-kNOPVMKRj5TI8e-yc0nZaRtCD5wLSYaJSNqMydWJyViV79P4INLR5YirW7VnObSy_uqxgzVcC9wnZHVgT1B64Adp74q9RhBSQxeFWoVdDUWCiGFsouhjx-vGjjQB_QWQfrwmvvkiVXzy_NpVxKN9ZZu-NrOd8UnnUN7sWslfYVJu-FcvPSOvEN1fk3g9T36zxPoOQJEt-9whRkSsaUsdRFTZZtxHyEwjRvPg9bUCGA2C7qmmwIN9DYBnAcrSw_0000]--></g></svg>