<svg xmlns="http://www.w3.org/2000/svg" xmlns:xlink="http://www.w3.org/1999/xlink" contentStyleType="text/css" data-diagram-type="SEQUENCE" height="2508.3333px" preserveAspectRatio="none" style="width:1558px;height:2508px;background:#FFFFFF;" version="1.1" viewBox="0 0 1558 2508" width="1558.3333px" zoomAndPan="magnify"><title>Fluxo de Erro: Retry e Dead Letter Queue</title><defs/><g><rect fill="none" height="47.168" rx="4.1667" ry="4.1667" style="stroke:#BABDBF;stroke-width:1.0417;" width="509.9772" x="522.82" y="20.8333"/><text fill="#2FA4E7" font-family="'Verdana'" font-size="20.8333" font-weight="bold" lengthAdjust="spacing" textLength="487.0605" x="534.2784" y="51.6296">Fluxo de Erro: Retry e Dead Letter Queue</text><g><title>S3</title><rect fill="none" height="39.5508" style="stroke:#2683B9;stroke-width:1.0417;" width="10.4167" x="231.3538" y="303.2878"/></g><g><title>S3</title><rect fill="none" height="39.5508" style="stroke:#2683B9;stroke-width:1.0417;" width="10.4167" x="231.3538" y="911.0677"/></g><g><title>S3</title><rect fill="none" height="39.5508" style="stroke:#2683B9;stroke-width:1.0417;" width="10.4167" x="231.3538" y="1400.293"/></g><g><title>Lambda</title><rect fill="none" height="311.1979" style="stroke:#2683B9;stroke-width:1.0417;" width="10.4167" x="677.4241" y="263.737"/></g><g><title>Lambda</title><rect fill="none" height="296.6471" style="stroke:#2683B9;stroke-width:1.0417;" width="10.4167" x="677.4241" y="871.5169"/></g><g><title>Lambda</title><rect fill="none" height="296.6471" style="stroke:#2683B9;stroke-width:1.0417;" width="10.4167" x="677.4241" y="1360.7422"/></g><g><title>DLQ</title><rect fill="none" height="178.9063" style="stroke:#2683B9;stroke-width:1.0417;" width="10.4167" x="1175.528" y="1864.5182"/></g><g><title>CloudWatch</title><rect fill="none" height="39.5508" style="stroke:#2683B9;stroke-width:1.0417;" width="10.4167" x="1419.8497" y="495.8333"/></g><g><title>CloudWatch</title><rect fill="none" height="39.5508" style="stroke:#2683B9;stroke-width:1.0417;" width="10.4167" x="1419.8497" y="1089.0625"/></g><g><title>CloudWatch</title><rect fill="none" height="39.5508" style="stroke:#2683B9;stroke-width:1.0417;" width="10.4167" x="1419.8497" y="1578.2878"/></g><g><title>CloudWatch</title><rect fill="none" height="114.4531" style="stroke:#2683B9;stroke-width:1.0417;" width="10.4167" x="1419.8497" y="2144.401"/></g><g><title>Usu.rio</title><rect fill="#000000" fill-opacity="0.00000" height="2242.7409" width="8.3333" x="70.6268" y="167.9688"/><line style="stroke:#BABDBF;stroke-width:1.0417;stroke-dasharray:5.2083,5.2083;" x1="73.9583" x2="73.9583" y1="167.9688" y2="2410.7096"/></g><g><title>S3</title><rect fill="#000000" fill-opacity="0.00000" height="2242.7409" width="8.3333" x="232.3954" y="167.9688"/><line style="stroke:#BABDBF;stroke-width:1.0417;stroke-dasharray:5.2083,5.2083;" x1="236.0453" x2="236.0453" y1="167.9688" y2="2410.7096"/></g><g><title>SQS</title><rect fill="#000000" fill-opacity="0.00000" height="2242.7409" width="8.3333" x="450.3143" y="167.9688"/><line style="stroke:#BABDBF;stroke-width:1.0417;stroke-dasharray:5.2083,5.2083;" x1="453.7455" x2="453.7455" y1="167.9688" y2="2410.7096"/></g><g><title>Lambda</title><rect fill="#000000" fill-opacity="0.00000" height="2242.7409" width="8.3333" x="678.4658" y="167.9688"/><line style="stroke:#BABDBF;stroke-width:1.0417;stroke-dasharray:5.2083,5.2083;" x1="682.2998" x2="682.2998" y1="167.9688" y2="2410.7096"/></g><g><title>S3</title><rect fill="#000000" fill-opacity="0.00000" height="2242.7409" width="8.3333" x="942.1865" y="167.9688"/><line style="stroke:#BABDBF;stroke-width:1.0417;stroke-dasharray:5.2083,5.2083;" x1="945.4651" x2="945.4651" y1="167.9688" y2="2410.7096"/></g><g><title>DLQ</title><rect fill="#000000" fill-opacity="0.00000" height="2242.7409" width="8.3333" x="1176.5696" y="167.9688"/><line style="stroke:#BABDBF;stroke-width:1.0417;stroke-dasharray:5.2083,5.2083;" x1="1180.5745" x2="1180.5745" y1="167.9688" y2="2410.7096"/></g><g><title>CloudWatch</title><rect fill="#000000" fill-opacity="0.00000" height="2242.7409" width="8.3333" x="1420.8913" y="167.9688"/><line style="stroke:#BABDBF;stroke-width:1.0417;stroke-dasharray:5.2083,5.2083;" x1="1424.8474" x2="1424.8474" y1="167.9688" y2="2410.7096"/></g><g class="participant participant-head" data-participant="User"><text fill="#000000" font-family="'Verdana'" font-size="12.5" lengthAdjust="spacing" textLength="47.5037" x="47.9167" y="159.8124">Usu&#225;rio</text><ellipse cx="74.7935" cy="88.8346" fill="none" rx="8.3333" ry="8.3333" style="stroke:#2FA4E7;stroke-width:1.0417;"/><path d="M74.7935,97.168 L74.7935,125.293 M61.2518,105.5013 L88.3352,105.5013 M74.7935,125.293 L61.2518,140.918 M74.7935,125.293 L88.3352,140.918" fill="none" style="stroke:#2FA4E7;stroke-width:1.0417;"/></g><g class="participant participant-tail" data-participant="User"><text fill="#000000" font-family="'Verdana'" font-size="12.5" lengthAdjust="spacing" textLength="47.5037" x="47.9167" y="2426.4791">Usu&#225;rio</text><ellipse cx="74.7935" cy="2444.0104" fill="none" rx="8.3333" ry="8.3333" style="stroke:#2FA4E7;stroke-width:1.0417;"/><path d="M74.7935,2452.3438 L74.7935,2480.4688 M61.2518,2460.6771 L88.3352,2460.6771 M74.7935,2480.4688 L61.2518,2496.0938 M74.7935,2480.4688 L88.3352,2496.0938" fill="none" style="stroke:#2FA4E7;stroke-width:1.0417;"/></g><g class="participant participant-head" data-participant="S3Input"><rect fill="#ADD8E6" height="54.1016" rx="4.1667" ry="4.1667" style="stroke:#2FA4E7;stroke-width:1.0417;" width="155.2002" x="158.962" y="112.8255"/><text fill="#000000" font-family="'Verdana'" font-size="12.5" lengthAdjust="spacing" textLength="15.8875" x="228.6184" y="136.9283">S3</text><text fill="#000000" font-family="'Verdana'" font-size="12.5" lengthAdjust="spacing" textLength="130.2002" x="171.462" y="151.4791">(image-processor-in)</text></g><g class="participant participant-tail" data-participant="S3Input"><rect fill="#ADD8E6" height="54.1016" rx="4.1667" ry="4.1667" style="stroke:#2FA4E7;stroke-width:1.0417;" width="155.2002" x="158.962" y="2409.668"/><text fill="#000000" font-family="'Verdana'" font-size="12.5" lengthAdjust="spacing" textLength="15.8875" x="228.6184" y="2433.7708">S3</text><text fill="#000000" font-family="'Verdana'" font-size="12.5" lengthAdjust="spacing" textLength="130.2002" x="171.462" y="2448.3215">(image-processor-in)</text></g><g class="participant participant-head" data-participant="SQS"><path d="M371.4539,118.0339 L537.5081,118.0339 C542.7165,118.0339 542.7165,143.0013 542.7165,143.0013 C542.7165,143.0013 542.7165,167.9688 537.5081,167.9688 L371.4539,167.9688 C366.2455,167.9688 366.2455,143.0013 366.2455,143.0013 C366.2455,143.0013 366.2455,118.0339 371.4539,118.0339" fill="#FFA500" style="stroke:#2FA4E7;stroke-width:1.0417;"/><path d="M537.5081,118.0339 C532.2998,118.0339 532.2998,143.0013 532.2998,143.0013 C532.2998,167.9688 537.5081,167.9688 537.5081,167.9688" fill="none" style="stroke:#2FA4E7;stroke-width:1.0417;"/><text fill="#000000" font-family="'Verdana'" font-size="12.5" lengthAdjust="spacing" textLength="25.708" x="436.4187" y="140.0533">SQS</text><text fill="#000000" font-family="'Verdana'" font-size="12.5" lengthAdjust="spacing" textLength="145.2209" x="376.6622" y="154.6041">(product-image-queue)</text></g><g class="participant participant-tail" data-participant="SQS"><path d="M371.4539,2409.668 L537.5081,2409.668 C542.7165,2409.668 542.7165,2434.6354 542.7165,2434.6354 C542.7165,2434.6354 542.7165,2459.6029 537.5081,2459.6029 L371.4539,2459.6029 C366.2455,2459.6029 366.2455,2434.6354 366.2455,2434.6354 C366.2455,2434.6354 366.2455,2409.668 371.4539,2409.668" fill="#FFA500" style="stroke:#2FA4E7;stroke-width:1.0417;"/><path d="M537.5081,2409.668 C532.2998,2409.668 532.2998,2434.6354 532.2998,2434.6354 C532.2998,2459.6029 537.5081,2459.6029 537.5081,2459.6029" fill="none" style="stroke:#2FA4E7;stroke-width:1.0417;"/><text fill="#000000" font-family="'Verdana'" font-size="12.5" lengthAdjust="spacing" textLength="25.708" x="436.4187" y="2431.6874">SQS</text><text fill="#000000" font-family="'Verdana'" font-size="12.5" lengthAdjust="spacing" textLength="145.2209" x="376.6622" y="2446.2382">(product-image-queue)</text></g><g class="participant participant-head" data-participant="Lambda"><rect fill="#008000" height="54.1016" rx="4.1667" ry="4.1667" style="stroke:#2FA4E7;stroke-width:1.0417;" width="175.6653" x="594.7998" y="112.8255"/><text fill="#000000" font-family="'Verdana'" font-size="12.5" lengthAdjust="spacing" textLength="50.3296" x="657.4677" y="136.9283">Lambda</text><text fill="#000000" font-family="'Verdana'" font-size="12.5" lengthAdjust="spacing" textLength="150.6653" x="607.2998" y="151.4791">(ProcessImageFunction)</text></g><g class="participant participant-tail" data-participant="Lambda"><rect fill="#008000" height="54.1016" rx="4.1667" ry="4.1667" style="stroke:#2FA4E7;stroke-width:1.0417;" width="175.6653" x="594.7998" y="2409.668"/><text fill="#000000" font-family="'Verdana'" font-size="12.5" lengthAdjust="spacing" textLength="50.3296" x="657.4677" y="2433.7708">Lambda</text><text fill="#000000" font-family="'Verdana'" font-size="12.5" lengthAdjust="spacing" textLength="150.6653" x="607.2998" y="2448.3215">(ProcessImageFunction)</text></g><g class="participant participant-head" data-participant="S3Output"><rect fill="#ADD8E6" height="54.1016" rx="4.1667" ry="4.1667" style="stroke:#2FA4E7;stroke-width:1.0417;" width="164.2761" x="864.2151" y="112.8255"/><text fill="#000000" font-family="'Verdana'" font-size="12.5" lengthAdjust="spacing" textLength="15.8875" x="938.4094" y="136.9283">S3</text><text fill="#000000" font-family="'Verdana'" font-size="12.5" lengthAdjust="spacing" textLength="139.2761" x="876.7151" y="151.4791">(image-processor-out)</text></g><g class="participant participant-tail" data-participant="S3Output"><rect fill="#ADD8E6" height="54.1016" rx="4.1667" ry="4.1667" style="stroke:#2FA4E7;stroke-width:1.0417;" width="164.2761" x="864.2151" y="2409.668"/><text fill="#000000" font-family="'Verdana'" font-size="12.5" lengthAdjust="spacing" textLength="15.8875" x="938.4094" y="2433.7708">S3</text><text fill="#000000" font-family="'Verdana'" font-size="12.5" lengthAdjust="spacing" textLength="139.2761" x="876.7151" y="2448.3215">(image-processor-out)</text></g><g class="participant participant-head" data-participant="DLQ"><path d="M1085.7829,118.0339 L1275.6897,118.0339 C1280.898,118.0339 1280.898,143.0013 1280.898,143.0013 C1280.898,143.0013 1280.898,167.9688 1275.6897,167.9688 L1085.7829,167.9688 C1080.5745,167.9688 1080.5745,143.0013 1080.5745,143.0013 C1080.5745,143.0013 1080.5745,118.0339 1085.7829,118.0339" fill="#FF0000" style="stroke:#2FA4E7;stroke-width:1.0417;"/><path d="M1275.6897,118.0339 C1270.4814,118.0339 1270.4814,143.0013 1270.4814,143.0013 C1270.4814,167.9688 1275.6897,167.9688 1275.6897,167.9688" fill="none" style="stroke:#2FA4E7;stroke-width:1.0417;"/><text fill="#000000" font-family="'Verdana'" font-size="12.5" lengthAdjust="spacing" textLength="26.4282" x="1162.3138" y="140.0533">DLQ</text><text fill="#000000" font-family="'Verdana'" font-size="12.5" lengthAdjust="spacing" textLength="169.0735" x="1090.9912" y="154.6041">(product-image-queue-dlq)</text></g><g class="participant participant-tail" data-participant="DLQ"><path d="M1085.7829,2409.668 L1275.6897,2409.668 C1280.898,2409.668 1280.898,2434.6354 1280.898,2434.6354 C1280.898,2434.6354 1280.898,2459.6029 1275.6897,2459.6029 L1085.7829,2459.6029 C1080.5745,2459.6029 1080.5745,2434.6354 1080.5745,2434.6354 C1080.5745,2434.6354 1080.5745,2409.668 1085.7829,2409.668" fill="#FF0000" style="stroke:#2FA4E7;stroke-width:1.0417;"/><path d="M1275.6897,2409.668 C1270.4814,2409.668 1270.4814,2434.6354 1270.4814,2434.6354 C1270.4814,2459.6029 1275.6897,2459.6029 1275.6897,2459.6029" fill="none" style="stroke:#2FA4E7;stroke-width:1.0417;"/><text fill="#000000" font-family="'Verdana'" font-size="12.5" lengthAdjust="spacing" textLength="26.4282" x="1162.3138" y="2431.6874">DLQ</text><text fill="#000000" font-family="'Verdana'" font-size="12.5" lengthAdjust="spacing" textLength="169.0735" x="1090.9912" y="2446.2382">(product-image-queue-dlq)</text></g><g class="participant participant-head" data-participant="CW"><rect fill="#800080" height="54.1016" rx="4.1667" ry="4.1667" style="stroke:#2FA4E7;stroke-width:1.0417;" width="100.4211" x="1374.8474" y="112.8255"/><text fill="#000000" font-family="'Verdana'" font-size="12.5" lengthAdjust="spacing" textLength="75.4211" x="1387.3474" y="136.9283">CloudWatch</text><text fill="#000000" font-family="'Verdana'" font-size="12.5" lengthAdjust="spacing" textLength="29.0588" x="1410.5286" y="151.4791">Logs</text></g><g class="participant participant-tail" data-participant="CW"><rect fill="#800080" height="54.1016" rx="4.1667" ry="4.1667" style="stroke:#2FA4E7;stroke-width:1.0417;" width="100.4211" x="1374.8474" y="2409.668"/><text fill="#000000" font-family="'Verdana'" font-size="12.5" lengthAdjust="spacing" textLength="75.4211" x="1387.3474" y="2433.7708">CloudWatch</text><text fill="#000000" font-family="'Verdana'" font-size="12.5" lengthAdjust="spacing" textLength="29.0588" x="1410.5286" y="2448.3215">Logs</text></g><g><title>S3</title><rect fill="none" height="39.5508" style="stroke:#2683B9;stroke-width:1.0417;" width="10.4167" x="231.3538" y="303.2878"/></g><g><title>S3</title><rect fill="none" height="39.5508" style="stroke:#2683B9;stroke-width:1.0417;" width="10.4167" x="231.3538" y="911.0677"/></g><g><title>S3</title><rect fill="none" height="39.5508" style="stroke:#2683B9;stroke-width:1.0417;" width="10.4167" x="231.3538" y="1400.293"/></g><g><title>Lambda</title><rect fill="none" height="311.1979" style="stroke:#2683B9;stroke-width:1.0417;" width="10.4167" x="677.4241" y="263.737"/></g><g><title>Lambda</title><rect fill="none" height="296.6471" style="stroke:#2683B9;stroke-width:1.0417;" width="10.4167" x="677.4241" y="871.5169"/></g><g><title>Lambda</title><rect fill="none" height="296.6471" style="stroke:#2683B9;stroke-width:1.0417;" width="10.4167" x="677.4241" y="1360.7422"/></g><g><title>DLQ</title><rect fill="none" height="178.9063" style="stroke:#2683B9;stroke-width:1.0417;" width="10.4167" x="1175.528" y="1864.5182"/></g><g><title>CloudWatch</title><rect fill="none" height="39.5508" style="stroke:#2683B9;stroke-width:1.0417;" width="10.4167" x="1419.8497" y="495.8333"/></g><g><title>CloudWatch</title><rect fill="none" height="39.5508" style="stroke:#2683B9;stroke-width:1.0417;" width="10.4167" x="1419.8497" y="1089.0625"/></g><g><title>CloudWatch</title><rect fill="none" height="39.5508" style="stroke:#2683B9;stroke-width:1.0417;" width="10.4167" x="1419.8497" y="1578.2878"/></g><g><title>CloudWatch</title><rect fill="none" height="114.4531" style="stroke:#2683B9;stroke-width:1.0417;" width="10.4167" x="1419.8497" y="2144.401"/></g><rect fill="#F8F9FA" height="3.125" rx="4.1667" ry="4.1667" style="stroke:#F8F9FA;stroke-width:1.0417;" width="1535.8256" x="10.4167" y="204.4108"/><line style="stroke:#868E96;stroke-width:1.0417;" x1="10.4167" x2="1546.2423" y1="204.4108" y2="204.4108"/><line style="stroke:#868E96;stroke-width:1.0417;" x1="10.4167" x2="1546.2423" y1="207.5358" y2="207.5358"/><rect fill="#F8F9FA" height="33.3008" rx="4.1667" ry="4.1667" style="stroke:#868E96;stroke-width:2.0833;" width="233.0261" x="661.8164" y="188.8021"/><text fill="#343A40" font-family="'Verdana'" font-size="12.5" font-weight="bold" lengthAdjust="spacing" textLength="203.6743" x="673.2747" y="209.7799">1. Primeira Tentativa (Falha)</text><g class="message" data-participant-1="SQS" data-participant-2="Lambda"><polygon fill="#2FA4E7" points="664.9241,259.5703,675.3408,263.737,664.9241,267.9036,669.0908,263.737" style="stroke:#2FA4E7;stroke-width:1.0417;"/><line style="stroke:#2FA4E7;stroke-width:3.125;" x1="454.481" x2="671.1741" y1="263.737" y2="263.737"/><text fill="#343A40" font-family="'Verdana'" font-size="12.5" lengthAdjust="spacing" textLength="190.1917" x="470.8567" y="253.4973">Poll mensagem (tentativa 1/3)</text></g><g class="message" data-participant-1="Lambda" data-participant-2="S3Input"><polygon fill="#2FA4E7" points="253.2288,299.1211,242.8121,303.2878,253.2288,307.4544,249.0621,303.2878" style="stroke:#2FA4E7;stroke-width:1.0417;"/><line style="stroke:#2FA4E7;stroke-width:3.125;" x1="246.9788" x2="676.3824" y1="303.2878" y2="303.2878"/><text fill="#343A40" font-family="'Verdana'" font-size="12.5" lengthAdjust="spacing" textLength="196.7896" x="361.2025" y="293.0481">GetObject(foto-corrompida.jpg)</text></g><g class="message" data-participant-1="S3Input" data-participant-2="Lambda"><polygon fill="#2FA4E7" points="664.9241,338.6719,675.3408,342.8385,664.9241,347.0052,669.0908,342.8385" style="stroke:#2FA4E7;stroke-width:1.0417;"/><line style="stroke:#2FA4E7;stroke-width:3.125;stroke-dasharray:2.0833,2.0833;" x1="236.5621" x2="671.1741" y1="342.8385" y2="342.8385"/><text fill="#343A40" font-family="'Verdana'" font-size="12.5" lengthAdjust="spacing" textLength="104.7302" x="404.628" y="332.5989">Retorna imagem</text></g><g class="message" data-participant-1="Lambda" data-participant-2="Lambda"><line style="stroke:#2FA4E7;stroke-width:3.125;" x1="687.8408" x2="731.5908" y1="382.3893" y2="382.3893"/><line style="stroke:#2FA4E7;stroke-width:3.125;" x1="731.5908" x2="731.5908" y1="382.3893" y2="395.931"/><line style="stroke:#2FA4E7;stroke-width:3.125;" x1="688.8824" x2="731.5908" y1="395.931" y2="395.931"/><polygon fill="#2FA4E7" points="699.2991,391.7643,688.8824,395.931,699.2991,400.0977,695.1324,395.931" style="stroke:#2FA4E7;stroke-width:1.0417;"/><text fill="#343A40" font-family="'Verdana'" font-size="12.5" lengthAdjust="spacing" textLength="169.104" x="700.3408" y="372.1497">Tentar decodificar imagem</text></g><path d="M692.7083,413.6393 L692.7083,454.2643 A4.1667,4.1667 0 0 0 696.875,458.431 L881.25,458.431 A4.1667,4.1667 0 0 0 885.4167,454.2643 L885.4167,419.8893 L875,409.4727 L696.875,409.4727 A4.1667,4.1667 0 0 0 692.7083,413.6393" fill="#FFC0CB" style="stroke:#033C73;stroke-width:1.0417;"/><path d="M875,409.4727 L875,417.806 A2.0833,2.0833 0 0 0 877.0833,419.8893 L885.4167,419.8893 L875,409.4727" fill="#FFC0CB" style="stroke:#033C73;stroke-width:1.0417;"/><text fill="#033C73" font-family="'Verdana'" font-size="12.5" lengthAdjust="spacing" textLength="160.7178" x="704.1667" y="431.4921">Erro: imagem corrompida</text><text fill="#033C73" font-family="'Verdana'" font-size="12.5" lengthAdjust="spacing" textLength="135.2112" x="704.1667" y="446.0429">image.Decode() falha</text><g class="message" data-participant-1="Lambda" data-participant-2="CW"><polygon fill="#2FA4E7" points="1407.3497,491.6667,1417.7663,495.8333,1407.3497,500,1411.5163,495.8333" style="stroke:#2FA4E7;stroke-width:1.0417;"/><line style="stroke:#2FA4E7;stroke-width:3.125;" x1="687.8408" x2="1413.5997" y1="495.8333" y2="495.8333"/><text fill="#343A40" font-family="'Verdana'" font-size="12.5" lengthAdjust="spacing" textLength="195.8313" x="955.9296" y="485.5937">log.Printf("Erro ao decodificar")</text></g><g class="message" data-participant-1="CW" data-participant-2="Lambda"><polygon fill="#2FA4E7" points="699.2991,531.2174,688.8824,535.3841,699.2991,539.5508,695.1324,535.3841" style="stroke:#2FA4E7;stroke-width:1.0417;"/><line style="stroke:#2FA4E7;stroke-width:3.125;stroke-dasharray:2.0833,2.0833;" x1="693.0491" x2="1424.0163" y1="535.3841" y2="535.3841"/><text fill="#343A40" font-family="'Verdana'" font-size="12.5" lengthAdjust="spacing" textLength="18.0359" x="1047.4314" y="525.1444">OK</text></g><g class="message" data-participant-1="Lambda" data-participant-2="SQS"><polygon fill="#2FA4E7" points="465.9393,570.7682,455.5227,574.9349,465.9393,579.1016,461.7727,574.9349" style="stroke:#2FA4E7;stroke-width:1.0417;"/><line style="stroke:#2FA4E7;stroke-width:3.125;stroke-dasharray:2.0833,2.0833;" x1="459.6893" x2="681.5908" y1="574.9349" y2="574.9349"/><text fill="#343A40" font-family="'Verdana'" font-size="12.5" lengthAdjust="spacing" textLength="73.4436" x="531.8349" y="564.6952">return error</text></g><path d="M459.375,592.6432 L459.375,662.4349 A4.1667,4.1667 0 0 0 463.5417,666.6016 L712.5,666.6016 A4.1667,4.1667 0 0 0 716.6667,662.4349 L716.6667,598.8932 L706.25,588.4766 L463.5417,588.4766 A4.1667,4.1667 0 0 0 459.375,592.6432" fill="none" style="stroke:#033C73;stroke-width:1.0417;"/><path d="M706.25,588.4766 L706.25,596.8099 A2.0833,2.0833 0 0 0 708.3333,598.8932 L716.6667,598.8932 L706.25,588.4766" fill="none" style="stroke:#033C73;stroke-width:1.0417;"/><text fill="#033C73" font-family="'Verdana'" font-size="12.5" lengthAdjust="spacing" textLength="118.1641" x="470.8333" y="610.496">SQS recebe erro e:</text><text fill="#033C73" font-family="'Verdana'" font-size="12.5" lengthAdjust="spacing" textLength="160.6995" x="470.8333" y="625.0468">1. N&#195;O deleta mensagem</text><text fill="#033C73" font-family="'Verdana'" font-size="12.5" lengthAdjust="spacing" textLength="225.6287" x="470.8333" y="639.5976">2. Mensagem fica invis&#237;vel por 5min</text><text fill="#033C73" font-family="'Verdana'" font-size="12.5" lengthAdjust="spacing" textLength="176.7273" x="470.8333" y="654.1484">3. Incrementa receive count</text><g class="message" data-participant-1="SQS" data-participant-2="SQS"><line style="stroke:#2FA4E7;stroke-width:3.125;" x1="454.481" x2="498.231" y1="703.9388" y2="703.9388"/><line style="stroke:#2FA4E7;stroke-width:3.125;" x1="498.231" x2="498.231" y1="703.9388" y2="717.4805"/><line style="stroke:#2FA4E7;stroke-width:3.125;" x1="455.5227" x2="498.231" y1="717.4805" y2="717.4805"/><polygon fill="#2FA4E7" points="465.9393,713.3138,455.5227,717.4805,465.9393,721.6471,461.7727,717.4805" style="stroke:#2FA4E7;stroke-width:1.0417;"/><text fill="#343A40" font-family="'Verdana'" font-size="12.5" lengthAdjust="spacing" textLength="195.4285" x="466.981" y="693.6991">ChangeMessageVisibility(300s)</text></g><rect fill="#F8F9FA" height="3.125" rx="4.1667" ry="4.1667" style="stroke:#F8F9FA;stroke-width:1.0417;" width="1535.8256" x="10.4167" y="751.8392"/><line style="stroke:#868E96;stroke-width:1.0417;" x1="10.4167" x2="1546.2423" y1="751.8392" y2="751.8392"/><line style="stroke:#868E96;stroke-width:1.0417;" x1="10.4167" x2="1546.2423" y1="754.9642" y2="754.9642"/><rect fill="#F8F9FA" height="33.3008" rx="4.1667" ry="4.1667" style="stroke:#868E96;stroke-width:2.0833;" width="234.6375" x="661.0107" y="736.2305"/><text fill="#343A40" font-family="'Verdana'" font-size="12.5" font-weight="bold" lengthAdjust="spacing" textLength="205.2856" x="672.4691" y="757.2083">2. Segunda Tentativa (Falha)</text><path d="M341.6667,789.3229 L341.6667,829.9479 A4.1667,4.1667 0 0 0 345.8333,834.1146 L560.4167,834.1146 A4.1667,4.1667 0 0 0 564.5833,829.9479 L564.5833,795.5729 L554.1667,785.1563 L345.8333,785.1563 A4.1667,4.1667 0 0 0 341.6667,789.3229" fill="none" style="stroke:#033C73;stroke-width:1.0417;"/><path d="M554.1667,785.1563 L554.1667,793.4896 A2.0833,2.0833 0 0 0 556.25,795.5729 L564.5833,795.5729 L554.1667,785.1563" fill="none" style="stroke:#033C73;stroke-width:1.0417;"/><text fill="#033C73" font-family="'Verdana'" font-size="12.5" lengthAdjust="spacing" textLength="101.0742" x="353.125" y="807.1757">Ap&#243;s 5 minutos,</text><text fill="#033C73" font-family="'Verdana'" font-size="12.5" lengthAdjust="spacing" textLength="191.3574" x="353.125" y="821.7265">mensagem volta a ficar vis&#237;vel</text><g class="message" data-participant-1="SQS" data-participant-2="Lambda"><polygon fill="#2FA4E7" points="664.9241,867.3503,675.3408,871.5169,664.9241,875.6836,669.0908,871.5169" style="stroke:#2FA4E7;stroke-width:1.0417;"/><line style="stroke:#2FA4E7;stroke-width:3.125;" x1="454.481" x2="671.1741" y1="871.5169" y2="871.5169"/><text fill="#343A40" font-family="'Verdana'" font-size="12.5" lengthAdjust="spacing" textLength="190.1917" x="470.8567" y="861.2773">Poll mensagem (tentativa 2/3)</text></g><g class="message" data-participant-1="Lambda" data-participant-2="S3Input"><polygon fill="#2FA4E7" points="253.2288,906.901,242.8121,911.0677,253.2288,915.2344,249.0621,911.0677" style="stroke:#2FA4E7;stroke-width:1.0417;"/><line style="stroke:#2FA4E7;stroke-width:3.125;" x1="246.9788" x2="676.3824" y1="911.0677" y2="911.0677"/><text fill="#343A40" font-family="'Verdana'" font-size="12.5" lengthAdjust="spacing" textLength="178.3813" x="370.4066" y="900.828">GetObject(foto-corrupta.jpg)</text></g><g class="message" data-participant-1="S3Input" data-participant-2="Lambda"><polygon fill="#2FA4E7" points="664.9241,946.4518,675.3408,950.6185,664.9241,954.7852,669.0908,950.6185" style="stroke:#2FA4E7;stroke-width:1.0417;"/><line style="stroke:#2FA4E7;stroke-width:3.125;stroke-dasharray:2.0833,2.0833;" x1="236.5621" x2="671.1741" y1="950.6185" y2="950.6185"/><text fill="#343A40" font-family="'Verdana'" font-size="12.5" lengthAdjust="spacing" textLength="104.7302" x="404.628" y="940.3788">Retorna imagem</text></g><g class="message" data-participant-1="Lambda" data-participant-2="Lambda"><line style="stroke:#2FA4E7;stroke-width:3.125;" x1="687.8408" x2="731.5908" y1="990.1693" y2="990.1693"/><line style="stroke:#2FA4E7;stroke-width:3.125;" x1="731.5908" x2="731.5908" y1="990.1693" y2="1003.7109"/><line style="stroke:#2FA4E7;stroke-width:3.125;" x1="688.8824" x2="731.5908" y1="1003.7109" y2="1003.7109"/><polygon fill="#2FA4E7" points="699.2991,999.5443,688.8824,1003.7109,699.2991,1007.8776,695.1324,1003.7109" style="stroke:#2FA4E7;stroke-width:1.0417;"/><text fill="#343A40" font-family="'Verdana'" font-size="12.5" lengthAdjust="spacing" textLength="169.104" x="700.3408" y="979.9296">Tentar decodificar imagem</text></g><path d="M692.7083,1021.4193 L692.7083,1047.4609 A4.1667,4.1667 0 0 0 696.875,1051.6276 L794.7917,1051.6276 A4.1667,4.1667 0 0 0 798.9583,1047.4609 L798.9583,1027.6693 L788.5417,1017.2526 L696.875,1017.2526 A4.1667,4.1667 0 0 0 692.7083,1021.4193" fill="#FFC0CB" style="stroke:#033C73;stroke-width:1.0417;"/><path d="M788.5417,1017.2526 L788.5417,1025.5859 A2.0833,2.0833 0 0 0 790.625,1027.6693 L798.9583,1027.6693 L788.5417,1017.2526" fill="#FFC0CB" style="stroke:#033C73;stroke-width:1.0417;"/><text fill="#033C73" font-family="'Verdana'" font-size="12.5" lengthAdjust="spacing" textLength="74.4019" x="704.1667" y="1039.2721">Mesmo erro</text><g class="message" data-participant-1="Lambda" data-participant-2="CW"><polygon fill="#2FA4E7" points="1407.3497,1084.8958,1417.7663,1089.0625,1407.3497,1093.2292,1411.5163,1089.0625" style="stroke:#2FA4E7;stroke-width:1.0417;"/><line style="stroke:#2FA4E7;stroke-width:3.125;" x1="687.8408" x2="1413.5997" y1="1089.0625" y2="1089.0625"/><text fill="#343A40" font-family="'Verdana'" font-size="12.5" lengthAdjust="spacing" textLength="195.8313" x="955.9296" y="1078.8228">log.Printf("Erro ao decodificar")</text></g><g class="message" data-participant-1="CW" data-participant-2="Lambda"><polygon fill="#2FA4E7" points="699.2991,1124.4466,688.8824,1128.6133,699.2991,1132.7799,695.1324,1128.6133" style="stroke:#2FA4E7;stroke-width:1.0417;"/><line style="stroke:#2FA4E7;stroke-width:3.125;stroke-dasharray:2.0833,2.0833;" x1="693.0491" x2="1424.0163" y1="1128.6133" y2="1128.6133"/><text fill="#343A40" font-family="'Verdana'" font-size="12.5" lengthAdjust="spacing" textLength="18.0359" x="1047.4314" y="1118.3736">OK</text></g><g class="message" data-participant-1="Lambda" data-participant-2="SQS"><polygon fill="#2FA4E7" points="465.9393,1163.9974,455.5227,1168.1641,465.9393,1172.3307,461.7727,1168.1641" style="stroke:#2FA4E7;stroke-width:1.0417;"/><line style="stroke:#2FA4E7;stroke-width:3.125;stroke-dasharray:2.0833,2.0833;" x1="459.6893" x2="681.5908" y1="1168.1641" y2="1168.1641"/><text fill="#343A40" font-family="'Verdana'" font-size="12.5" lengthAdjust="spacing" textLength="73.4436" x="531.8349" y="1157.9244">return error</text></g><g class="message" data-participant-1="SQS" data-participant-2="SQS"><line style="stroke:#2FA4E7;stroke-width:3.125;" x1="454.481" x2="498.231" y1="1207.7148" y2="1207.7148"/><line style="stroke:#2FA4E7;stroke-width:3.125;" x1="498.231" x2="498.231" y1="1207.7148" y2="1221.2565"/><line style="stroke:#2FA4E7;stroke-width:3.125;" x1="455.5227" x2="498.231" y1="1221.2565" y2="1221.2565"/><polygon fill="#2FA4E7" points="465.9393,1217.0898,455.5227,1221.2565,465.9393,1225.4232,461.7727,1221.2565" style="stroke:#2FA4E7;stroke-width:1.0417;"/><text fill="#343A40" font-family="'Verdana'" font-size="12.5" lengthAdjust="spacing" textLength="115.1123" x="466.981" y="1197.4752">Receive count = 2</text></g><rect fill="#F8F9FA" height="3.125" rx="4.1667" ry="4.1667" style="stroke:#F8F9FA;stroke-width:1.0417;" width="1535.8256" x="10.4167" y="1255.6152"/><line style="stroke:#868E96;stroke-width:1.0417;" x1="10.4167" x2="1546.2423" y1="1255.6152" y2="1255.6152"/><line style="stroke:#868E96;stroke-width:1.0417;" x1="10.4167" x2="1546.2423" y1="1258.7402" y2="1258.7402"/><rect fill="#F8F9FA" height="33.3008" rx="4.1667" ry="4.1667" style="stroke:#868E96;stroke-width:2.0833;" width="230.9692" x="662.8448" y="1240.0065"/><text fill="#343A40" font-family="'Verdana'" font-size="12.5" font-weight="bold" lengthAdjust="spacing" textLength="201.6174" x="674.3032" y="1260.9843">3. Terceira Tentativa (Falha)</text><path d="M342.7083,1293.099 L342.7083,1319.1406 A4.1667,4.1667 0 0 0 346.875,1323.3073 L560.4167,1323.3073 A4.1667,4.1667 0 0 0 564.5833,1319.1406 L564.5833,1299.349 L554.1667,1288.9323 L346.875,1288.9323 A4.1667,4.1667 0 0 0 342.7083,1293.099" fill="#FFFF00" style="stroke:#033C73;stroke-width:1.0417;"/><path d="M554.1667,1288.9323 L554.1667,1297.2656 A2.0833,2.0833 0 0 0 556.25,1299.349 L564.5833,1299.349 L554.1667,1288.9323" fill="#FFFF00" style="stroke:#033C73;stroke-width:1.0417;"/><text fill="#033C73" font-family="'Verdana'" font-size="12.5" lengthAdjust="spacing" textLength="189.9414" x="354.1667" y="1310.9517">&#218;ltima tentativa antes da DLQ</text><g class="message" data-participant-1="SQS" data-participant-2="Lambda"><polygon fill="#2FA4E7" points="664.9241,1356.5755,675.3408,1360.7422,664.9241,1364.9089,669.0908,1360.7422" style="stroke:#2FA4E7;stroke-width:1.0417;"/><line style="stroke:#2FA4E7;stroke-width:3.125;" x1="454.481" x2="671.1741" y1="1360.7422" y2="1360.7422"/><text fill="#343A40" font-family="'Verdana'" font-size="12.5" lengthAdjust="spacing" textLength="190.1917" x="470.8567" y="1350.5025">Poll mensagem (tentativa 3/3)</text></g><g class="message" data-participant-1="Lambda" data-participant-2="S3Input"><polygon fill="#2FA4E7" points="253.2288,1396.1263,242.8121,1400.293,253.2288,1404.4596,249.0621,1400.293" style="stroke:#2FA4E7;stroke-width:1.0417;"/><line style="stroke:#2FA4E7;stroke-width:3.125;" x1="246.9788" x2="676.3824" y1="1400.293" y2="1400.293"/><text fill="#343A40" font-family="'Verdana'" font-size="12.5" lengthAdjust="spacing" textLength="178.3813" x="370.4066" y="1390.0533">GetObject(foto-corrupta.jpg)</text></g><g class="message" data-participant-1="S3Input" data-participant-2="Lambda"><polygon fill="#2FA4E7" points="664.9241,1435.6771,675.3408,1439.8438,664.9241,1444.0104,669.0908,1439.8438" style="stroke:#2FA4E7;stroke-width:1.0417;"/><line style="stroke:#2FA4E7;stroke-width:3.125;stroke-dasharray:2.0833,2.0833;" x1="236.5621" x2="671.1741" y1="1439.8438" y2="1439.8438"/><text fill="#343A40" font-family="'Verdana'" font-size="12.5" lengthAdjust="spacing" textLength="104.7302" x="404.628" y="1429.6041">Retorna imagem</text></g><g class="message" data-participant-1="Lambda" data-participant-2="Lambda"><line style="stroke:#2FA4E7;stroke-width:3.125;" x1="687.8408" x2="731.5908" y1="1479.3945" y2="1479.3945"/><line style="stroke:#2FA4E7;stroke-width:3.125;" x1="731.5908" x2="731.5908" y1="1479.3945" y2="1492.9362"/><line style="stroke:#2FA4E7;stroke-width:3.125;" x1="688.8824" x2="731.5908" y1="1492.9362" y2="1492.9362"/><polygon fill="#2FA4E7" points="699.2991,1488.7695,688.8824,1492.9362,699.2991,1497.1029,695.1324,1492.9362" style="stroke:#2FA4E7;stroke-width:1.0417;"/><text fill="#343A40" font-family="'Verdana'" font-size="12.5" lengthAdjust="spacing" textLength="169.104" x="700.3408" y="1469.1549">Tentar decodificar imagem</text></g><path d="M692.7083,1510.6445 L692.7083,1536.6862 A4.1667,4.1667 0 0 0 696.875,1540.8529 L829.1667,1540.8529 A4.1667,4.1667 0 0 0 833.3333,1536.6862 L833.3333,1516.8945 L822.9167,1506.4779 L696.875,1506.4779 A4.1667,4.1667 0 0 0 692.7083,1510.6445" fill="#FFC0CB" style="stroke:#033C73;stroke-width:1.0417;"/><path d="M822.9167,1506.4779 L822.9167,1514.8112 A2.0833,2.0833 0 0 0 825,1516.8945 L833.3333,1516.8945 L822.9167,1506.4779" fill="#FFC0CB" style="stroke:#033C73;stroke-width:1.0417;"/><text fill="#033C73" font-family="'Verdana'" font-size="12.5" lengthAdjust="spacing" textLength="108.8867" x="704.1667" y="1528.4973">Falha novamente</text><g class="message" data-participant-1="Lambda" data-participant-2="CW"><polygon fill="#2FA4E7" points="1407.3497,1574.1211,1417.7663,1578.2878,1407.3497,1582.4544,1411.5163,1578.2878" style="stroke:#2FA4E7;stroke-width:1.0417;"/><line style="stroke:#2FA4E7;stroke-width:3.125;" x1="687.8408" x2="1413.5997" y1="1578.2878" y2="1578.2878"/><text fill="#343A40" font-family="'Verdana'" font-size="12.5" lengthAdjust="spacing" textLength="195.8313" x="955.9296" y="1568.0481">log.Printf("Erro ao decodificar")</text></g><g class="message" data-participant-1="CW" data-participant-2="Lambda"><polygon fill="#2FA4E7" points="699.2991,1613.6719,688.8824,1617.8385,699.2991,1622.0052,695.1324,1617.8385" style="stroke:#2FA4E7;stroke-width:1.0417;"/><line style="stroke:#2FA4E7;stroke-width:3.125;stroke-dasharray:2.0833,2.0833;" x1="693.0491" x2="1424.0163" y1="1617.8385" y2="1617.8385"/><text fill="#343A40" font-family="'Verdana'" font-size="12.5" lengthAdjust="spacing" textLength="18.0359" x="1047.4314" y="1607.5989">OK</text></g><g class="message" data-participant-1="Lambda" data-participant-2="SQS"><polygon fill="#2FA4E7" points="465.9393,1653.2227,455.5227,1657.3893,465.9393,1661.556,461.7727,1657.3893" style="stroke:#2FA4E7;stroke-width:1.0417;"/><line style="stroke:#2FA4E7;stroke-width:3.125;stroke-dasharray:2.0833,2.0833;" x1="459.6893" x2="681.5908" y1="1657.3893" y2="1657.3893"/><text fill="#343A40" font-family="'Verdana'" font-size="12.5" lengthAdjust="spacing" textLength="73.4436" x="531.8349" y="1647.1497">return error</text></g><g class="message" data-participant-1="SQS" data-participant-2="SQS"><line style="stroke:#2FA4E7;stroke-width:3.125;" x1="454.481" x2="498.231" y1="1696.9401" y2="1696.9401"/><line style="stroke:#2FA4E7;stroke-width:3.125;" x1="498.231" x2="498.231" y1="1696.9401" y2="1710.4818"/><line style="stroke:#2FA4E7;stroke-width:3.125;" x1="455.5227" x2="498.231" y1="1710.4818" y2="1710.4818"/><polygon fill="#2FA4E7" points="465.9393,1706.3151,455.5227,1710.4818,465.9393,1714.6484,461.7727,1710.4818" style="stroke:#2FA4E7;stroke-width:1.0417;"/><text fill="#343A40" font-family="'Verdana'" font-size="12.5" lengthAdjust="spacing" textLength="179.3701" x="466.981" y="1686.7004">Receive count = 3 (m&#225;ximo)</text></g><rect fill="#F8F9FA" height="3.125" rx="4.1667" ry="4.1667" style="stroke:#F8F9FA;stroke-width:1.0417;" width="1535.8256" x="10.4167" y="1744.8405"/><line style="stroke:#868E96;stroke-width:1.0417;" x1="10.4167" x2="1546.2423" y1="1744.8405" y2="1744.8405"/><line style="stroke:#868E96;stroke-width:1.0417;" x1="10.4167" x2="1546.2423" y1="1747.9655" y2="1747.9655"/><rect fill="#F8F9FA" height="33.3008" rx="4.1667" ry="4.1667" style="stroke:#868E96;stroke-width:2.0833;" width="259.6497" x="648.5046" y="1729.2318"/><text fill="#343A40" font-family="'Verdana'" font-size="12.5" font-weight="bold" lengthAdjust="spacing" textLength="230.2979" x="659.963" y="1750.2096">4. Envio para Dead Letter Queue</text><path d="M459.375,1782.3242 L459.375,1822.9492 A4.1667,4.1667 0 0 0 463.5417,1827.1159 L660.4167,1827.1159 A4.1667,4.1667 0 0 0 664.5833,1822.9492 L664.5833,1788.5742 L654.1667,1778.1576 L463.5417,1778.1576 A4.1667,4.1667 0 0 0 459.375,1782.3242" fill="#FF0000" style="stroke:#033C73;stroke-width:1.0417;"/><path d="M654.1667,1778.1576 L654.1667,1786.4909 A2.0833,2.0833 0 0 0 656.25,1788.5742 L664.5833,1788.5742 L654.1667,1778.1576" fill="#FF0000" style="stroke:#033C73;stroke-width:1.0417;"/><text fill="#033C73" font-family="'Verdana'" font-size="12.5" lengthAdjust="spacing" textLength="173.7854" x="470.8333" y="1800.177">maxReceiveCount atingido!</text><text fill="#033C73" font-family="'Verdana'" font-size="12.5" lengthAdjust="spacing" textLength="153.6438" x="470.8333" y="1814.7278">Mensagem vai para DLQ</text><g class="message" data-participant-1="SQS" data-participant-2="DLQ"><polygon fill="#2FA4E7" points="1163.028,1860.3516,1173.4446,1864.5182,1163.028,1868.6849,1167.1946,1864.5182" style="stroke:#2FA4E7;stroke-width:1.0417;"/><line style="stroke:#2FA4E7;stroke-width:3.125;" x1="454.481" x2="1169.278" y1="1864.5182" y2="1864.5182"/><text fill="#343A40" font-family="'Verdana'" font-size="12.5" lengthAdjust="spacing" textLength="216.4795" x="706.7647" y="1854.2786">SendMessage(mensagem original)</text></g><path d="M1190.625,1882.2266 L1190.625,1995.7682 A4.1667,4.1667 0 0 0 1194.7917,1999.9349 L1395.8333,1999.9349 A4.1667,4.1667 0 0 0 1400,1995.7682 L1400,1888.4766 L1389.5833,1878.0599 L1194.7917,1878.0599 A4.1667,4.1667 0 0 0 1190.625,1882.2266" fill="none" style="stroke:#033C73;stroke-width:1.0417;"/><path d="M1389.5833,1878.0599 L1389.5833,1886.3932 A2.0833,2.0833 0 0 0 1391.6667,1888.4766 L1400,1888.4766 L1389.5833,1878.0599" fill="none" style="stroke:#033C73;stroke-width:1.0417;"/><text fill="#033C73" font-family="'Verdana'" font-size="12.5" lengthAdjust="spacing" textLength="144.7083" x="1202.0833" y="1900.0793">Mensagem fica na DLQ</text><text fill="#033C73" font-family="'Verdana'" font-size="12.5" lengthAdjust="spacing" textLength="127.5452" x="1202.0833" y="1914.6301">para an&#225;lise manual</text><text fill="#033C73" font-family="'Verdana'" font-size="12.5" lengthAdjust="spacing" textLength="3.9734" x="1202.0833" y="1929.1809">&#160;</text><text fill="#033C73" font-family="'Verdana'" font-size="12.5" lengthAdjust="spacing" textLength="159.5398" x="1202.0833" y="1943.7317">Desenvolvedores podem:</text><text fill="#033C73" font-family="'Verdana'" font-size="12.5" lengthAdjust="spacing" textLength="146.051" x="1202.0833" y="1958.2825">- Investigar o problema</text><text fill="#033C73" font-family="'Verdana'" font-size="12.5" lengthAdjust="spacing" textLength="110.2417" x="1202.0833" y="1972.8333">- Corrigir imagem</text><text fill="#033C73" font-family="'Verdana'" font-size="12.5" lengthAdjust="spacing" textLength="177.1362" x="1202.0833" y="1987.384">- Reprocessar manualmente</text><g class="message" data-participant-1="SQS" data-participant-2="SQS"><line style="stroke:#2FA4E7;stroke-width:3.125;" x1="454.481" x2="498.231" y1="2037.1745" y2="2037.1745"/><line style="stroke:#2FA4E7;stroke-width:3.125;" x1="498.231" x2="498.231" y1="2037.1745" y2="2050.7161"/><line style="stroke:#2FA4E7;stroke-width:3.125;" x1="455.5227" x2="498.231" y1="2050.7161" y2="2050.7161"/><polygon fill="#2FA4E7" points="465.9393,2046.5495,455.5227,2050.7161,465.9393,2054.8828,461.7727,2050.7161" style="stroke:#2FA4E7;stroke-width:1.0417;"/><text fill="#343A40" font-family="'Verdana'" font-size="12.5" lengthAdjust="spacing" textLength="105.6091" x="466.981" y="2026.9348">DeleteMessage()</text></g><rect fill="#F8F9FA" height="3.125" rx="4.1667" ry="4.1667" style="stroke:#F8F9FA;stroke-width:1.0417;" width="1535.8256" x="10.4167" y="2085.0749"/><line style="stroke:#868E96;stroke-width:1.0417;" x1="10.4167" x2="1546.2423" y1="2085.0749" y2="2085.0749"/><line style="stroke:#868E96;stroke-width:1.0417;" x1="10.4167" x2="1546.2423" y1="2088.1999" y2="2088.1999"/><rect fill="#F8F9FA" height="33.3008" rx="4.1667" ry="4.1667" style="stroke:#868E96;stroke-width:2.0833;" width="167.4133" x="694.6228" y="2069.4661"/><text fill="#343A40" font-family="'Verdana'" font-size="12.5" font-weight="bold" lengthAdjust="spacing" textLength="138.0615" x="706.0811" y="2090.4439">5. Alerta (Opcional)</text><g class="message" data-participant-1="DLQ" data-participant-2="CW"><polygon fill="#2FA4E7" points="1407.3497,2140.2344,1417.7663,2144.401,1407.3497,2148.5677,1411.5163,2144.401" style="stroke:#2FA4E7;stroke-width:1.0417;"/><line style="stroke:#2FA4E7;stroke-width:3.125;" x1="1180.7363" x2="1413.5997" y1="2144.401" y2="2144.401"/><text fill="#343A40" font-family="'Verdana'" font-size="12.5" lengthAdjust="spacing" textLength="208.905" x="1195.8405" y="2134.1614">M&#233;trica: NumberOfMessagesSent</text></g><path d="M1308.3333,2162.1094 L1308.3333,2217.3177 A4.1667,4.1667 0 0 0 1312.5,2221.4844 L1536.4583,2221.4844 A4.1667,4.1667 0 0 0 1540.625,2217.3177 L1540.625,2168.3594 L1530.2083,2157.9427 L1312.5,2157.9427 A4.1667,4.1667 0 0 0 1308.3333,2162.1094" fill="#FFA500" style="stroke:#033C73;stroke-width:1.0417;"/><path d="M1530.2083,2157.9427 L1530.2083,2166.276 A2.0833,2.0833 0 0 0 1532.2917,2168.3594 L1540.625,2168.3594 L1530.2083,2157.9427" fill="#FFA500" style="stroke:#033C73;stroke-width:1.0417;"/><text fill="#033C73" font-family="'Verdana'" font-size="12.5" lengthAdjust="spacing" textLength="151.5747" x="1319.7917" y="2179.9622">CloudWatch Alarm pode</text><text fill="#033C73" font-family="'Verdana'" font-size="12.5" lengthAdjust="spacing" textLength="142.0776" x="1319.7917" y="2194.5129">notificar via SNS/Email</text><text fill="#033C73" font-family="'Verdana'" font-size="12.5" lengthAdjust="spacing" textLength="200.4089" x="1319.7917" y="2209.0637">quando DLQ recebe mensagens</text><g class="message" data-participant-1="CW" data-participant-2="DLQ"><polygon fill="#2FA4E7" points="1192.1946,2254.6875,1181.778,2258.8542,1192.1946,2263.0208,1188.028,2258.8542" style="stroke:#2FA4E7;stroke-width:1.0417;"/><line style="stroke:#2FA4E7;stroke-width:3.125;stroke-dasharray:2.0833,2.0833;" x1="1185.9446" x2="1424.0163" y1="2258.8542" y2="2258.8542"/><text fill="#343A40" font-family="'Verdana'" font-size="12.5" lengthAdjust="spacing" textLength="18.0359" x="1293.8792" y="2248.6145">OK</text></g><path d="M15.625,2276.5625 L15.625,2390.1042 A4.1667,4.1667 0 0 0 19.7917,2394.2708 L1480.2083,2394.2708 A4.1667,4.1667 0 0 0 1484.375,2390.1042 L1484.375,2282.8125 L1473.9583,2272.3958 L19.7917,2272.3958 A4.1667,4.1667 0 0 0 15.625,2276.5625" fill="#FFC0CB" style="stroke:#033C73;stroke-width:1.0417;"/><path d="M1473.9583,2272.3958 L1473.9583,2280.7292 A2.0833,2.0833 0 0 0 1476.0417,2282.8125 L1484.375,2282.8125 L1473.9583,2272.3958" fill="#FFC0CB" style="stroke:#033C73;stroke-width:1.0417;"/><text fill="#033C73" font-family="'Verdana'" font-size="12.5" font-weight="bold" lengthAdjust="spacing" textLength="187.1643" x="608.5358" y="2294.4153">PROCESSAMENTO FALHOU</text><text fill="#033C73" font-family="'Verdana'" font-size="12.5" lengthAdjust="spacing" textLength="3.9734" x="608.5358" y="2308.9661">&#160;</text><text fill="#033C73" font-family="'Verdana'" font-size="12.5" lengthAdjust="spacing" textLength="119.104" x="608.5358" y="2323.5168">A&#231;&#245;es necess&#225;rias:</text><text fill="#033C73" font-family="'Verdana'" font-size="12.5" lengthAdjust="spacing" textLength="196.7773" x="608.5358" y="2338.0676">1. Verificar logs no CloudWatch</text><text fill="#033C73" font-family="'Verdana'" font-size="12.5" lengthAdjust="spacing" textLength="204.1687" x="608.5358" y="2352.6184">2. Investigar mensagens na DLQ</text><text fill="#033C73" font-family="'Verdana'" font-size="12.5" lengthAdjust="spacing" textLength="126.2024" x="608.5358" y="2367.1692">3. Corrigir problema</text><text fill="#033C73" font-family="'Verdana'" font-size="12.5" lengthAdjust="spacing" textLength="273.822" x="608.5358" y="2381.72">4. Reprocessar manualmente se necess&#225;rio</text><!--SRC=[tLTDRo974BtFhwY52rWB-q5yGN8aZEsD5MomiTUAj9Tcfe1UztIpFJsiLwkSyYzoyodA8QSelu0_bjSp0xI_ib5osKH227LNLR-gzxgwUERcd3B5R7F5GhTCxfJK76NNKY-45Ibb_25d7VC9PvcOSK_9cOQzTcm3AylPmkXiRRNFodpiMMi-ahDv66uYukkPDRbE-aOPIrTpwS9z4JkiVew8ZensfSs-WbFqOs25RoTZkH3QVT4My7D-mYfoqYcc8vNV64gO3W6vI-Vix2TYEc2Hq80TKgKp7oMYgCHNkyporQsLfaOYeyiCjGWXrSQTTxeXKrIYjR0cHb6CRKdTBCp7dMEzo1tL1t8sT_iASKkCjV7P67xmIFBOjKh_OgjoF1jJVMY5dl7TumOYdIG2hgFoi6FlUPJhs4bJ7LgQKFsDPTP_0oo4i4OxpDtZS0y6Pu_3RINgG-aD4wgVStBtnBuoUN8bN3n_fmTcbXMc_IkgZtAxK1n5UtlqgaqZArEMLj05v2QSN0fg70ar5qtQsuiYNuxMjrLcNHePfIXbxVMNKiDjV5wzw3GzR_Zjk3AFegeW253nqQKtx8QJznoxnjGuqueDr90kP2BQxnUp84Jb4As9R0Kee1rZjQ2Y6ccKy0EluEIrKv6VXG1ZayYfZF6xyjS6djONdinqG-98wclekLHhQKbRjDWfrje7FXutcZJrHOjO9-JZXGZwLrrIPjP6gRMRDce-90aJGga5cVUl8j0KvZlyFimH-vlWlh9duovQWykj9aPa6zgkYRYR8bo0trDhEUO95tx4NIn24QUhduR0fjY93TNOUTscapNn7ZD9lPJPwhSbArhWkkwcKiEiqwPZ7LiqF9IxY2-Nw7reHYueJYMh0dj_xYzRrTJUoanEf9BkKwFpycNMB6IAeySyGpjxIgL5UcQ95bAcrbkiVizebm0fToPxZgMDQ9T60PYWKWBh51vY-wBaN_yBoUSBzxKA7aIafb34rohcK3pdeS08KYa40n5Ui8t_eg_TKGpLVs25nnJPhtvM3bMYBSreffmHyA7D_WELTFwVAYbAYL8iXR_e_5-KIeSQwUhsHgQcx3BVjEaGBStumKSyd4ksiWdxQFdmehs8cof-lmWFylLC9kPPSQFMhKV8AlXZKi9Y5trE9rKhR6paP72Yr485nV8Hxg7nItIlHsjHBHV72hswLJ9ZeDMvK5Z6vu0prcYAIquC9apqyeHJ_nIqqCYNd3avWoPG5MicYbDHxFIXJc3QQCMldNCrsS2yFE2-D48s3lm3i-xwZMP8Nf4R2DbjKq-nHRTk31SnfYnKe6313poLlavMlpgBJBjqcgSJjiDf5J939TqTSGLttez1rOn7j1sKS9omQL41hCDShXy9GUFJyOl3L4XVjG-vq8afvgxg0QseqbcGRINcWjQ7Ijw2yPFjyt8oA-_MpixeVDW_78zx9uUd5qCwwWs-6rxkx9HyzLQ_hFu0JvfzhVs0BBBgvNxBjaACQmSB4-HMlk01enl8Mv6WRMw83UZ6nNY2M_nn2N043yQV]--></g></svg>