<svg xmlns="http://www.w3.org/2000/svg" xmlns:xlink="http://www.w3.org/1999/xlink" contentStyleType="text/css" data-diagram-type="SEQUENCE" height="2191.6667px" preserveAspectRatio="none" style="width:1492px;height:2191px;background:#FFFFFF;" version="1.1" viewBox="0 0 1492 2191" width="1492.7083px" zoomAndPan="magnify"><title>Fluxo Completo: Processamento de Imagens (S3 + SQS + Lambda)</title><defs/><g><rect fill="none" height="47.168" rx="4.1667" ry="4.1667" style="stroke:#BABDBF;stroke-width:1.0417;" width="805.3162" x="342.1682" y="20.8333"/><text fill="#2FA4E7" font-family="'Verdana'" font-size="20.8333" font-weight="bold" lengthAdjust="spacing" textLength="782.3995" x="353.6265" y="51.6296">Fluxo Completo: Processamento de Imagens (S3 + SQS + Lambda)</text><g><title>S3</title><rect fill="none" height="99.9023" style="stroke:#2683B9;stroke-width:1.0417;" width="10.4167" x="231.3538" y="278.2878"/></g><g><title>S3</title><rect fill="none" height="39.5508" style="stroke:#2683B9;stroke-width:1.0417;" width="10.4167" x="231.3538" y="985.9049"/></g><g><title>SQS</title><rect fill="none" height="143.5547" style="stroke:#2683B9;stroke-width:1.0417;" width="10.4167" x="449.2727" y="486.4258"/></g><g><title>Lambda</title><rect fill="none" height="1119.8568" style="stroke:#2683B9;stroke-width:1.0417;" width="10.4167" x="677.4241" y="738.2161"/></g><g><title>S3</title><rect fill="none" height="39.5508" style="stroke:#2683B9;stroke-width:1.0417;" width="10.4167" x="941.1448" y="1408.431"/></g><g><title>S3</title><rect fill="none" height="39.5508" style="stroke:#2683B9;stroke-width:1.0417;" width="10.4167" x="941.1448" y="1566.6341"/></g><g><title>CloudWatch</title><rect fill="none" height="39.5508" style="stroke:#2683B9;stroke-width:1.0417;" width="10.4167" x="1377.9836" y="852.6693"/></g><g><title>CloudWatch</title><rect fill="none" height="39.5508" style="stroke:#2683B9;stroke-width:1.0417;" width="10.4167" x="1377.9836" y="1065.0065"/></g><g><title>CloudWatch</title><rect fill="none" height="39.5508" style="stroke:#2683B9;stroke-width:1.0417;" width="10.4167" x="1377.9836" y="1487.5326"/></g><g><title>CloudWatch</title><rect fill="none" height="39.5508" style="stroke:#2683B9;stroke-width:1.0417;" width="10.4167" x="1377.9836" y="1645.7357"/></g><g><title>CloudWatch</title><rect fill="none" height="39.5508" style="stroke:#2683B9;stroke-width:1.0417;" width="10.4167" x="1377.9836" y="1724.8372"/></g><g><title>Usu.rio</title><rect fill="#000000" fill-opacity="0.00000" height="1926.3021" width="8.3333" x="70.6268" y="167.9688"/><line style="stroke:#BABDBF;stroke-width:1.0417;stroke-dasharray:5.2083,5.2083;" x1="73.9583" x2="73.9583" y1="167.9688" y2="2094.2708"/></g><g><title>S3</title><rect fill="#000000" fill-opacity="0.00000" height="1926.3021" width="8.3333" x="232.3954" y="167.9688"/><line style="stroke:#BABDBF;stroke-width:1.0417;stroke-dasharray:5.2083,5.2083;" x1="236.0453" x2="236.0453" y1="167.9688" y2="2094.2708"/></g><g><title>SQS</title><rect fill="#000000" fill-opacity="0.00000" height="1926.3021" width="8.3333" x="450.3143" y="167.9688"/><line style="stroke:#BABDBF;stroke-width:1.0417;stroke-dasharray:5.2083,5.2083;" x1="453.7455" x2="453.7455" y1="167.9688" y2="2094.2708"/></g><g><title>Lambda</title><rect fill="#000000" fill-opacity="0.00000" height="1926.3021" width="8.3333" x="678.4658" y="167.9688"/><line style="stroke:#BABDBF;stroke-width:1.0417;stroke-dasharray:5.2083,5.2083;" x1="682.2998" x2="682.2998" y1="167.9688" y2="2094.2708"/></g><g><title>S3</title><rect fill="#000000" fill-opacity="0.00000" height="1926.3021" width="8.3333" x="942.1865" y="167.9688"/><line style="stroke:#BABDBF;stroke-width:1.0417;stroke-dasharray:5.2083,5.2083;" x1="945.4651" x2="945.4651" y1="167.9688" y2="2094.2708"/></g><g><title>DLQ</title><rect fill="#000000" fill-opacity="0.00000" height="1926.3021" width="8.3333" x="1176.5696" y="167.9688"/><line style="stroke:#BABDBF;stroke-width:1.0417;stroke-dasharray:5.2083,5.2083;" x1="1180.5745" x2="1180.5745" y1="167.9688" y2="2094.2708"/></g><g><title>CloudWatch</title><rect fill="#000000" fill-opacity="0.00000" height="1926.3021" width="8.3333" x="1379.0253" y="167.9688"/><line style="stroke:#BABDBF;stroke-width:1.0417;stroke-dasharray:5.2083,5.2083;" x1="1382.9814" x2="1382.9814" y1="167.9688" y2="2094.2708"/></g><g class="participant participant-head" data-participant="User"><text fill="#000000" font-family="'Verdana'" font-size="12.5" lengthAdjust="spacing" textLength="47.5037" x="47.9167" y="159.8124">Usu&#225;rio</text><ellipse cx="74.7935" cy="88.8346" fill="none" rx="8.3333" ry="8.3333" style="stroke:#2FA4E7;stroke-width:1.0417;"/><path d="M74.7935,97.168 L74.7935,125.293 M61.2518,105.5013 L88.3352,105.5013 M74.7935,125.293 L61.2518,140.918 M74.7935,125.293 L88.3352,140.918" fill="none" style="stroke:#2FA4E7;stroke-width:1.0417;"/></g><g class="participant participant-tail" data-participant="User"><text fill="#000000" font-family="'Verdana'" font-size="12.5" lengthAdjust="spacing" textLength="47.5037" x="47.9167" y="2110.0403">Usu&#225;rio</text><ellipse cx="74.7935" cy="2127.5716" fill="none" rx="8.3333" ry="8.3333" style="stroke:#2FA4E7;stroke-width:1.0417;"/><path d="M74.7935,2135.9049 L74.7935,2164.0299 M61.2518,2144.2383 L88.3352,2144.2383 M74.7935,2164.0299 L61.2518,2179.6549 M74.7935,2164.0299 L88.3352,2179.6549" fill="none" style="stroke:#2FA4E7;stroke-width:1.0417;"/></g><g class="participant participant-head" data-participant="S3Input"><rect fill="#ADD8E6" height="54.1016" rx="4.1667" ry="4.1667" style="stroke:#2FA4E7;stroke-width:1.0417;" width="155.2002" x="158.962" y="112.8255"/><text fill="#000000" font-family="'Verdana'" font-size="12.5" lengthAdjust="spacing" textLength="15.8875" x="228.6184" y="136.9283">S3</text><text fill="#000000" font-family="'Verdana'" font-size="12.5" lengthAdjust="spacing" textLength="130.2002" x="171.462" y="151.4791">(image-processor-in)</text></g><g class="participant participant-tail" data-participant="S3Input"><rect fill="#ADD8E6" height="54.1016" rx="4.1667" ry="4.1667" style="stroke:#2FA4E7;stroke-width:1.0417;" width="155.2002" x="158.962" y="2093.2292"/><text fill="#000000" font-family="'Verdana'" font-size="12.5" lengthAdjust="spacing" textLength="15.8875" x="228.6184" y="2117.3319">S3</text><text fill="#000000" font-family="'Verdana'" font-size="12.5" lengthAdjust="spacing" textLength="130.2002" x="171.462" y="2131.8827">(image-processor-in)</text></g><g class="participant participant-head" data-participant="SQS"><path d="M371.4539,118.0339 L537.5081,118.0339 C542.7165,118.0339 542.7165,143.0013 542.7165,143.0013 C542.7165,143.0013 542.7165,167.9688 537.5081,167.9688 L371.4539,167.9688 C366.2455,167.9688 366.2455,143.0013 366.2455,143.0013 C366.2455,143.0013 366.2455,118.0339 371.4539,118.0339" fill="#FFA500" style="stroke:#2FA4E7;stroke-width:1.0417;"/><path d="M537.5081,118.0339 C532.2998,118.0339 532.2998,143.0013 532.2998,143.0013 C532.2998,167.9688 537.5081,167.9688 537.5081,167.9688" fill="none" style="stroke:#2FA4E7;stroke-width:1.0417;"/><text fill="#000000" font-family="'Verdana'" font-size="12.5" lengthAdjust="spacing" textLength="25.708" x="436.4187" y="140.0533">SQS</text><text fill="#000000" font-family="'Verdana'" font-size="12.5" lengthAdjust="spacing" textLength="145.2209" x="376.6622" y="154.6041">(product-image-queue)</text></g><g class="participant participant-tail" data-participant="SQS"><path d="M371.4539,2093.2292 L537.5081,2093.2292 C542.7165,2093.2292 542.7165,2118.1966 542.7165,2118.1966 C542.7165,2118.1966 542.7165,2143.1641 537.5081,2143.1641 L371.4539,2143.1641 C366.2455,2143.1641 366.2455,2118.1966 366.2455,2118.1966 C366.2455,2118.1966 366.2455,2093.2292 371.4539,2093.2292" fill="#FFA500" style="stroke:#2FA4E7;stroke-width:1.0417;"/><path d="M537.5081,2093.2292 C532.2998,2093.2292 532.2998,2118.1966 532.2998,2118.1966 C532.2998,2143.1641 537.5081,2143.1641 537.5081,2143.1641" fill="none" style="stroke:#2FA4E7;stroke-width:1.0417;"/><text fill="#000000" font-family="'Verdana'" font-size="12.5" lengthAdjust="spacing" textLength="25.708" x="436.4187" y="2115.2486">SQS</text><text fill="#000000" font-family="'Verdana'" font-size="12.5" lengthAdjust="spacing" textLength="145.2209" x="376.6622" y="2129.7994">(product-image-queue)</text></g><g class="participant participant-head" data-participant="Lambda"><rect fill="#008000" height="54.1016" rx="4.1667" ry="4.1667" style="stroke:#2FA4E7;stroke-width:1.0417;" width="175.6653" x="594.7998" y="112.8255"/><text fill="#000000" font-family="'Verdana'" font-size="12.5" lengthAdjust="spacing" textLength="50.3296" x="657.4677" y="136.9283">Lambda</text><text fill="#000000" font-family="'Verdana'" font-size="12.5" lengthAdjust="spacing" textLength="150.6653" x="607.2998" y="151.4791">(ProcessImageFunction)</text></g><g class="participant participant-tail" data-participant="Lambda"><rect fill="#008000" height="54.1016" rx="4.1667" ry="4.1667" style="stroke:#2FA4E7;stroke-width:1.0417;" width="175.6653" x="594.7998" y="2093.2292"/><text fill="#000000" font-family="'Verdana'" font-size="12.5" lengthAdjust="spacing" textLength="50.3296" x="657.4677" y="2117.3319">Lambda</text><text fill="#000000" font-family="'Verdana'" font-size="12.5" lengthAdjust="spacing" textLength="150.6653" x="607.2998" y="2131.8827">(ProcessImageFunction)</text></g><g class="participant participant-head" data-participant="S3Output"><rect fill="#ADD8E6" height="54.1016" rx="4.1667" ry="4.1667" style="stroke:#2FA4E7;stroke-width:1.0417;" width="164.2761" x="864.2151" y="112.8255"/><text fill="#000000" font-family="'Verdana'" font-size="12.5" lengthAdjust="spacing" textLength="15.8875" x="938.4094" y="136.9283">S3</text><text fill="#000000" font-family="'Verdana'" font-size="12.5" lengthAdjust="spacing" textLength="139.2761" x="876.7151" y="151.4791">(image-processor-out)</text></g><g class="participant participant-tail" data-participant="S3Output"><rect fill="#ADD8E6" height="54.1016" rx="4.1667" ry="4.1667" style="stroke:#2FA4E7;stroke-width:1.0417;" width="164.2761" x="864.2151" y="2093.2292"/><text fill="#000000" font-family="'Verdana'" font-size="12.5" lengthAdjust="spacing" textLength="15.8875" x="938.4094" y="2117.3319">S3</text><text fill="#000000" font-family="'Verdana'" font-size="12.5" lengthAdjust="spacing" textLength="139.2761" x="876.7151" y="2131.8827">(image-processor-out)</text></g><g class="participant participant-head" data-participant="DLQ"><path d="M1085.7829,118.0339 L1275.6897,118.0339 C1280.898,118.0339 1280.898,143.0013 1280.898,143.0013 C1280.898,143.0013 1280.898,167.9688 1275.6897,167.9688 L1085.7829,167.9688 C1080.5745,167.9688 1080.5745,143.0013 1080.5745,143.0013 C1080.5745,143.0013 1080.5745,118.0339 1085.7829,118.0339" fill="#FF0000" style="stroke:#2FA4E7;stroke-width:1.0417;"/><path d="M1275.6897,118.0339 C1270.4814,118.0339 1270.4814,143.0013 1270.4814,143.0013 C1270.4814,167.9688 1275.6897,167.9688 1275.6897,167.9688" fill="none" style="stroke:#2FA4E7;stroke-width:1.0417;"/><text fill="#000000" font-family="'Verdana'" font-size="12.5" lengthAdjust="spacing" textLength="26.4282" x="1162.3138" y="140.0533">DLQ</text><text fill="#000000" font-family="'Verdana'" font-size="12.5" lengthAdjust="spacing" textLength="169.0735" x="1090.9912" y="154.6041">(product-image-queue-dlq)</text></g><g class="participant participant-tail" data-participant="DLQ"><path d="M1085.7829,2093.2292 L1275.6897,2093.2292 C1280.898,2093.2292 1280.898,2118.1966 1280.898,2118.1966 C1280.898,2118.1966 1280.898,2143.1641 1275.6897,2143.1641 L1085.7829,2143.1641 C1080.5745,2143.1641 1080.5745,2118.1966 1080.5745,2118.1966 C1080.5745,2118.1966 1080.5745,2093.2292 1085.7829,2093.2292" fill="#FF0000" style="stroke:#2FA4E7;stroke-width:1.0417;"/><path d="M1275.6897,2093.2292 C1270.4814,2093.2292 1270.4814,2118.1966 1270.4814,2118.1966 C1270.4814,2143.1641 1275.6897,2143.1641 1275.6897,2143.1641" fill="none" style="stroke:#2FA4E7;stroke-width:1.0417;"/><text fill="#000000" font-family="'Verdana'" font-size="12.5" lengthAdjust="spacing" textLength="26.4282" x="1162.3138" y="2115.2486">DLQ</text><text fill="#000000" font-family="'Verdana'" font-size="12.5" lengthAdjust="spacing" textLength="169.0735" x="1090.9912" y="2129.7994">(product-image-queue-dlq)</text></g><g class="participant participant-head" data-participant="CW"><rect fill="#800080" height="54.1016" rx="4.1667" ry="4.1667" style="stroke:#2FA4E7;stroke-width:1.0417;" width="100.4211" x="1332.9814" y="112.8255"/><text fill="#000000" font-family="'Verdana'" font-size="12.5" lengthAdjust="spacing" textLength="75.4211" x="1345.4814" y="136.9283">CloudWatch</text><text fill="#000000" font-family="'Verdana'" font-size="12.5" lengthAdjust="spacing" textLength="29.0588" x="1368.6625" y="151.4791">Logs</text></g><g class="participant participant-tail" data-participant="CW"><rect fill="#800080" height="54.1016" rx="4.1667" ry="4.1667" style="stroke:#2FA4E7;stroke-width:1.0417;" width="100.4211" x="1332.9814" y="2093.2292"/><text fill="#000000" font-family="'Verdana'" font-size="12.5" lengthAdjust="spacing" textLength="75.4211" x="1345.4814" y="2117.3319">CloudWatch</text><text fill="#000000" font-family="'Verdana'" font-size="12.5" lengthAdjust="spacing" textLength="29.0588" x="1368.6625" y="2131.8827">Logs</text></g><g><title>S3</title><rect fill="none" height="99.9023" style="stroke:#2683B9;stroke-width:1.0417;" width="10.4167" x="231.3538" y="278.2878"/></g><g><title>S3</title><rect fill="none" height="39.5508" style="stroke:#2683B9;stroke-width:1.0417;" width="10.4167" x="231.3538" y="985.9049"/></g><g><title>SQS</title><rect fill="none" height="143.5547" style="stroke:#2683B9;stroke-width:1.0417;" width="10.4167" x="449.2727" y="486.4258"/></g><g><title>Lambda</title><rect fill="none" height="1119.8568" style="stroke:#2683B9;stroke-width:1.0417;" width="10.4167" x="677.4241" y="738.2161"/></g><g><title>S3</title><rect fill="none" height="39.5508" style="stroke:#2683B9;stroke-width:1.0417;" width="10.4167" x="941.1448" y="1408.431"/></g><g><title>S3</title><rect fill="none" height="39.5508" style="stroke:#2683B9;stroke-width:1.0417;" width="10.4167" x="941.1448" y="1566.6341"/></g><g><title>CloudWatch</title><rect fill="none" height="39.5508" style="stroke:#2683B9;stroke-width:1.0417;" width="10.4167" x="1377.9836" y="852.6693"/></g><g><title>CloudWatch</title><rect fill="none" height="39.5508" style="stroke:#2683B9;stroke-width:1.0417;" width="10.4167" x="1377.9836" y="1065.0065"/></g><g><title>CloudWatch</title><rect fill="none" height="39.5508" style="stroke:#2683B9;stroke-width:1.0417;" width="10.4167" x="1377.9836" y="1487.5326"/></g><g><title>CloudWatch</title><rect fill="none" height="39.5508" style="stroke:#2683B9;stroke-width:1.0417;" width="10.4167" x="1377.9836" y="1645.7357"/></g><g><title>CloudWatch</title><rect fill="none" height="39.5508" style="stroke:#2683B9;stroke-width:1.0417;" width="10.4167" x="1377.9836" y="1724.8372"/></g><rect fill="#F8F9FA" height="3.125" rx="4.1667" ry="4.1667" style="stroke:#F8F9FA;stroke-width:1.0417;" width="1469.8608" x="10.4167" y="204.4108"/><line style="stroke:#868E96;stroke-width:1.0417;" x1="10.4167" x2="1480.2775" y1="204.4108" y2="204.4108"/><line style="stroke:#868E96;stroke-width:1.0417;" x1="10.4167" x2="1480.2775" y1="207.5358" y2="207.5358"/><rect fill="#F8F9FA" height="33.3008" rx="4.1667" ry="4.1667" style="stroke:#868E96;stroke-width:2.0833;" width="179.1931" x="655.7505" y="188.8021"/><text fill="#343A40" font-family="'Verdana'" font-size="12.5" font-weight="bold" lengthAdjust="spacing" textLength="149.8413" x="667.2089" y="209.7799">1. Upload de Imagem</text><g class="message" data-participant-1="User" data-participant-2="S3Input"><polygon fill="#2FA4E7" points="218.8538,274.1211,229.2704,278.2878,218.8538,282.4544,223.0204,278.2878" style="stroke:#2FA4E7;stroke-width:1.0417;"/><line style="stroke:#2FA4E7;stroke-width:3.125;" x1="74.7935" x2="225.1038" y1="278.2878" y2="278.2878"/><text fill="#343A40" font-family="'Verdana'" font-size="12.5" lengthAdjust="spacing" textLength="98.8831" x="103.6321" y="253.4973">Upload imagem</text><text fill="#343A40" font-family="'Verdana'" font-size="12.5" lengthAdjust="spacing" textLength="57.666" x="124.2406" y="268.0481">(foto.jpg)</text></g><path d="M246.875,295.9961 L246.875,336.6211 A4.1667,4.1667 0 0 0 251.0417,340.7878 L464.5833,340.7878 A4.1667,4.1667 0 0 0 468.75,336.6211 L468.75,302.2461 L458.3333,291.8294 L251.0417,291.8294 A4.1667,4.1667 0 0 0 246.875,295.9961" fill="none" style="stroke:#033C73;stroke-width:1.0417;"/><path d="M458.3333,291.8294 L458.3333,300.1628 A2.0833,2.0833 0 0 0 460.4167,302.2461 L468.75,302.2461 L458.3333,291.8294" fill="none" style="stroke:#033C73;stroke-width:1.0417;"/><text fill="#033C73" font-family="'Verdana'" font-size="12.5" lengthAdjust="spacing" textLength="171.8323" x="258.3333" y="313.8489">Bucket: image-processor-in</text><text fill="#033C73" font-family="'Verdana'" font-size="12.5" lengthAdjust="spacing" textLength="190.033" x="258.3333" y="328.3997">Event Notification configurado</text><g class="message" data-participant-1="S3Input" data-participant-2="User"><polygon fill="#2FA4E7" points="86.2518,374.0234,75.8352,378.1901,86.2518,382.3568,82.0852,378.1901" style="stroke:#2FA4E7;stroke-width:1.0417;"/><line style="stroke:#2FA4E7;stroke-width:3.125;stroke-dasharray:2.0833,2.0833;" x1="80.0018" x2="235.5204" y1="378.1901" y2="378.1901"/><text fill="#343A40" font-family="'Verdana'" font-size="12.5" lengthAdjust="spacing" textLength="45.8679" x="132.7438" y="367.9504">200 OK</text></g><rect fill="#F8F9FA" height="3.125" rx="4.1667" ry="4.1667" style="stroke:#F8F9FA;stroke-width:1.0417;" width="1469.8608" x="10.4167" y="412.5488"/><line style="stroke:#868E96;stroke-width:1.0417;" x1="10.4167" x2="1480.2775" y1="412.5488" y2="412.5488"/><line style="stroke:#868E96;stroke-width:1.0417;" x1="10.4167" x2="1480.2775" y1="415.6738" y2="415.6738"/><rect fill="#F8F9FA" height="33.3008" rx="4.1667" ry="4.1667" style="stroke:#868E96;stroke-width:2.0833;" width="174.1638" x="658.2652" y="396.9401"/><text fill="#343A40" font-family="'Verdana'" font-size="12.5" font-weight="bold" lengthAdjust="spacing" textLength="144.812" x="669.7235" y="417.9179">2. Event Notification</text><g class="message" data-participant-1="S3Input" data-participant-2="SQS"><polygon fill="#2FA4E7" points="436.7727,482.2591,447.1893,486.4258,436.7727,490.5924,440.9393,486.4258" style="stroke:#2FA4E7;stroke-width:1.0417;"/><line style="stroke:#2FA4E7;stroke-width:3.125;" x1="236.5621" x2="443.0227" y1="486.4258" y2="486.4258"/><text fill="#343A40" font-family="'Verdana'" font-size="12.5" lengthAdjust="spacing" textLength="101.4343" x="292.2002" y="461.6353">Envia evento S3</text><text fill="#343A40" font-family="'Verdana'" font-size="12.5" lengthAdjust="spacing" textLength="124.7803" x="280.5272" y="476.1861">(ObjectCreated:Put)</text></g><path d="M464.5833,504.1341 L464.5833,588.5091 A4.1667,4.1667 0 0 0 468.75,592.6758 L672.9167,592.6758 A4.1667,4.1667 0 0 0 677.0833,588.5091 L677.0833,510.3841 L666.6667,499.9674 L468.75,499.9674 A4.1667,4.1667 0 0 0 464.5833,504.1341" fill="none" style="stroke:#033C73;stroke-width:1.0417;"/><path d="M666.6667,499.9674 L666.6667,508.3008 A2.0833,2.0833 0 0 0 668.75,510.3841 L677.0833,510.3841 L666.6667,499.9674" fill="none" style="stroke:#033C73;stroke-width:1.0417;"/><text fill="#033C73" font-family="'Verdana'" font-size="12.5" lengthAdjust="spacing" textLength="123.7671" x="476.0417" y="521.9869">Mensagem cont&#233;m:</text><text fill="#033C73" font-family="'Verdana'" font-size="12.5" lengthAdjust="spacing" textLength="180.3162" x="476.0417" y="536.5377">- Bucket: image-processor-in</text><text fill="#033C73" font-family="'Verdana'" font-size="12.5" lengthAdjust="spacing" textLength="87.8662" x="476.0417" y="551.0885">- Key: foto.jpg</text><text fill="#033C73" font-family="'Verdana'" font-size="12.5" lengthAdjust="spacing" textLength="69.6411" x="476.0417" y="565.6392">- Size: 2MB</text><text fill="#033C73" font-family="'Verdana'" font-size="12.5" lengthAdjust="spacing" textLength="78.6438" x="476.0417" y="580.19">- Timestamp</text><g class="message" data-participant-1="SQS" data-participant-2="S3Input"><polygon fill="#2FA4E7" points="248.0204,625.8138,237.6038,629.9805,248.0204,634.1471,243.8538,629.9805" style="stroke:#2FA4E7;stroke-width:1.0417;"/><line style="stroke:#2FA4E7;stroke-width:3.125;stroke-dasharray:2.0833,2.0833;" x1="241.7704" x2="453.4393" y1="629.9805" y2="629.9805"/><text fill="#343A40" font-family="'Verdana'" font-size="12.5" lengthAdjust="spacing" textLength="25.4761" x="332.7835" y="619.7408">ACK</text></g><rect fill="#F8F9FA" height="3.125" rx="4.1667" ry="4.1667" style="stroke:#F8F9FA;stroke-width:1.0417;" width="1469.8608" x="10.4167" y="664.3392"/><line style="stroke:#868E96;stroke-width:1.0417;" x1="10.4167" x2="1480.2775" y1="664.3392" y2="664.3392"/><line style="stroke:#868E96;stroke-width:1.0417;" x1="10.4167" x2="1480.2775" y1="667.4642" y2="667.4642"/><rect fill="#F8F9FA" height="33.3008" rx="4.1667" ry="4.1667" style="stroke:#868E96;stroke-width:2.0833;" width="158.7708" x="665.9617" y="648.7305"/><text fill="#343A40" font-family="'Verdana'" font-size="12.5" font-weight="bold" lengthAdjust="spacing" textLength="129.4189" x="677.42" y="669.7083">3. Lambda Trigger</text><g class="message" data-participant-1="SQS" data-participant-2="Lambda"><polygon fill="#2FA4E7" points="664.9241,734.0495,675.3408,738.2161,664.9241,742.3828,669.0908,738.2161" style="stroke:#2FA4E7;stroke-width:1.0417;"/><line style="stroke:#2FA4E7;stroke-width:3.125;" x1="454.481" x2="671.1741" y1="738.2161" y2="738.2161"/><text fill="#343A40" font-family="'Verdana'" font-size="12.5" lengthAdjust="spacing" textLength="98.1262" x="516.8894" y="713.4257">Poll mensagens</text><text fill="#343A40" font-family="'Verdana'" font-size="12.5" lengthAdjust="spacing" textLength="99.6216" x="516.1418" y="727.9765">(batch_size: 10)</text></g><path d="M692.7083,755.9245 L692.7083,811.1328 A4.1667,4.1667 0 0 0 696.875,815.2995 L891.6667,815.2995 A4.1667,4.1667 0 0 0 895.8333,811.1328 L895.8333,762.1745 L885.4167,751.7578 L696.875,751.7578 A4.1667,4.1667 0 0 0 692.7083,755.9245" fill="none" style="stroke:#033C73;stroke-width:1.0417;"/><path d="M885.4167,751.7578 L885.4167,760.0911 A2.0833,2.0833 0 0 0 887.5,762.1745 L895.8333,762.1745 L885.4167,751.7578" fill="none" style="stroke:#033C73;stroke-width:1.0417;"/><text fill="#033C73" font-family="'Verdana'" font-size="12.5" lengthAdjust="spacing" textLength="122.5342" x="704.1667" y="773.7773">Lambda &#233; invocada</text><text fill="#033C73" font-family="'Verdana'" font-size="12.5" lengthAdjust="spacing" textLength="171.6553" x="704.1667" y="788.328">automaticamente pelo SQS</text><text fill="#033C73" font-family="'Verdana'" font-size="12.5" lengthAdjust="spacing" textLength="146.7957" x="704.1667" y="802.8788">com at&#233; 10 mensagens</text><g class="message" data-participant-1="Lambda" data-participant-2="CW"><polygon fill="#2FA4E7" points="1365.4836,848.5026,1375.9003,852.6693,1365.4836,856.8359,1369.6503,852.6693" style="stroke:#2FA4E7;stroke-width:1.0417;"/><line style="stroke:#2FA4E7;stroke-width:3.125;" x1="687.8408" x2="1371.7336" y1="852.6693" y2="852.6693"/><text fill="#343A40" font-family="'Verdana'" font-size="12.5" lengthAdjust="spacing" textLength="231.427" x="917.1987" y="842.4296">log.Printf("Recebidas N mensagens")</text></g><g class="message" data-participant-1="CW" data-participant-2="Lambda"><polygon fill="#2FA4E7" points="699.2991,888.0534,688.8824,892.2201,699.2991,896.3867,695.1324,892.2201" style="stroke:#2FA4E7;stroke-width:1.0417;"/><line style="stroke:#2FA4E7;stroke-width:3.125;stroke-dasharray:2.0833,2.0833;" x1="693.0491" x2="1382.1503" y1="892.2201" y2="892.2201"/><text fill="#343A40" font-family="'Verdana'" font-size="12.5" lengthAdjust="spacing" textLength="18.0359" x="1026.4984" y="881.9804">OK</text></g><rect fill="#F8F9FA" height="3.125" rx="4.1667" ry="4.1667" style="stroke:#F8F9FA;stroke-width:1.0417;" width="1469.8608" x="10.4167" y="926.5788"/><line style="stroke:#868E96;stroke-width:1.0417;" x1="10.4167" x2="1480.2775" y1="926.5788" y2="926.5788"/><line style="stroke:#868E96;stroke-width:1.0417;" x1="10.4167" x2="1480.2775" y1="929.7038" y2="929.7038"/><rect fill="#F8F9FA" height="33.3008" rx="4.1667" ry="4.1667" style="stroke:#868E96;stroke-width:2.0833;" width="155.2307" x="667.7317" y="910.9701"/><text fill="#343A40" font-family="'Verdana'" font-size="12.5" font-weight="bold" lengthAdjust="spacing" textLength="125.8789" x="679.1901" y="931.9478">4. Processamento</text><g class="message" data-participant-1="Lambda" data-participant-2="S3Input"><polygon fill="#2FA4E7" points="253.2288,981.7383,242.8121,985.9049,253.2288,990.0716,249.0621,985.9049" style="stroke:#2FA4E7;stroke-width:1.0417;"/><line style="stroke:#2FA4E7;stroke-width:3.125;" x1="246.9788" x2="676.3824" y1="985.9049" y2="985.9049"/><text fill="#343A40" font-family="'Verdana'" font-size="12.5" lengthAdjust="spacing" textLength="120.6543" x="399.2701" y="975.6653">GetObject(foto.jpg)</text></g><g class="message" data-participant-1="S3Input" data-participant-2="Lambda"><polygon fill="#2FA4E7" points="664.9241,1021.2891,675.3408,1025.4557,664.9241,1029.6224,669.0908,1025.4557" style="stroke:#2FA4E7;stroke-width:1.0417;"/><line style="stroke:#2FA4E7;stroke-width:3.125;stroke-dasharray:2.0833,2.0833;" x1="236.5621" x2="671.1741" y1="1025.4557" y2="1025.4557"/><text fill="#343A40" font-family="'Verdana'" font-size="12.5" lengthAdjust="spacing" textLength="152.8931" x="380.5466" y="1015.2161">Retorna imagem (bytes)</text></g><g class="message" data-participant-1="Lambda" data-participant-2="CW"><polygon fill="#2FA4E7" points="1365.4836,1060.8398,1375.9003,1065.0065,1365.4836,1069.1732,1369.6503,1065.0065" style="stroke:#2FA4E7;stroke-width:1.0417;"/><line style="stroke:#2FA4E7;stroke-width:3.125;" x1="687.8408" x2="1371.7336" y1="1065.0065" y2="1065.0065"/><text fill="#343A40" font-family="'Verdana'" font-size="12.5" lengthAdjust="spacing" textLength="202.9297" x="931.4473" y="1054.7668">log.Printf("Baixando imagem...")</text></g><g class="message" data-participant-1="CW" data-participant-2="Lambda"><polygon fill="#2FA4E7" points="699.2991,1100.3906,688.8824,1104.5573,699.2991,1108.724,695.1324,1104.5573" style="stroke:#2FA4E7;stroke-width:1.0417;"/><line style="stroke:#2FA4E7;stroke-width:3.125;stroke-dasharray:2.0833,2.0833;" x1="693.0491" x2="1382.1503" y1="1104.5573" y2="1104.5573"/><text fill="#343A40" font-family="'Verdana'" font-size="12.5" lengthAdjust="spacing" textLength="18.0359" x="1026.4984" y="1094.3176">OK</text></g><path d="M570.8333,1122.2656 L570.8333,1206.6406 A4.1667,4.1667 0 0 0 575,1210.8073 L788.5417,1210.8073 A4.1667,4.1667 0 0 0 792.7083,1206.6406 L792.7083,1128.5156 L782.2917,1118.099 L575,1118.099 A4.1667,4.1667 0 0 0 570.8333,1122.2656" fill="none" style="stroke:#033C73;stroke-width:1.0417;"/><path d="M782.2917,1118.099 L782.2917,1126.4323 A2.0833,2.0833 0 0 0 784.375,1128.5156 L792.7083,1128.5156 L782.2917,1118.099" fill="none" style="stroke:#033C73;stroke-width:1.0417;"/><text fill="#033C73" font-family="'Verdana'" font-size="12.5" font-weight="bold" lengthAdjust="spacing" textLength="169.0857" x="582.2917" y="1140.1184">Processamento Interno:</text><text fill="#033C73" font-family="'Verdana'" font-size="12.5" lengthAdjust="spacing" textLength="136.6333" x="582.2917" y="1154.6692">1. Decodifica imagem</text><text fill="#033C73" font-family="'Verdana'" font-size="12.5" lengthAdjust="spacing" textLength="177.0996" x="582.2917" y="1169.22">2. Cria thumbnail (200x200)</text><text fill="#033C73" font-family="'Verdana'" font-size="12.5" lengthAdjust="spacing" textLength="165.0879" x="582.2917" y="1183.7708">3. Cria medium (800x600)</text><text fill="#033C73" font-family="'Verdana'" font-size="12.5" lengthAdjust="spacing" textLength="190.0146" x="582.2917" y="1198.3215">4. Comprime JPEG (quality 85)</text><g class="message" data-participant-1="Lambda" data-participant-2="Lambda"><line style="stroke:#2FA4E7;stroke-width:3.125;" x1="687.8408" x2="731.5908" y1="1248.112" y2="1248.112"/><line style="stroke:#2FA4E7;stroke-width:3.125;" x1="731.5908" x2="731.5908" y1="1248.112" y2="1261.6536"/><line style="stroke:#2FA4E7;stroke-width:3.125;" x1="688.8824" x2="731.5908" y1="1261.6536" y2="1261.6536"/><polygon fill="#2FA4E7" points="699.2991,1257.487,688.8824,1261.6536,699.2991,1265.8203,695.1324,1261.6536" style="stroke:#2FA4E7;stroke-width:1.0417;"/><text fill="#343A40" font-family="'Verdana'" font-size="12.5" lengthAdjust="spacing" textLength="172.0276" x="700.3408" y="1237.8723">resize.Thumbnail(200x200)</text></g><g class="message" data-participant-1="Lambda" data-participant-2="Lambda"><line style="stroke:#2FA4E7;stroke-width:3.125;" x1="687.8408" x2="731.5908" y1="1301.2044" y2="1301.2044"/><line style="stroke:#2FA4E7;stroke-width:3.125;" x1="731.5908" x2="731.5908" y1="1301.2044" y2="1314.7461"/><line style="stroke:#2FA4E7;stroke-width:3.125;" x1="688.8824" x2="731.5908" y1="1314.7461" y2="1314.7461"/><polygon fill="#2FA4E7" points="699.2991,1310.5794,688.8824,1314.7461,699.2991,1318.9128,695.1324,1314.7461" style="stroke:#2FA4E7;stroke-width:1.0417;"/><text fill="#343A40" font-family="'Verdana'" font-size="12.5" lengthAdjust="spacing" textLength="172.0276" x="700.3408" y="1290.9648">resize.Thumbnail(800x600)</text></g><rect fill="#F8F9FA" height="3.125" rx="4.1667" ry="4.1667" style="stroke:#F8F9FA;stroke-width:1.0417;" width="1469.8608" x="10.4167" y="1349.1048"/><line style="stroke:#868E96;stroke-width:1.0417;" x1="10.4167" x2="1480.2775" y1="1349.1048" y2="1349.1048"/><line style="stroke:#868E96;stroke-width:1.0417;" x1="10.4167" x2="1480.2775" y1="1352.2298" y2="1352.2298"/><rect fill="#F8F9FA" height="33.3008" rx="4.1667" ry="4.1667" style="stroke:#868E96;stroke-width:2.0833;" width="282.196" x="604.2491" y="1333.4961"/><text fill="#343A40" font-family="'Verdana'" font-size="12.5" font-weight="bold" lengthAdjust="spacing" textLength="252.8442" x="615.7074" y="1354.4739">5. Upload das Imagens Processadas</text><g class="message" data-participant-1="Lambda" data-participant-2="S3Output"><polygon fill="#2FA4E7" points="928.6448,1404.2643,939.0615,1408.431,928.6448,1412.5977,932.8115,1408.431" style="stroke:#2FA4E7;stroke-width:1.0417;"/><line style="stroke:#2FA4E7;stroke-width:3.125;" x1="687.8408" x2="934.8948" y1="1408.431" y2="1408.431"/><text fill="#343A40" font-family="'Verdana'" font-size="12.5" lengthAdjust="spacing" textLength="192.8467" x="718.0695" y="1398.1913">PutObject(thumbnails/foto.jpg)</text></g><g class="message" data-participant-1="S3Output" data-participant-2="Lambda"><polygon fill="#2FA4E7" points="699.2991,1443.8151,688.8824,1447.9818,699.2991,1452.1484,695.1324,1447.9818" style="stroke:#2FA4E7;stroke-width:1.0417;"/><line style="stroke:#2FA4E7;stroke-width:3.125;stroke-dasharray:2.0833,2.0833;" x1="693.0491" x2="945.3115" y1="1447.9818" y2="1447.9818"/><text fill="#343A40" font-family="'Verdana'" font-size="12.5" lengthAdjust="spacing" textLength="45.8679" x="794.163" y="1437.7421">200 OK</text></g><g class="message" data-participant-1="Lambda" data-participant-2="CW"><polygon fill="#2FA4E7" points="1365.4836,1483.3659,1375.9003,1487.5326,1365.4836,1491.6992,1369.6503,1487.5326" style="stroke:#2FA4E7;stroke-width:1.0417;"/><line style="stroke:#2FA4E7;stroke-width:3.125;" x1="687.8408" x2="1371.7336" y1="1487.5326" y2="1487.5326"/><text fill="#343A40" font-family="'Verdana'" font-size="12.5" lengthAdjust="spacing" textLength="186.4746" x="939.6749" y="1477.2929">log.Printf("Thumbnail criado")</text></g><g class="message" data-participant-1="CW" data-participant-2="Lambda"><polygon fill="#2FA4E7" points="699.2991,1522.9167,688.8824,1527.0833,699.2991,1531.25,695.1324,1527.0833" style="stroke:#2FA4E7;stroke-width:1.0417;"/><line style="stroke:#2FA4E7;stroke-width:3.125;stroke-dasharray:2.0833,2.0833;" x1="693.0491" x2="1382.1503" y1="1527.0833" y2="1527.0833"/><text fill="#343A40" font-family="'Verdana'" font-size="12.5" lengthAdjust="spacing" textLength="18.0359" x="1026.4984" y="1516.8437">OK</text></g><g class="message" data-participant-1="Lambda" data-participant-2="S3Output"><polygon fill="#2FA4E7" points="928.6448,1562.4674,939.0615,1566.6341,928.6448,1570.8008,932.8115,1566.6341" style="stroke:#2FA4E7;stroke-width:1.0417;"/><line style="stroke:#2FA4E7;stroke-width:3.125;" x1="687.8408" x2="934.8948" y1="1566.6341" y2="1566.6341"/><text fill="#343A40" font-family="'Verdana'" font-size="12.5" lengthAdjust="spacing" textLength="174.3225" x="727.3315" y="1556.3944">PutObject(medium/foto.jpg)</text></g><g class="message" data-participant-1="S3Output" data-participant-2="Lambda"><polygon fill="#2FA4E7" points="699.2991,1602.0182,688.8824,1606.1849,699.2991,1610.3516,695.1324,1606.1849" style="stroke:#2FA4E7;stroke-width:1.0417;"/><line style="stroke:#2FA4E7;stroke-width:3.125;stroke-dasharray:2.0833,2.0833;" x1="693.0491" x2="945.3115" y1="1606.1849" y2="1606.1849"/><text fill="#343A40" font-family="'Verdana'" font-size="12.5" lengthAdjust="spacing" textLength="45.8679" x="794.163" y="1595.9452">200 OK</text></g><g class="message" data-participant-1="Lambda" data-participant-2="CW"><polygon fill="#2FA4E7" points="1365.4836,1641.569,1375.9003,1645.7357,1365.4836,1649.9023,1369.6503,1645.7357" style="stroke:#2FA4E7;stroke-width:1.0417;"/><line style="stroke:#2FA4E7;stroke-width:3.125;" x1="687.8408" x2="1371.7336" y1="1645.7357" y2="1645.7357"/><text fill="#343A40" font-family="'Verdana'" font-size="12.5" lengthAdjust="spacing" textLength="170.3369" x="947.7437" y="1635.496">log.Printf("Medium criado")</text></g><g class="message" data-participant-1="CW" data-participant-2="Lambda"><polygon fill="#2FA4E7" points="699.2991,1681.1198,688.8824,1685.2865,699.2991,1689.4531,695.1324,1685.2865" style="stroke:#2FA4E7;stroke-width:1.0417;"/><line style="stroke:#2FA4E7;stroke-width:3.125;stroke-dasharray:2.0833,2.0833;" x1="693.0491" x2="1382.1503" y1="1685.2865" y2="1685.2865"/><text fill="#343A40" font-family="'Verdana'" font-size="12.5" lengthAdjust="spacing" textLength="18.0359" x="1026.4984" y="1675.0468">OK</text></g><g class="message" data-participant-1="Lambda" data-participant-2="CW"><polygon fill="#2FA4E7" points="1365.4836,1720.6706,1375.9003,1724.8372,1365.4836,1729.0039,1369.6503,1724.8372" style="stroke:#2FA4E7;stroke-width:1.0417;"/><line style="stroke:#2FA4E7;stroke-width:3.125;" x1="687.8408" x2="1371.7336" y1="1724.8372" y2="1724.8372"/><text fill="#343A40" font-family="'Verdana'" font-size="12.5" lengthAdjust="spacing" textLength="133.7585" x="966.0329" y="1714.5976">log.Printf("Sucesso!")</text></g><g class="message" data-participant-1="CW" data-participant-2="Lambda"><polygon fill="#2FA4E7" points="699.2991,1760.2214,688.8824,1764.388,699.2991,1768.5547,695.1324,1764.388" style="stroke:#2FA4E7;stroke-width:1.0417;"/><line style="stroke:#2FA4E7;stroke-width:3.125;stroke-dasharray:2.0833,2.0833;" x1="693.0491" x2="1382.1503" y1="1764.388" y2="1764.388"/><text fill="#343A40" font-family="'Verdana'" font-size="12.5" lengthAdjust="spacing" textLength="18.0359" x="1026.4984" y="1754.1484">OK</text></g><rect fill="#F8F9FA" height="3.125" rx="4.1667" ry="4.1667" style="stroke:#F8F9FA;stroke-width:1.0417;" width="1469.8608" x="10.4167" y="1798.7467"/><line style="stroke:#868E96;stroke-width:1.0417;" x1="10.4167" x2="1480.2775" y1="1798.7467" y2="1798.7467"/><line style="stroke:#868E96;stroke-width:1.0417;" x1="10.4167" x2="1480.2775" y1="1801.8717" y2="1801.8717"/><rect fill="#F8F9FA" height="33.3008" rx="4.1667" ry="4.1667" style="stroke:#868E96;stroke-width:2.0833;" width="199.054" x="645.8201" y="1783.138"/><text fill="#343A40" font-family="'Verdana'" font-size="12.5" font-weight="bold" lengthAdjust="spacing" textLength="169.7021" x="657.2784" y="1804.1158">6. Finaliza&#231;&#227;o (Sucesso)</text><g class="message" data-participant-1="Lambda" data-participant-2="SQS"><polygon fill="#2FA4E7" points="465.9393,1853.9063,455.5227,1858.0729,465.9393,1862.2396,461.7727,1858.0729" style="stroke:#2FA4E7;stroke-width:1.0417;"/><line style="stroke:#2FA4E7;stroke-width:3.125;stroke-dasharray:2.0833,2.0833;" x1="459.6893" x2="681.5908" y1="1858.0729" y2="1858.0729"/><text fill="#343A40" font-family="'Verdana'" font-size="12.5" lengthAdjust="spacing" textLength="120.9534" x="508.08" y="1847.8333">return nil (sucesso)</text></g><path d="M459.375,1875.7813 L459.375,1930.9896 A4.1667,4.1667 0 0 0 463.5417,1935.1563 L683.3333,1935.1563 A4.1667,4.1667 0 0 0 687.5,1930.9896 L687.5,1882.0313 L677.0833,1871.6146 L463.5417,1871.6146 A4.1667,4.1667 0 0 0 459.375,1875.7813" fill="none" style="stroke:#033C73;stroke-width:1.0417;"/><path d="M677.0833,1871.6146 L677.0833,1879.9479 A2.0833,2.0833 0 0 0 679.1667,1882.0313 L687.5,1882.0313 L677.0833,1871.6146" fill="none" style="stroke:#033C73;stroke-width:1.0417;"/><text fill="#033C73" font-family="'Verdana'" font-size="12.5" lengthAdjust="spacing" textLength="153.302" x="470.8333" y="1893.634">Quando Lambda retorna</text><text fill="#033C73" font-family="'Verdana'" font-size="12.5" lengthAdjust="spacing" textLength="155.2429" x="470.8333" y="1908.1848">sucesso (nil), SQS deleta</text><text fill="#033C73" font-family="'Verdana'" font-size="12.5" lengthAdjust="spacing" textLength="196.6248" x="470.8333" y="1922.7356">a mensagem automaticamente</text><g class="message" data-participant-1="SQS" data-participant-2="SQS"><line style="stroke:#2FA4E7;stroke-width:3.125;" x1="454.481" x2="498.231" y1="1972.526" y2="1972.526"/><line style="stroke:#2FA4E7;stroke-width:3.125;" x1="498.231" x2="498.231" y1="1972.526" y2="1986.0677"/><line style="stroke:#2FA4E7;stroke-width:3.125;" x1="455.5227" x2="498.231" y1="1986.0677" y2="1986.0677"/><polygon fill="#2FA4E7" points="465.9393,1981.901,455.5227,1986.0677,465.9393,1990.2344,461.7727,1986.0677" style="stroke:#2FA4E7;stroke-width:1.0417;"/><text fill="#343A40" font-family="'Verdana'" font-size="12.5" lengthAdjust="spacing" textLength="105.6091" x="466.981" y="1962.2864">DeleteMessage()</text></g><path d="M15.625,2003.776 L15.625,2073.5677 A4.1667,4.1667 0 0 0 19.7917,2077.7344 L1438.5417,2077.7344 A4.1667,4.1667 0 0 0 1442.7083,2073.5677 L1442.7083,2010.026 L1432.2917,1999.6094 L19.7917,1999.6094 A4.1667,4.1667 0 0 0 15.625,2003.776" fill="#90EE90" style="stroke:#033C73;stroke-width:1.0417;"/><path d="M1432.2917,1999.6094 L1432.2917,2007.9427 A2.0833,2.0833 0 0 0 1434.375,2010.026 L1442.7083,2010.026 L1432.2917,1999.6094" fill="#90EE90" style="stroke:#033C73;stroke-width:1.0417;"/><text fill="#033C73" font-family="'Verdana'" font-size="12.5" font-weight="bold" lengthAdjust="spacing" textLength="240.9119" x="578.8442" y="2021.6288">FLUXO CONCLU&#205;DO COM SUCESSO</text><text fill="#033C73" font-family="'Verdana'" font-size="12.5" lengthAdjust="spacing" textLength="66.6382" x="578.8442" y="2036.1796">Resultado:</text><text fill="#033C73" font-family="'Verdana'" font-size="12.5" lengthAdjust="spacing" textLength="291.3391" x="578.8442" y="2050.7304">- s3://image-processor-out/thumbnails/foto.jpg</text><text fill="#033C73" font-family="'Verdana'" font-size="12.5" lengthAdjust="spacing" textLength="272.8149" x="578.8442" y="2065.2812">- s3://image-processor-out/medium/foto.jpg</text><!--SRC=[lLRDRjj64BxpAIRIHN92secQ811W0nRz0pUoPPiMr4E0OaMEvOt9NNcvgzWf-WXzY2A78i-X5-liafGeHL6J5kX1WZGxVz_CDxFxJDzXXX2ZCYaouKkZKoxGo- -vc3B5CiZnmQ28yHppd4tmCEKJGVf2ewffASodKkILLWzJ-V5GAVaHj39rTsCMtq-KD289PIeLZEwuhf-pM9FqDm_WH0fTwFHICl9-hsdHj-OndpAX_r6NqZVu3IrFSvqYdAJcKK8eiscAMdRXKidO0ia8feG4uImZK2A7LjI1vn1THVJTPzauOMtFAr9k37Cp_rDnsG2Mmp2dyjIpR4ITzwB5hHz_MhYNokUYxTIZpfcO6WtDFf_SwLvA9IlIRb0iiYEBnCJQB-pTKMb8gJG7Yea9heOhiYFJ4ej3S694hBaiWnOgq3nLYE8xaYLkLDaEZDwSxb7_QdEwVf8-5DQa0irhJ5OZXgaqoOZf-EwzwCj9xbJ34JGlZQAkUDx-FhmCO3XD9KiMBSbWVz_pRB71FwYgsAsqNFYCyhcLMWOVffEsxHMVCOsLhYSa_L4M1iZRXHIWP-9x95TVTumEZsT43BYGcj_ocDcAGYp5BPyOnHBfeKZ0-lMyggy-PMUpxCAhlJqOlFCI_2eJY_1LiCctnRZmT61xteLZCUCCSEOOwjer67_0M8SAoMdIlQHcrT1UHUj8IG9mJgHsPQJqzVnBrYMPlnsx3-_mgGjLIPqauf-Ge9tttByRdc6kMJQj5u9uwjTRT1Yk5e7IiGNe11KjRoZL2VNLWRVM1-K9ZQTCKyYAr4LEqCUMDx_cBekNUpNSXSKQz588LQJv5-1Y9cFcXCnecL7TOpVz25DQPMMrOadxYSf4CPRXQo1BVvHfEEf2AYV1fU92txOQrnZZc2T4wOkbPQEMQ3ZoYEn-3UGgIUZSbkUdO6qtsUeimowgUugweCCswjV9MKMzflsd12j71rhZ9urvUoDTlussn_WZ4uailGH1yADGNSFaZDg_QDREpYhoCti32TdTsQ53sWn76Cl4pKmPbiGqJg6YCT5t9XiBnbDeqVmzqgTDfvtoDCE46yBwbexU54TKPtiRA68o_7nvV0gj1yDIhf_WxUlsnevNMEWY91e6DrN4PS3lq5raO7lzUhdjY3VL3LGLmShMcrziPPeFKtL_0JpVtKY4mi9RBFHwLpPjgb9_I-yNO22csYRoHpk_7K_HglyBotb1ZFyAPDrjPDm-VVOlvlzD02TS41C_iVbVyy-I7YI5i_OA6QfBGg4sIe2mnCzBnRhNShWsNWrNnermwL8LUu7afHzeaTVs2_S0IP2UJMvtLiijMr-ZwrT1cU2HjQmUZQrsVV3jTVd2lG3S8wDufDWrSD8V_ZA0S70HzeVpFuxiptE8Xk5n50tSChZ6tAIQMbRSPdcdkxkxuIspks4ujXkiiM-9wMy0]--></g></svg>